<mxfile host="Electron" agent="Mozilla/5.0 (Windows NT 10.0; Win64; x64) AppleWebKit/537.36 (KHTML, like Gecko) draw.io/24.7.17 Chrome/128.0.6613.36 Electron/32.0.1 Safari/537.36" version="24.7.17">
  <diagram id="Gs_7nMCPY5Hj9c7obW9i" name="src">
    <mxGraphModel dx="5536" dy="7032" grid="1" gridSize="10" guides="1" tooltips="1" connect="1" arrows="1" fold="1" page="1" pageScale="1" pageWidth="1169" pageHeight="827" math="0" shadow="0">
      <root>
        <mxCell id="0" />
        <mxCell id="1" parent="0" />
        <mxCell id="HijE4YzQ6DnrZXbQjMkM-2" value="&lt;span style=&quot;font-size: 16px;&quot;&gt;&lt;i&gt;cluster: ecpk-c2&lt;/i&gt;&lt;/span&gt;" style="rounded=1;whiteSpace=wrap;html=1;arcSize=5;verticalAlign=top;align=left;spacingLeft=55;strokeWidth=3;opacity=30;fillColor=#f5f5f5;strokeColor=#666666;fontColor=#333333;glass=1;" parent="1" vertex="1">
          <mxGeometry x="-3080" y="-5490" width="1880" height="1520" as="geometry" />
        </mxCell>
        <mxCell id="wZk0SVXomOxiCGmW0Pwh-2" value="&lt;font style=&quot;font-size: 16px;&quot;&gt;&lt;i&gt;project: ebdz&lt;/i&gt;&lt;/font&gt;" style="rounded=1;whiteSpace=wrap;html=1;opacity=60;dashed=1;arcSize=5;verticalAlign=top;align=left;spacingLeft=55;strokeWidth=2;" parent="1" vertex="1">
          <mxGeometry x="-3040" y="-5160" width="1800" height="1140" as="geometry" />
        </mxCell>
        <mxCell id="4PIL1Zjf6-2FiPBBJ8uf-3" value="" style="rounded=1;whiteSpace=wrap;html=1;fillColor=#f5f5f5;strokeColor=#666666;opacity=60;fontColor=#333333;arcSize=4;" parent="1" vertex="1">
          <mxGeometry x="-3500" y="-4940" width="300" height="800" as="geometry" />
        </mxCell>
        <mxCell id="4PIL1Zjf6-2FiPBBJ8uf-20" value="" style="endArrow=none;html=1;rounded=0;edgeStyle=orthogonalEdgeStyle;entryX=0.5;entryY=1;entryDx=0;entryDy=0;startArrow=classic;startFill=1;endFill=0;endSize=8;startSize=8;elbow=vertical;strokeWidth=2;exitX=0.5;exitY=0;exitDx=0;exitDy=0;" parent="1" source="7-6c2CMcGdHakHLiAiGI-83" target="9gm0HyqsbW9hDULjH3VM-15" edge="1">
          <mxGeometry width="50" height="50" relative="1" as="geometry">
            <mxPoint x="-2458" y="-4624" as="sourcePoint" />
            <mxPoint x="-2794.36" y="-4709.01" as="targetPoint" />
          </mxGeometry>
        </mxCell>
        <mxCell id="4PIL1Zjf6-2FiPBBJ8uf-22" value="" style="endArrow=none;html=1;rounded=0;edgeStyle=orthogonalEdgeStyle;startArrow=classic;startFill=1;endFill=0;strokeWidth=2;entryX=0.5;entryY=1;entryDx=0;entryDy=0;exitX=0.5;exitY=0;exitDx=0;exitDy=0;endSize=8;startSize=8;" parent="1" source="7-6c2CMcGdHakHLiAiGI-65" target="9gm0HyqsbW9hDULjH3VM-80" edge="1">
          <mxGeometry width="50" height="50" relative="1" as="geometry">
            <mxPoint x="-2634.5" y="-2934" as="sourcePoint" />
            <mxPoint x="-3022" y="-3367" as="targetPoint" />
          </mxGeometry>
        </mxCell>
        <mxCell id="4PIL1Zjf6-2FiPBBJ8uf-23" value="&lt;div&gt;Трансформированные&lt;/div&gt;&lt;div&gt;&amp;nbsp;данные (JDBC)&lt;br&gt;&lt;/div&gt;" style="edgeLabel;html=1;align=center;verticalAlign=middle;resizable=0;points=[];fontSize=16;" parent="4PIL1Zjf6-2FiPBBJ8uf-22" vertex="1" connectable="0">
          <mxGeometry x="0.4634" y="-2" relative="1" as="geometry">
            <mxPoint x="-2" y="24" as="offset" />
          </mxGeometry>
        </mxCell>
        <mxCell id="4PIL1Zjf6-2FiPBBJ8uf-48" value="" style="endArrow=none;html=1;rounded=0;edgeStyle=orthogonalEdgeStyle;startArrow=classic;startFill=1;endFill=0;elbow=vertical;strokeWidth=2;exitX=0;exitY=0.5;exitDx=0;exitDy=0;entryX=1;entryY=0.5;entryDx=0;entryDy=0;endSize=8;startSize=8;" parent="1" source="7-6c2CMcGdHakHLiAiGI-65" target="7-6c2CMcGdHakHLiAiGI-83" edge="1">
          <mxGeometry width="50" height="50" relative="1" as="geometry">
            <mxPoint x="-2133.5" y="-2934" as="sourcePoint" />
            <mxPoint x="-2670.71" y="-4426" as="targetPoint" />
            <Array as="points">
              <mxPoint x="-2640" y="-4150" />
              <mxPoint x="-2640" y="-4435" />
              <mxPoint x="-2681" y="-4435" />
            </Array>
          </mxGeometry>
        </mxCell>
        <mxCell id="4PIL1Zjf6-2FiPBBJ8uf-49" value="&lt;div&gt;Данные &lt;br&gt;&lt;/div&gt;&lt;div&gt;в исходном виде&lt;/div&gt;&lt;div&gt;(JDBC)&lt;br&gt;&lt;/div&gt;" style="edgeLabel;html=1;align=center;verticalAlign=middle;resizable=0;points=[];fontSize=16;" parent="4PIL1Zjf6-2FiPBBJ8uf-48" vertex="1" connectable="0">
          <mxGeometry x="-0.0212" y="1" relative="1" as="geometry">
            <mxPoint x="24" y="-2" as="offset" />
          </mxGeometry>
        </mxCell>
        <mxCell id="4PIL1Zjf6-2FiPBBJ8uf-102" value="&lt;font style=&quot;font-size: 24px;&quot;&gt;Источники&lt;/font&gt;" style="text;html=1;align=center;verticalAlign=middle;whiteSpace=wrap;rounded=1;shadow=0;fontSize=23;fontStyle=1;fillColor=#dae8fc;strokeColor=#6c8ebf;opacity=0;rotation=0;" parent="1" vertex="1">
          <mxGeometry x="-3442" y="-4932.41" width="179" height="57.41" as="geometry" />
        </mxCell>
        <mxCell id="4PIL1Zjf6-2FiPBBJ8uf-107" value="&lt;span style=&quot;font-size: 28px;&quot;&gt;ИР МЗ МТР&lt;/span&gt;" style="text;html=1;align=center;verticalAlign=middle;whiteSpace=wrap;rounded=0;shadow=0;fontSize=23;fontStyle=1;fillColor=#dae8fc;strokeColor=#6c8ebf;opacity=50;rotation=0;strokeWidth=3;perimeterSpacing=3;glass=1;" parent="1" vertex="1">
          <mxGeometry x="-3500.0000000000005" y="-5780" width="199.16" height="70" as="geometry" />
        </mxCell>
        <mxCell id="4PIL1Zjf6-2FiPBBJ8uf-160" value="" style="endArrow=none;html=1;rounded=0;edgeStyle=elbowEdgeStyle;startArrow=classic;startFill=1;endFill=0;endSize=15;startSize=15;elbow=vertical;strokeWidth=3;strokeColor=#b85450;fillColor=#f8cecc;" parent="1" source="9gm0HyqsbW9hDULjH3VM-89" target="4PIL1Zjf6-2FiPBBJ8uf-310" edge="1">
          <mxGeometry width="50" height="50" relative="1" as="geometry">
            <mxPoint x="-2794.36" y="-4773.65" as="sourcePoint" />
            <mxPoint x="-2316" y="-5115" as="targetPoint" />
            <Array as="points">
              <mxPoint x="-2250" y="-4970" />
            </Array>
          </mxGeometry>
        </mxCell>
        <mxCell id="4PIL1Zjf6-2FiPBBJ8uf-162" value="" style="endArrow=none;html=1;rounded=0;edgeStyle=elbowEdgeStyle;startArrow=classic;startFill=1;endFill=0;endSize=15;startSize=15;elbow=vertical;strokeWidth=3;exitX=0.5;exitY=0;exitDx=0;exitDy=0;fillColor=#f8cecc;strokeColor=#b85450;" parent="1" source="9gm0HyqsbW9hDULjH3VM-61" target="4PIL1Zjf6-2FiPBBJ8uf-310" edge="1">
          <mxGeometry width="50" height="50" relative="1" as="geometry">
            <mxPoint x="-1042.3599999999997" y="-4765.64" as="sourcePoint" />
            <mxPoint x="-2665" y="-5330" as="targetPoint" />
            <Array as="points">
              <mxPoint x="-1890" y="-4970" />
            </Array>
          </mxGeometry>
        </mxCell>
        <mxCell id="4PIL1Zjf6-2FiPBBJ8uf-199" value="" style="endArrow=none;html=1;rounded=0;edgeStyle=orthogonalEdgeStyle;startArrow=classic;startFill=1;endFill=0;strokeWidth=2;entryX=0;entryY=0.25;entryDx=0;entryDy=0;exitX=0.001;exitY=0.784;exitDx=0;exitDy=0;endSize=8;startSize=8;exitPerimeter=0;" parent="1" source="9gm0HyqsbW9hDULjH3VM-80" target="7-6c2CMcGdHakHLiAiGI-65" edge="1">
          <mxGeometry width="50" height="50" relative="1" as="geometry">
            <mxPoint x="-2722" y="-3305" as="sourcePoint" />
            <mxPoint x="-2367" y="-2934" as="targetPoint" />
            <Array as="points">
              <mxPoint x="-2236" y="-4596" />
              <mxPoint x="-2260" y="-4596" />
              <mxPoint x="-2260" y="-4190" />
            </Array>
          </mxGeometry>
        </mxCell>
        <mxCell id="4PIL1Zjf6-2FiPBBJ8uf-200" value="&lt;div&gt;Данные &lt;br&gt;&lt;/div&gt;&lt;div&gt;в исходном виде&lt;/div&gt;&lt;div&gt;(JDBC)&lt;br&gt;&lt;/div&gt;" style="edgeLabel;html=1;align=center;verticalAlign=middle;resizable=0;points=[];fontSize=16;" parent="4PIL1Zjf6-2FiPBBJ8uf-199" vertex="1" connectable="0">
          <mxGeometry x="0.4634" y="-2" relative="1" as="geometry">
            <mxPoint x="2" y="-158" as="offset" />
          </mxGeometry>
        </mxCell>
        <mxCell id="4PIL1Zjf6-2FiPBBJ8uf-310" value="&lt;font style=&quot;font-size: 14px;&quot;&gt;Внутренние пользователи&lt;/font&gt;" style="sketch=0;outlineConnect=0;fontColor=#232F3E;gradientColor=none;fillColor=#232F3D;strokeColor=none;dashed=0;verticalLabelPosition=bottom;verticalAlign=top;align=center;html=1;fontSize=12;fontStyle=0;aspect=fixed;pointerEvents=1;shape=mxgraph.aws4.users;" parent="1" vertex="1">
          <mxGeometry x="-2434.58" y="-5670" width="98" height="98" as="geometry" />
        </mxCell>
        <mxCell id="DJda7eC-gQhfn4efG2wS-65" value="" style="endArrow=none;html=1;rounded=0;edgeStyle=elbowEdgeStyle;entryX=0.5;entryY=0;entryDx=0;entryDy=0;startArrow=classic;startFill=1;endFill=0;endSize=8;startSize=8;strokeWidth=2;exitX=0;exitY=0.5;exitDx=0;exitDy=0;" parent="1" source="7-6c2CMcGdHakHLiAiGI-83" target="S8_118ayMiiW59fDtrsM-7" edge="1">
          <mxGeometry width="50" height="50" relative="1" as="geometry">
            <mxPoint x="-2643" y="-3876.5" as="sourcePoint" />
            <mxPoint x="-3322.0000000000005" y="-4579" as="targetPoint" />
            <Array as="points">
              <mxPoint x="-3150" y="-4590" />
            </Array>
          </mxGeometry>
        </mxCell>
        <mxCell id="DJda7eC-gQhfn4efG2wS-66" value="&lt;span style=&quot;font-size: 18px;&quot;&gt;RFC (SAP)&lt;/span&gt;" style="edgeLabel;html=1;align=center;verticalAlign=middle;resizable=0;points=[];" parent="DJda7eC-gQhfn4efG2wS-65" vertex="1" connectable="0">
          <mxGeometry x="0.3434" relative="1" as="geometry">
            <mxPoint x="-10" y="-107" as="offset" />
          </mxGeometry>
        </mxCell>
        <mxCell id="S8_118ayMiiW59fDtrsM-1" value="" style="group" parent="1" vertex="1" connectable="0">
          <mxGeometry x="-3440" y="-4638" width="175" height="220" as="geometry" />
        </mxCell>
        <mxCell id="DJda7eC-gQhfn4efG2wS-23" value="" style="rounded=1;whiteSpace=wrap;html=1;arcSize=5;fillColor=#bac8d3;strokeColor=#23445d;opacity=50;" parent="S8_118ayMiiW59fDtrsM-1" vertex="1">
          <mxGeometry width="160" height="220" as="geometry" />
        </mxCell>
        <mxCell id="DJda7eC-gQhfn4efG2wS-24" value="ЛУС" style="rounded=1;whiteSpace=wrap;html=1;fillColor=none;strokeColor=none;fontStyle=1;align=left;" parent="S8_118ayMiiW59fDtrsM-1" vertex="1">
          <mxGeometry x="13" y="1" width="127.5" height="40" as="geometry" />
        </mxCell>
        <mxCell id="DJda7eC-gQhfn4efG2wS-26" value="" style="sketch=0;outlineConnect=0;fontColor=#232F3E;gradientColor=none;fillColor=#232F3D;strokeColor=none;dashed=0;verticalLabelPosition=bottom;verticalAlign=top;align=center;html=1;fontSize=12;fontStyle=0;aspect=fixed;pointerEvents=1;shape=mxgraph.aws4.generic_application;" parent="S8_118ayMiiW59fDtrsM-1" vertex="1">
          <mxGeometry x="14" y="101" width="110" height="110" as="geometry" />
        </mxCell>
        <mxCell id="DJda7eC-gQhfn4efG2wS-27" value="&lt;span style=&quot;font-size: 11px;&quot;&gt;&lt;b&gt;ЛУС Connector&lt;/b&gt;&lt;/span&gt;" style="rounded=1;whiteSpace=wrap;html=1;fillColor=#dae8fc;strokeColor=#6c8ebf;rotation=270;flipH=0;direction=west;" parent="S8_118ayMiiW59fDtrsM-1" vertex="1">
          <mxGeometry x="60" y="95.5" width="200" height="30" as="geometry" />
        </mxCell>
        <mxCell id="BHnDcMYj4xYxUDNpLY_9-21" value="" style="shape=image;verticalLabelPosition=bottom;labelBackgroundColor=default;verticalAlign=top;aspect=fixed;imageAspect=0;image=data:image/svg+xml,PHN2ZyB4bWxucz0iaHR0cDovL3d3dy53My5vcmcvMjAwMC9zdmciIHByZXNlcnZlQXNwZWN0UmF0aW89InhNaWRZTWlkIiB2aWV3Qm94PSIwIC0wLjAwMDAwMTQzMDUxMTQ3NDYwOTM3NSA1MTIgNjYuNTU5OTk3NTU4NTkzNzUiIGhlaWdodD0iMTAzLjk5OTk5NjE4NTMwMjczIiB3aWR0aD0iODAwIj48cGF0aCBmaWxsPSIjRUExQjIyIiBkPSJNMjIxLjAzNCA0My4zMDNoMzMuODMybC0xNy44ODktMjguNzgxLTMyLjgzMyA1Mi4wMzdoLTE0Ljk0MmwzOS45MzUtNjIuNTA4YzEuNzM2LTIuNTI1IDQuNjMtNC4wNTEgNy44NC00LjA1MSAzLjEwNCAwIDUuOTk4IDEuNDczIDcuNjgyIDMuOTQ2bDQwLjA5MyA2Mi42MTNIMjY5LjgxbC03LjA1LTExLjYyOGgtMzQuMjUzbC03LjQ3Mi0xMS42Mjh6TTM3Ni4yNTEgNTQuOTNWLjYzMWgtMTIuNjh2NTkuNjE0YzAgMS42MzEuNjMxIDMuMjEgMS44NDEgNC40MnMyLjg0MSAxLjg5NCA0LjYzIDEuODk0aDU3LjgyNWw3LjQ3Mi0xMS42MjhIMzc2LjI1em0tMjA5Ljc4LTkuNzM0YzEyLjMxMyAwIDIyLjMxLTkuOTQ0IDIyLjMxLTIyLjI1NiAwLTEyLjMxMy05Ljk5Ny0yMi4zMS0yMi4zMS0yMi4zMWgtNTUuNDczVjY2LjU2aDEyLjY3NnYtNTQuM2g0MS45NTZjNS44OTMgMCAxMC42MjggNC43ODkgMTAuNjI4IDEwLjY4MiAwIDUuODkyLTQuNzM1IDEwLjY4LTEwLjYyOCAxMC42OGwtMzUuNzQ3LS4wNTIgMzcuODUxIDMyLjk5aDE4LjQxNmwtMjUuNDY2LTIxLjM2Mmg1Ljc4OHpNMzIuOTcgNjYuNTU5QzE0Ljc3IDY2LjU2IDAgNTEuODI3IDAgMzMuNjIyIDAgMTUuNDE2IDE0Ljc3LjYzMiAzMi45Ny42MzJoMzguMzJjMTguMjA0IDAgMzIuOTYzIDE0Ljc4NCAzMi45NjMgMzIuOTkgMCAxOC4yMDUtMTQuNzU5IDMyLjkzNy0zMi45NjQgMzIuOTM3SDMyLjk3em0zNy40NjgtMTEuNjI4YzExLjc5MSAwIDIxLjM0MS05LjUyNCAyMS4zNDEtMjEuMzEgMC0xMS43ODUtOS41NS0yMS4zNjEtMjEuMzQxLTIxLjM2MWgtMzYuNjJjLTExLjc4NyAwLTIxLjM0MiA5LjU3Ni0yMS4zNDIgMjEuMzYyIDAgMTEuNzg1IDkuNTU1IDIxLjMwOSAyMS4zNDEgMjEuMzA5aDM2LjYyem0yNDAuNzggMTEuNjI4Yy0xOC4yMDQgMC0zMi45OS0xNC43MzItMzIuOTktMzIuOTM3IDAtMTguMjA2IDE0Ljc4Ni0zMi45OSAzMi45OS0zMi45OWg0NS41MTRsLTcuNDIgMTEuNjI4SDMxMi4wNmMtMTEuNzg2IDAtMjEuMzYyIDkuNTc2LTIxLjM2MiAyMS4zNjIgMCAxMS43ODUgOS41NzYgMjEuMzA5IDIxLjM2MiAyMS4zMDloNDUuNzIzbC03LjQ3MiAxMS42MjhoLTM5LjA5M3ptMTU1LjA2LTExLjYyOGMtOS43MzQgMC0xNy45OTUtNi41MjQtMjAuNTItMTUuNTIyaDU0LjE5NGw3LjQ3MS0xMS42MjhoLTYxLjY2NWMyLjUyNS04Ljk0NSAxMC43ODYtMTUuNTIxIDIwLjUyLTE1LjUyMWgzNy4yTDUxMSAuNjNoLTQ1LjU2NWMtMTguMjA1IDAtMzIuOTkgMTQuNzg1LTMyLjk5IDMyLjk5IDAgMTguMjA2IDE0Ljc4NSAzMi45MzggMzIuOTkgMzIuOTM4aDM5LjA5NEw1MTIgNTQuOTMxaC00NS43MjN6Ii8+PC9zdmc+;" parent="S8_118ayMiiW59fDtrsM-1" vertex="1">
          <mxGeometry x="14" y="50" width="119.23" height="15.5" as="geometry" />
        </mxCell>
        <mxCell id="BHnDcMYj4xYxUDNpLY_9-22" value="" style="shape=image;verticalLabelPosition=bottom;labelBackgroundColor=default;verticalAlign=top;aspect=fixed;imageAspect=0;image=data:image/svg+xml,PHN2ZyB4bWxucz0iaHR0cDovL3d3dy53My5vcmcvMjAwMC9zdmciIHZpZXdCb3g9IjAgMCA0ODkuNzYwMTEgMjM4Ljg1ODE2IiBoZWlnaHQ9IjIzOC44NTgxNSIgd2lkdGg9IjQ4OS43NjAxIiB4bWw6c3BhY2U9InByZXNlcnZlIiBpZD0ic3ZnMiIgdmVyc2lvbj0iMS4xIj48bWV0YWRhdGEgaWQ9Im1ldGFkYXRhOCI+aW1hZ2Uvc3ZnK3htbDwvbWV0YWRhdGE+PGRlZnMgaWQ9ImRlZnM2Ij48Y2xpcFBhdGggaWQ9ImNsaXBQYXRoMTgiIGNsaXBQYXRoVW5pdHM9InVzZXJTcGFjZU9uVXNlIj48cGF0aCBpZD0icGF0aDE2IiBkPSJNIDAsMCBIIDU5NS4yNzYgViA1OTUuMjc2IEggMCBaIi8+PC9jbGlwUGF0aD48L2RlZnM+PGcgdHJhbnNmb3JtPSJtYXRyaXgoMS4zMzMzMzMzLDAsMCwtMS4zMzMzMzMzLDUzLjY4NjQ5LDg5Ny4xODk2NCkiIGlkPSJnMTAiPjxnIHRyYW5zZm9ybT0ibWF0cml4KDUuODQyNzE5NiwwLDAsNS44NDI3MTk2LC0xNTgzLjgzNjYsLTIzOTEuMDg2KSIgaWQ9ImcxMiI+PGcgY2xpcC1wYXRoPSJ1cmwoI2NsaXBQYXRoMTgpIiBpZD0iZzE0Ij48ZyB0cmFuc2Zvcm09InRyYW5zbGF0ZSgyOTYuODA5Miw0OTcuODI3NikiIGlkPSJnMjAiPjxwYXRoIGlkPSJwYXRoMjIiIHN0eWxlPSJmaWxsOiNkOTE5MjA7ZmlsbC1vcGFjaXR5OjE7ZmlsbC1ydWxlOm5vbnplcm87c3Ryb2tlOm5vbmUiIGQ9Im0gMCwwIGMgLTEuMjE1LDAuMDgxIC0yLjYxNiwwLjI5NCAtMy43MjEsMC42MTQgLTAuMjA3LDAuMDYgLTEuMDY0LDAuMzc1IC0xLjI4MiwwLjQ3NSAtMy44NDcsMS43ODIgLTYuNTI3LDUuNjcyIC02LjUyNywxMC4xODUgMCw2LjE5IDUuMDM2LDExLjIzMiAxMS4yMywxMS4yMzIgNi4xMzksMCAxMS4xNDEsLTQuOTU2IDExLjIyNywtMTEuMDc2IGggNC4wNTcgQyAxNC44OTgsMTkuNzg2IDguMDc3LDI2LjU1OCAtMC4zLDI2LjU1OCBjIC04LjQyNywwIC0xNS4yODYsLTYuODU1IC0xNS4yODYsLTE1LjI4NCAwLC01LjgxMSAzLjI2OCwtMTAuODY1IDguMDUzLC0xMy40NDcgMC44NjQsLTAuNDU3IDIuMTA0LC0wLjkyOCAyLjUyNSwtMS4wNTcgMS4zNjQsLTAuNDA2IDMuMDM4LC0wLjY3NiA0LjUyOCwtMC43ODkgMC41MDYsLTAuMDM4IDIuMjczLC0wLjA1OCAyLjc4OCwtMC4wNiBoIDI3LjkzOCB2IDQuMDQxIEggMi4zNTUgQyAxLjk4NCwtMC4wMzggMC4zNjMsLTAuMDI0IDAsMCBtIDIuMzU1LDYuMzQ1IHYgMCBjIC0wLjI5NSwwIC0xLjgzOCwwLjAxIC0yLjEyMywwLjAzNCAtMC40ODMsMC4wNDEgLTEuMTgzLDAuMTEzIC0xLjYzMywwLjIxNiAtMC41MDgsMC4xMzYgLTAuOTg1LDAuMzE2IC0xLjIsMC40MzQgLTEuNTA3LDAuODE1IC0yLjUzNCwyLjQwOSAtMi41MzQsNC4yNDUgMCwyLjY3MSAyLjE2Myw0LjgzNyA0LjgzNSw0LjgzNyAyLjYxNiwwIDQuNzQzLC0yLjA4MSA0LjgyOCwtNC42ODEgaCAzLjg5OCBjIC0wLjA4Miw0Ljc1IC0zLjk1NCw4LjU3OCAtOC43MjYsOC41NzggLTQuODI1LDAgLTguNzM2LC0zLjkxIC04LjczNiwtOC43MzQgMCwtMy40MDIgMS45NSwtNi4zNCA0Ljc5LC03Ljc3OSBDIC0zLjgwOSwzLjIzOSAtMi45ODcsMi45NzEgLTIuNzUzLDIuOTEgLTEuOTUxLDIuNjk5IC0wLjg3NCwyLjU1NSAwLDIuNDkxIDAuMzIzLDIuNDY0IDEuOTA1LDIuNDUyIDIuMjM5LDIuNDUgViAyLjQ0NCBIIDMwLjI0NSBWIDYuMzQ1IFogTSAtMTguMDg2LC00LjA2NCBoIC00LjA4NCB2IDI2LjU2MSBoIC01Ljk2OCB2IDQuMDg1IGggMTAuMDUyIHogbSAtMTQuNTM2LDI0LjUyIHYgLTMuOTI4IGggNC40ODQgViAtNC4wNjQgaCAzLjkyNCB2IDI0LjUyIHoiLz48L2c+PGcgdHJhbnNmb3JtPSJ0cmFuc2xhdGUoMzE5LjgzODgsNTI0LjEyNDMpIiBpZD0iZzI0Ij48cGF0aCBpZD0icGF0aDI2IiBzdHlsZT0iZmlsbDojZDkxOTIwO2ZpbGwtb3BhY2l0eToxO2ZpbGwtcnVsZTpub256ZXJvO3N0cm9rZTpub25lIiBkPSJtIDAsMCBjIC0xLjQ3MSwwIC0yLjY5MSwtMS4xNzMgLTIuNjkxLC0yLjY0NSAwLC0xLjQ3MiAxLjIyLC0yLjY5MiAyLjY5MSwtMi42OTIgMS41MTYsMCAyLjY4OSwxLjIyIDIuNjg5LDIuNjkyIEMgMi42ODksLTEuMTczIDEuNTE2LDAgMCwwIG0gMCwtNC45MDMgYyAtMS4yMTUsMCAtMi4yNjIsMC45NTUgLTIuMjYyLDIuMjU4IDAsMS4yMzcgMS4wNDcsMi4yMTYgMi4yNjIsMi4yMTYgMS4yMTQsMCAyLjI1NiwtMC45NzkgMi4yNTYsLTIuMjE2IDAsLTEuMzAzIC0xLjA0MiwtMi4yNTggLTIuMjU2LC0yLjI1OCIvPjwvZz48ZyB0cmFuc2Zvcm09InRyYW5zbGF0ZSgzMjAuODYzNCw1MjAuNzU0NSkiIGlkPSJnMjgiPjxwYXRoIGlkPSJwYXRoMzAiIHN0eWxlPSJmaWxsOiNkOTE5MjA7ZmlsbC1vcGFjaXR5OjE7ZmlsbC1ydWxlOm5vbnplcm87c3Ryb2tlOm5vbmUiIGQ9Im0gMCwwIGMgMCwwLjI5NyAtMC4wNDQsMC41NzMgLTAuMzg0LDAuNjgyIDAuNDI2LDAuMTQ4IDAuNDY4LDAuNDI3IDAuNDY4LDAuNTk2IDAsMC42ODMgLTAuNjIsMC43NyAtMC44NzUsMC43NyBoIC0xLjE3MyB2IC0yLjY0NSBoIDAuNDg5IHYgMS4wODUgaCAwLjM4NSBjIDAuNTU0LDAgMC42LC0wLjI1NSAwLjYsLTAuNDg4IDAsLTAuNDUxIDAsLTAuNTM2IDAuMTA2LC0wLjU5NyBoIDAuNDkgQyAwLC0wLjQ5IDAuMDQyLC0wLjQwNyAwLDAgbSAtMC44OTgsMC44NzQgaCAtMC41NzcgdiAwLjgzMyBoIDAuNDk0IGMgMC4zNDIsMCAwLjU3NCwtMC4xMDggMC41NzQsLTAuNDI5IDAsLTAuMTY5IC0wLjA4MywtMC40MDQgLTAuNDkxLC0wLjQwNCIvPjwvZz48L2c+PC9nPjwvZz48L3N2Zz4=;" parent="S8_118ayMiiW59fDtrsM-1" vertex="1">
          <mxGeometry x="14" y="76.5" width="38.95" height="19" as="geometry" />
        </mxCell>
        <mxCell id="S8_118ayMiiW59fDtrsM-2" value="" style="group" parent="1" vertex="1" connectable="0">
          <mxGeometry x="-3440" y="-4875" width="175" height="220" as="geometry" />
        </mxCell>
        <mxCell id="S8_118ayMiiW59fDtrsM-3" value="" style="rounded=1;whiteSpace=wrap;html=1;arcSize=5;fillColor=#bac8d3;strokeColor=#23445d;opacity=50;" parent="S8_118ayMiiW59fDtrsM-2" vertex="1">
          <mxGeometry width="160" height="220" as="geometry" />
        </mxCell>
        <mxCell id="S8_118ayMiiW59fDtrsM-4" value="КИС SAP РН" style="rounded=1;whiteSpace=wrap;html=1;fillColor=none;strokeColor=none;fontStyle=1;align=left;" parent="S8_118ayMiiW59fDtrsM-2" vertex="1">
          <mxGeometry x="13" y="1" width="127.5" height="40" as="geometry" />
        </mxCell>
        <mxCell id="S8_118ayMiiW59fDtrsM-5" value="" style="shape=image;verticalLabelPosition=bottom;labelBackgroundColor=default;verticalAlign=top;aspect=fixed;imageAspect=0;image=data:image/svg+xml,PHN2ZyB4bWxucz0iaHR0cDovL3d3dy53My5vcmcvMjAwMC9zdmciIHN0cm9rZS13aWR0aD0iMC4wMDAyNDAwMDAwMDAwMDAwMDAwMyIgc3Ryb2tlPSIjMTg2ZGM3IiByb2xlPSJpbWciIHZpZXdCb3g9IjAgMCAyNC4wMCAyNC4wMCIgaGVpZ2h0PSI4MDBweCIgd2lkdGg9IjgwMHB4IiBmaWxsPSIjMTg2ZGM3Ij4mI3hhOyYjeGE7PGcgc3Ryb2tlLXdpZHRoPSIwIiBpZD0iU1ZHUmVwb19iZ0NhcnJpZXIiLz4mI3hhOyYjeGE7PGcgc3Ryb2tlLWxpbmVqb2luPSJyb3VuZCIgc3Ryb2tlLWxpbmVjYXA9InJvdW5kIiBpZD0iU1ZHUmVwb190cmFjZXJDYXJyaWVyIi8+JiN4YTsmI3hhOzxnIGlkPSJTVkdSZXBvX2ljb25DYXJyaWVyIj4mI3hhOyYjeGE7PHRpdGxlPlNBUCBpY29uPC90aXRsZT4mI3hhOyYjeGE7PHBhdGggZD0iTTAgNi4wNjR2MTEuODcyaDEyLjEzTDI0IDYuMDY0em0zLjI2NCAyLjIwOGguMDA1Yy44NjMuMDAxIDEuOTE1LjI0NSAyLjY3Ni42MzNsLS44MiAxLjQzYy0uODM1LS40MDQtMS4yNTUtLjQ0Mi0xLjczLS40NjctLjcwOC0uMDM4LTEuMDY0LjIxNS0xLjA2OS40ODgtLjAwNy4zMzIuNjY5LjYzMyAxLjMwNS44MzguOTY0LjMwNiAyLjE5LjcxNSAyLjM3NyAxLjlMNy43NyA4LjQzN2gyLjA0NmwyLjA2NCA1LjU3Ni0uMDA3LTUuNTc1aDIuMzdjMi4yNTcgMCAzLjMxOC43NjQgMy4zMTggMi41MTkgMCAxLjU3NS0xLjA5IDIuNTE0LTIuOTM2IDIuNTE0aC0uNzYzbC0uMDEgMi4wOTQtMy41ODgtLjAwMy0uMjUtLjkwOGMtLjM3LjEyMi0uNzg3LjE4OS0xLjIzLjE4OS0uNDU2IDAtLjg4NS0uMDcxLTEuMjYzLS4ybC0uMzU4LjkxOS0yIC4wMDYuMDktLjQ2MmMtLjAyOS4wMjUtLjA1Ny4wNS0uMDg3LjA3NC0uNTM1LjQzLTEuMjA4LjYyOS0yLjAzNy42NDRsLS4yMTMuMDAyYTUuMDc1IDUuMDc1IDAgMCAxLTIuNTgxLS42NzVsLjczLTEuNDQ4Yy43OS40NjcgMS4yODYuNTcyIDEuOTU2LjU1OC4zNDctLjAwNy41OTgtLjA3Ljc2MS0uMjM5YS41NTcuNTU3IDAgMCAwIC4xNTYtLjM2OWMuMDA3LS4zNzYtLjUzLS41NTMtMS4xODUtLjc1Ni0uNTMxLS4xNjQtMS4xMzUtLjM4OS0xLjYwNi0uNzM1LS41NTktLjQxLS44MjUtLjkyNC0uODEyLTEuNjVhMS45OSAxLjk5IDAgMCAxIC41NjYtMS4zNzdjLjUxOS0uNTM3IDEuMzU3LS44NjMgMi4zNjMtLjg2M3ptMTAuNTk3IDEuNjd2MS45MDRoLjUyMWMuNjk0IDAgMS4yNDctLjIzIDEuMjQ4LS45NjQgMC0uNzA5LS41NTQtLjk0LTEuMjQ4LS45NHptLTUuMDg3Ljc2N2wtLjc0OCAyLjM2MmMuMjIzLjA4NS40ODEuMTMzLjc1Ny4xMzMuMjY4IDAgLjUyLS4wNDcuNzQyLS4xMjZsLS43MzYtMi4zN3oiLz4mI3hhOyYjeGE7PC9nPiYjeGE7JiN4YTs8L3N2Zz4=;" parent="S8_118ayMiiW59fDtrsM-2" vertex="1">
          <mxGeometry x="14" y="41" width="60" height="60" as="geometry" />
        </mxCell>
        <mxCell id="S8_118ayMiiW59fDtrsM-6" value="" style="sketch=0;outlineConnect=0;fontColor=#232F3E;gradientColor=none;fillColor=#232F3D;strokeColor=none;dashed=0;verticalLabelPosition=bottom;verticalAlign=top;align=center;html=1;fontSize=12;fontStyle=0;aspect=fixed;pointerEvents=1;shape=mxgraph.aws4.generic_application;" parent="S8_118ayMiiW59fDtrsM-2" vertex="1">
          <mxGeometry x="14" y="101" width="110" height="110" as="geometry" />
        </mxCell>
        <mxCell id="S8_118ayMiiW59fDtrsM-7" value="&lt;b style=&quot;border-color: var(--border-color); font-size: 11px;&quot;&gt;КИС SAP РН Connector&lt;/b&gt;" style="rounded=1;whiteSpace=wrap;html=1;fillColor=#dae8fc;strokeColor=#6c8ebf;rotation=270;flipH=0;direction=west;" parent="S8_118ayMiiW59fDtrsM-2" vertex="1">
          <mxGeometry x="60" y="95.5" width="200" height="30" as="geometry" />
        </mxCell>
        <mxCell id="S8_118ayMiiW59fDtrsM-8" value="" style="endArrow=none;html=1;rounded=0;edgeStyle=elbowEdgeStyle;entryX=0.5;entryY=0;entryDx=0;entryDy=0;startArrow=classic;startFill=1;endFill=0;endSize=8;startSize=8;strokeWidth=2;exitX=0;exitY=0.5;exitDx=0;exitDy=0;" parent="1" source="7-6c2CMcGdHakHLiAiGI-83" target="DJda7eC-gQhfn4efG2wS-27" edge="1">
          <mxGeometry width="50" height="50" relative="1" as="geometry">
            <mxPoint x="-3026" y="-4395" as="sourcePoint" />
            <mxPoint x="-3363.29" y="-4441.5" as="targetPoint" />
            <Array as="points">
              <mxPoint x="-3150" y="-4430" />
            </Array>
          </mxGeometry>
        </mxCell>
        <mxCell id="7-6c2CMcGdHakHLiAiGI-75" value="" style="group" parent="1" vertex="1" connectable="0">
          <mxGeometry x="-2256" y="-4250" width="300.4200000000001" height="180" as="geometry" />
        </mxCell>
        <mxCell id="7-6c2CMcGdHakHLiAiGI-65" value="&lt;font color=&quot;#000000&quot;&gt;&lt;i&gt;ns: ebdz-clickhouse&lt;/i&gt;&lt;/font&gt;" style="rounded=1;whiteSpace=wrap;html=1;arcSize=3;fillColor=#f5f5f5;strokeColor=#000000;strokeWidth=1;align=left;verticalAlign=top;fontFamily=Helvetica;fontSize=12;fontColor=#333333;resizable=1;container=0;dashed=1;dashPattern=12 12;spacingLeft=5;" parent="7-6c2CMcGdHakHLiAiGI-75" vertex="1">
          <mxGeometry x="19.579999999999927" y="20" width="280.84" height="160" as="geometry" />
        </mxCell>
        <mxCell id="7-6c2CMcGdHakHLiAiGI-66" value="5" style="ellipse;whiteSpace=wrap;html=1;aspect=fixed;rounded=1;fillColor=#0050ef;strokeColor=#001DBC;fontStyle=1;fontColor=#ffffff;container=0;" parent="7-6c2CMcGdHakHLiAiGI-75" vertex="1">
          <mxGeometry x="269.1599999999994" y="150" width="23" height="23" as="geometry" />
        </mxCell>
        <mxCell id="7-6c2CMcGdHakHLiAiGI-71" value="&lt;span style=&quot;font-size: 11px;&quot;&gt;&lt;b&gt;Storage&lt;/b&gt;&lt;/span&gt;" style="rounded=1;whiteSpace=wrap;html=1;fillColor=#dae8fc;strokeColor=#6c8ebf;container=0;" parent="7-6c2CMcGdHakHLiAiGI-75" vertex="1">
          <mxGeometry x="30" y="150" width="60" height="20" as="geometry" />
        </mxCell>
        <mxCell id="7-6c2CMcGdHakHLiAiGI-68" value="&lt;span style=&quot;color: rgb(0, 0, 0); font-size: 20px; font-weight: 700;&quot;&gt;Clickhouse&lt;/span&gt;" style="rounded=1;whiteSpace=wrap;html=1;arcSize=13;fillColor=#d5e8d4;strokeColor=#82b366;strokeWidth=1;align=center;verticalAlign=middle;fontFamily=Helvetica;fontSize=12;resizable=1;container=0;" parent="7-6c2CMcGdHakHLiAiGI-75" vertex="1">
          <mxGeometry x="80" y="65" width="160" height="70" as="geometry" />
        </mxCell>
        <mxCell id="7-6c2CMcGdHakHLiAiGI-73" value="" style="shape=image;verticalLabelPosition=bottom;labelBackgroundColor=default;verticalAlign=top;aspect=fixed;imageAspect=0;image=data:image/svg+xml,PHN2ZyB4bWxucz0iaHR0cDovL3d3dy53My5vcmcvMjAwMC9zdmciIGZpbGw9Im5vbmUiIHZpZXdCb3g9IjAgMCA3NSA1MSIgaGVpZ2h0PSI1MSIgd2lkdGg9Ijc1Ij4mI3hhOzxyZWN0IGZpbGw9IiNGQUZGNjkiIHJ4PSIwLjI3OTkxNyIgaGVpZ2h0PSIxOS4yNjg1IiB3aWR0aD0iMi4xNDA5NCIgeT0iNy4xODQyIiB4PSIyOC4yNjU0Ii8+JiN4YTs8cmVjdCBmaWxsPSIjRkFGRjY5IiByeD0iMC4yNzk5MTciIGhlaWdodD0iMTkuMjY4NSIgd2lkdGg9IjIuMTQwOTQiIHk9IjcuMTg0MiIgeD0iMzIuNTQ3NSIvPiYjeGE7PHJlY3QgZmlsbD0iI0ZBRkY2OSIgcng9IjAuMjc5OTE3IiBoZWlnaHQ9IjE5LjI2ODUiIHdpZHRoPSIyLjE0MDk0IiB5PSI3LjE4NDIiIHg9IjM2LjgyOTciLz4mI3hhOzxyZWN0IGZpbGw9IiNGQUZGNjkiIHJ4PSIwLjI3OTkxNyIgaGVpZ2h0PSIxOS4yNjg1IiB3aWR0aD0iMi4xNDA5NCIgeT0iNy4xODQyIiB4PSI0MS4xMTA4Ii8+JiN4YTs8cmVjdCBmaWxsPSIjRkFGRjY5IiByeD0iMC4yNzk5MTciIGhlaWdodD0iNC4yODE4OSIgd2lkdGg9IjIuMTQwOTQiIHk9IjE0LjY3NzkiIHg9IjQ1LjM5NCIvPiYjeGE7PHBhdGggZmlsbD0id2hpdGUiIGQ9Ik0xMC4yNiAzNS4yNzA4QzkuODMwNzIgMzUuMjcwOCA5LjQ0NTk3IDM1LjM0NzggOS4xMDU3NyAzNS41MDE3QzguNzY1NTcgMzUuNjQ3NSA4LjQ3Mzk3IDM1Ljg2NjIgOC4yMzA5NyAzNi4xNTc4QzcuOTk2MDcgMzYuNDQ5NCA3LjgxMzgyIDM2LjgwMTcgNy42ODQyMiAzNy4yMTQ4QzcuNTYyNzIgMzcuNjI3OSA3LjUwMTk3IDM4LjA5MzcgNy41MDE5NyAzOC42MTIxQzcuNTAxOTcgMzkuMjkyNSA3LjYwMzIyIDM5Ljg4MzggNy44MDU3MiA0MC4zODZDOC4wMDgyMiA0MC44ODAxIDguMzExOTcgNDEuMjYwOCA4LjcxNjk3IDQxLjUyODFDOS4xMjE5NyA0MS43OTU0IDkuNjMyMjcgNDEuOTI5IDEwLjI0NzkgNDEuOTI5QzEwLjYyMDUgNDEuOTI5IDEwLjk3NjkgNDEuODk2NiAxMS4zMTcxIDQxLjgzMThDMTEuNjY1NCA0MS43NTg5IDEyLjAxNzcgNDEuNjY1OCAxMi4zNzQxIDQxLjU1MjRWNDIuNjgyM0MxMi4wMzM5IDQyLjgxMTkgMTEuNjg1NiA0Mi45MDUxIDExLjMyOTIgNDIuOTYxOEMxMC45NzI4IDQzLjAyNjYgMTAuNTU5NyA0My4wNTkgMTAuMDg5OSA0My4wNTlDOS4yMDcwMiA0My4wNTkgOC40Njk5MiA0Mi44NzY4IDcuODc4NjIgNDIuNTEyMkM3LjI5NTQyIDQyLjE0NzcgNi44NTgwMiA0MS42MjkzIDYuNTY2NDIgNDAuOTU3QzYuMjc0ODIgNDAuMjg0NyA2LjEyOTAyIDM5LjQ5OSA2LjEyOTAyIDM4LjU5OTlDNi4xMjkwMiAzNy45NDM4IDYuMjE4MTIgMzcuMzQ0NCA2LjM5NjMyIDM2LjgwMTdDNi41ODI2MiAzNi4yNTA5IDYuODQ5OTIgMzUuNzc3MSA3LjE5ODIyIDM1LjM4MDJDNy41NDY1MiAzNC45ODMzIDcuOTc1ODIgMzQuNjc5NSA4LjQ4NjEyIDM0LjQ2ODlDOS4wMDQ1MiAzNC4yNTAyIDkuNTk5ODcgMzQuMTQwOSAxMC4yNzIyIDM0LjE0MDlDMTAuNzA5NiAzNC4xNDA5IDExLjEzODkgMzQuMTg5NSAxMS41NjAxIDM0LjI4NjdDMTEuOTgxMyAzNC4zNzU4IDEyLjM2MiAzNC41MDU0IDEyLjcwMjIgMzQuNjc1NUwxMi4yMTYyIDM1Ljc2OUMxMS45MzI3IDM1LjYzOTQgMTEuNjI0OSAzNS41MjYgMTEuMjkyOCAzNS40Mjg4QzEwLjk2ODggMzUuMzIzNSAxMC42MjQ1IDM1LjI3MDggMTAuMjYgMzUuMjcwOFpNMTUuMzg1IDQyLjkzNzVIMTQuMDk3MVYzMy43MDM1SDE1LjM4NVY0Mi45Mzc1Wk0xOC42OTU0IDM2LjM4ODZWNDIuOTM3NUgxNy40MDc1VjM2LjM4ODZIMTguNjk1NFpNMTguMDYzNiAzMy44OTc5QzE4LjI1OCAzMy44OTc5IDE4LjQyODEgMzMuOTU0NiAxOC41NzM5IDM0LjA2OEMxOC43MTk3IDM0LjE4MTQgMTguNzkyNiAzNC4zNzE3IDE4Ljc5MjYgMzQuNjM5QzE4Ljc5MjYgMzQuODk4MiAxOC43MTk3IDM1LjA4ODYgMTguNTczOSAzNS4yMTAxQzE4LjQyODEgMzUuMzIzNSAxOC4yNTggMzUuMzgwMiAxOC4wNjM2IDM1LjM4MDJDMTcuODUzIDM1LjM4MDIgMTcuNjc0OCAzNS4zMjM1IDE3LjUyOSAzNS4yMTAxQzE3LjM5MTMgMzUuMDg4NiAxNy4zMjI1IDM0Ljg5ODIgMTcuMzIyNSAzNC42MzlDMTcuMzIyNSAzNC4zNzE3IDE3LjM5MTMgMzQuMTgxNCAxNy41MjkgMzQuMDY4QzE3LjY3NDggMzMuOTU0NiAxNy44NTMgMzMuODk3OSAxOC4wNjM2IDMzLjg5NzlaTTIzLjM1NDUgNDMuMDU5QzIyLjc1NTEgNDMuMDU5IDIyLjIyODYgNDIuOTQxNiAyMS43NzUgNDIuNzA2NkMyMS4zMjE0IDQyLjQ3MTcgMjAuOTY5IDQyLjEwNzIgMjAuNzE3OSA0MS42MTMxQzIwLjQ2NjggNDEuMTEwOSAyMC4zNDEzIDQwLjQ3NTEgMjAuMzQxMyAzOS43MDU2QzIwLjM0MTMgMzguODk1NiAyMC40NzQ5IDM4LjIzOTUgMjAuNzQyMiAzNy43MzczQzIxLjAxNzYgMzcuMjM1MSAyMS4zODYyIDM2Ljg2NjUgMjEuODQ3OSAzNi42MzE2QzIyLjMxNzcgMzYuMzg4NiAyMi44NTIzIDM2LjI2NzEgMjMuNDUxNyAzNi4yNjcxQzIzLjgxNjIgMzYuMjY3MSAyNC4xNTY0IDM2LjMwNzYgMjQuNDcyMyAzNi4zODg2QzI0Ljc5NjMgMzYuNDYxNSAyNS4wNjM2IDM2LjU0NjYgMjUuMjc0MiAzNi42NDM4TDI0Ljg4NTQgMzcuNjg4N0MyNC42NTg2IDM3LjU5OTYgMjQuNDE1NiAzNy41MjI2IDI0LjE1NjQgMzcuNDU3OEMyMy45MDUzIDM3LjM5MyAyMy42NjYzIDM3LjM2MDYgMjMuNDM5NSAzNy4zNjA2QzIzLjAzNDUgMzcuMzYwNiAyMi42OTg0IDM3LjQ0OTcgMjIuNDMxMSAzNy42Mjc5QzIyLjE3MTkgMzcuNzk4IDIxLjk3NzUgMzguMDU3MiAyMS44NDc5IDM4LjQwNTVDMjEuNzI2NCAzOC43NDU3IDIxLjY2NTYgMzkuMTc1IDIxLjY2NTYgMzkuNjkzNEMyMS42NjU2IDQwLjE4NzUgMjEuNzMwNCA0MC42MDQ3IDIxLjg2IDQwLjk0NDlDMjEuOTg5NiA0MS4yODUxIDIyLjE4IDQxLjU0NDMgMjIuNDMxMSA0MS43MjI1QzIyLjY5MDMgNDEuODkyNiAyMy4wMTAyIDQxLjk3NzYgMjMuMzkwOSA0MS45Nzc2QzIzLjc1NTQgNDEuOTc3NiAyNC4wNzU0IDQxLjkzNzEgMjQuMzUwOCA0MS44NTYxQzI0LjYyNjIgNDEuNzc1MSAyNC44ODU0IDQxLjY2OTggMjUuMTI4NCA0MS41NDAyVjQyLjY1OEMyNC44OTM1IDQyLjc5NTcgMjQuNjM4MyA0Mi44OTcgMjQuMzYyOSA0Mi45NjE4QzI0LjA4NzUgNDMuMDI2NiAyMy43NTE0IDQzLjA1OSAyMy4zNTQ1IDQzLjA1OVpNMjcuOTUgMzguMzIwNUMyNy45NSAzOC40OTA2IDI3Ljk0MTkgMzguNjg1IDI3LjkyNTcgMzguOTAzN0MyNy45MTc2IDM5LjEyMjQgMjcuOTA1NSAzOS4zMjQ5IDI3Ljg4OTMgMzkuNTExMkgyNy45MjU3QzI3Ljk5MDUgMzkuNDMwMiAyOC4wNjc1IDM5LjMzMyAyOC4xNTY2IDM5LjIxOTZDMjguMjUzOCAzOS4wOTgxIDI4LjM1MSAzOC45NzY2IDI4LjQ0ODIgMzguODU1MUMyOC41NDU0IDM4LjczMzYgMjguNjM0NSAzOC42MjgzIDI4LjcxNTUgMzguNTM5MkwzMC43MjAyIDM2LjM4ODZIMzIuMjE0N0wyOS41NzgxIDM5LjE5NTNMMzIuMzg0OCA0Mi45Mzc1SDMwLjg2NkwyOC43MDMzIDQwLjAwOTNMMjcuOTUgNDAuNjQxMVY0Mi45Mzc1SDI2LjY3NDNWMzMuNzAzNUgyNy45NVYzOC4zMjA1Wk00MC4zNzQ2IDQyLjkzNzVIMzkuMDYyNFYzOC45NzY2SDM0LjkxOTJWNDIuOTM3NUgzMy42MDdWMzQuMjYyNEgzNC45MTkyVjM3Ljg1ODhIMzkuMDYyNFYzNC4yNjI0SDQwLjM3NDZWNDIuOTM3NVpNNDguMzIxMiAzOS42NTdDNDguMzIxMiA0MC4xOTk3IDQ4LjI0ODMgNDAuNjgxNiA0OC4xMDI1IDQxLjEwMjhDNDcuOTU2NyA0MS41MjQgNDcuNzUwMiA0MS44ODA0IDQ3LjQ4MjkgNDIuMTcyQzQ3LjIxNTYgNDIuNDYzNiA0Ni44OTE2IDQyLjY4NjQgNDYuNTEwOSA0Mi44NDAzQzQ2LjEzMDIgNDIuOTg2MSA0NS43MDA5IDQzLjA1OSA0NS4yMjMgNDMuMDU5QzQ0Ljc4NTYgNDMuMDU5IDQ0LjM4MDYgNDIuOTg2MSA0NC4wMDggNDIuODQwM0M0My42MzU0IDQyLjY4NjQgNDMuMzExNCA0Mi40NjM2IDQzLjAzNiA0Mi4xNzJDNDIuNzY4NyA0MS44ODA0IDQyLjU1ODEgNDEuNTI0IDQyLjQwNDIgNDEuMTAyOEM0Mi4yNTAzIDQwLjY4MTYgNDIuMTczMyA0MC4xOTU2IDQyLjE3MzMgMzkuNjQ0OEM0Mi4xNzMzIDM4LjkyMzkgNDIuMjk0OCAzOC4zMTI0IDQyLjUzNzggMzcuODEwMkM0Mi43ODg5IDM3LjMwOCA0My4xNDUzIDM2LjkyNzMgNDMuNjA3IDM2LjY2ODFDNDQuMDc2OCAzNi40MDA4IDQ0LjYyNzYgMzYuMjY3MSA0NS4yNTk0IDM2LjI2NzFDNDUuODU4OCAzNi4yNjcxIDQ2LjM4NTMgMzYuNDAwOCA0Ni44Mzg5IDM2LjY2ODFDNDcuMzAwNiAzNi45MjczIDQ3LjY2MTEgMzcuMzA4IDQ3LjkyMDMgMzcuODEwMkM0OC4xODc2IDM4LjMxMjQgNDguMzIxMiAzOC45MjggNDguMzIxMiAzOS42NTdaTTQzLjQ5NzcgMzkuNjU3QzQzLjQ5NzcgNDAuMTQzIDQzLjU1ODQgNDAuNTY0MiA0My42Nzk5IDQwLjkyMDZDNDMuODAxNCA0MS4yNjg5IDQzLjk5MTggNDEuNTM2MiA0NC4yNTEgNDEuNzIyNUM0NC41MTAyIDQxLjkwODggNDQuODQyMyA0Mi4wMDE5IDQ1LjI0NzMgNDIuMDAxOUM0NS42NTIzIDQyLjAwMTkgNDUuOTg0NCA0MS45MDg4IDQ2LjI0MzYgNDEuNzIyNUM0Ni41MDI4IDQxLjUzNjIgNDYuNjkzMSA0MS4yNjg5IDQ2LjgxNDYgNDAuOTIwNkM0Ni45MzYxIDQwLjU2NDIgNDYuOTk2OSA0MC4xNDMgNDYuOTk2OSAzOS42NTdDNDYuOTk2OSAzOS4xNTQ4IDQ2LjkzMjEgMzguNzMzNiA0Ni44MDI1IDM4LjM5MzRDNDYuNjgxIDM4LjA1MzIgNDYuNDkwNiAzNy43OTQgNDYuMjMxNCAzNy42MTU4QzQ1Ljk4MDMgMzcuNDI5NSA0NS42NDgyIDM3LjMzNjMgNDUuMjM1MSAzNy4zMzYzQzQ0LjYyNzYgMzcuMzM2MyA0NC4xODYyIDM3LjUzODggNDMuOTEwOCAzNy45NDM4QzQzLjYzNTQgMzguMzQ4OCA0My40OTc3IDM4LjkxOTkgNDMuNDk3NyAzOS42NTdaTTU1LjU5MTUgMzYuMzg4NlY0Mi45Mzc1SDU0LjU1ODdMNTQuMzc2NSA0Mi4wNzQ4SDU0LjMxNTdDNTQuMTc4IDQyLjMwMTYgNTMuOTk5OCA0Mi40ODc5IDUzLjc4MTEgNDIuNjMzN0M1My41NjI0IDQyLjc3OTUgNTMuMzIzNSA0Mi44ODQ4IDUzLjA2NDMgNDIuOTQ5N0M1Mi44MDUxIDQzLjAyMjYgNTIuNTM3OCA0My4wNTkgNTIuMjYyNCA0My4wNTlDNTEuNzUyMSA0My4wNTkgNTEuMzE4NyA0Mi45NzggNTAuOTYyMyA0Mi44MTZDNTAuNjE0IDQyLjY0NTkgNTAuMzQ2NyA0Mi4zODY3IDUwLjE2MDQgNDIuMDM4NEM0OS45ODIyIDQxLjY4MiA0OS44OTMxIDQxLjIyODQgNDkuODkzMSA0MC42Nzc2VjM2LjM4ODZINTEuMTkzMlY0MC40ODMyQzUxLjE5MzIgNDAuOTkzNSA1MS4yOTg1IDQxLjM3NDIgNTEuNTA5MSA0MS42MjUzQzUxLjcyNzggNDEuODc2NCA1Mi4wNjM5IDQyLjAwMTkgNTIuNTE3NSA0Mi4wMDE5QzUyLjk3MTEgNDIuMDAxOSA1My4zMjc1IDQxLjkxMjggNTMuNTg2NyA0MS43MzQ2QzUzLjg0NTkgNDEuNTU2NCA1NC4wMjgyIDQxLjI5NzIgNTQuMTMzNSA0MC45NTdDNTQuMjQ2OSA0MC42MDg3IDU0LjMwMzYgNDAuMTkxNiA1NC4zMDM2IDM5LjcwNTZWMzYuMzg4Nkg1NS41OTE1Wk02MS45NTY3IDQxLjA5MDdDNjEuOTU2NyA0MS41MiA2MS44NTE0IDQxLjg4MDQgNjEuNjQwOCA0Mi4xNzJDNjEuNDMwMiA0Mi40NjM2IDYxLjEyNjQgNDIuNjg2NCA2MC43Mjk1IDQyLjg0MDNDNjAuMzMyNiA0Mi45ODYxIDU5Ljg1NDcgNDMuMDU5IDU5LjI5NTggNDMuMDU5QzU4LjgzNDEgNDMuMDU5IDU4LjQzNzIgNDMuMDIyNiA1OC4xMDUxIDQyLjk0OTdDNTcuNzgxMSA0Mi44ODQ4IDU3LjQ4MTQgNDIuNzg3NiA1Ny4yMDYgNDIuNjU4VjQxLjUyODFDNTcuNDk3NiA0MS42NjU4IDU3LjgzMzggNDEuNzkxMyA1OC4yMTQ1IDQxLjkwNDdDNTguNTk1MiA0Mi4wMSA1OC45Njc4IDQyLjA2MjcgNTkuMzMyMyA0Mi4wNjI3QzU5LjgxODMgNDIuMDYyNyA2MC4xNjY2IDQxLjk4NTcgNjAuMzc3MiA0MS44MzE4QzYwLjU5NTkgNDEuNjc3OSA2MC43MDUyIDQxLjQ3MTQgNjAuNzA1MiA0MS4yMTIyQzYwLjcwNTIgNDEuMDY2NCA2MC42NjQ3IDQwLjkzNjggNjAuNTgzNyA0MC44MjM0QzYwLjUwMjcgNDAuNzAxOSA2MC4zNDg4IDQwLjU4MDQgNjAuMTIyIDQwLjQ1ODlDNTkuOTAzMyA0MC4zMjkzIDU5LjU3OTMgNDAuMTgzNSA1OS4xNSA0MC4wMjE1QzU4LjczNjkgMzkuODUxNCA1OC4zODQ2IDM5LjY4NTMgNTguMDkzIDM5LjUyMzNDNTcuODAxNCAzOS4zNTMyIDU3LjU3ODYgMzkuMTU0OCA1Ny40MjQ3IDM4LjkyOEM1Ny4yNzA4IDM4LjY5MzEgNTcuMTkzOSAzOC4zOTM0IDU3LjE5MzkgMzguMDI4OUM1Ny4xOTM5IDM3LjQ2MTkgNTcuNDIwNyAzNy4wMjg1IDU3Ljg3NDMgMzYuNzI4OEM1OC4zMzYgMzYuNDIxIDU4Ljk0MzUgMzYuMjY3MSA1OS42OTY4IDM2LjI2NzFDNjAuMDkzNyAzNi4yNjcxIDYwLjQ2NjMgMzYuMzA3NiA2MC44MTQ2IDM2LjM4ODZDNjEuMTcxIDM2LjQ2MTUgNjEuNTE1MiAzNi41NzQ5IDYxLjg0NzMgMzYuNzI4OEw2MS40MjIxIDM3LjcxM0M2MS4yMzU4IDM3LjYyMzkgNjEuMDQxNCAzNy41NTEgNjAuODM4OSAzNy40OTQzQzYwLjY0NDUgMzcuNDI5NSA2MC40NDYgMzcuMzc2OCA2MC4yNDM1IDM3LjMzNjNDNjAuMDQ5MSAzNy4yOTU4IDU5Ljg0NjYgMzcuMjc1NiA1OS42MzYgMzcuMjc1NkM1OS4yNDcyIDM3LjI3NTYgNTguOTUxNiAzNy4zMzYzIDU4Ljc0OTEgMzcuNDU3OEM1OC41NDY2IDM3LjU3OTMgNTguNDQ1MyAzNy43NDk0IDU4LjQ0NTMgMzcuOTY4MUM1OC40NDUzIDM4LjEyMiA1OC40ODk5IDM4LjI1NTcgNTguNTc5IDM4LjM2OTFDNTguNjc2MiAzOC40ODI1IDU4Ljg0MjIgMzguNTk1OSA1OS4wNzcxIDM4LjcwOTNDNTkuMzEyIDM4LjgyMjcgNTkuNjMyIDM4Ljk2MDQgNjAuMDM3IDM5LjEyMjRDNjAuNDQyIDM5LjI3NjMgNjAuNzg2MiAzOS40MzQyIDYxLjA2OTcgMzkuNTk2MkM2MS4zNjEzIDM5Ljc1ODIgNjEuNTggMzkuOTU2NyA2MS43MjU4IDQwLjE5MTZDNjEuODc5NyA0MC40MjY1IDYxLjk1NjcgNDAuNzI2MiA2MS45NTY3IDQxLjA5MDdaTTY2LjA2NzkgMzYuMjY3MUM2Ni42NDMgMzYuMjY3MSA2Ny4xMzcxIDM2LjM4ODYgNjcuNTUwMiAzNi42MzE2QzY3Ljk2MzMgMzYuODY2NSA2OC4yNzkyIDM3LjIwNjcgNjguNDk3OSAzNy42NTIyQzY4LjcyNDcgMzguMDk3NyA2OC44MzgxIDM4LjYyNDIgNjguODM4MSAzOS4yMzE3VjM5LjkzNjRINjQuNDM5OEM2NC40NTYgNDAuNjA4NyA2NC42MzAyIDQxLjEyMzEgNjQuOTYyMyA0MS40Nzk1QzY1LjMwMjUgNDEuODM1OSA2NS43NzYzIDQyLjAxNDEgNjYuMzgzOCA0Mi4wMTQxQzY2LjgwNSA0Mi4wMTQxIDY3LjE3NzYgNDEuOTc3NiA2Ny41MDE2IDQxLjkwNDdDNjcuODMzNyA0MS44MjM3IDY4LjE3MzkgNDEuNzA2MyA2OC41MjIyIDQxLjU1MjRWNDIuNjIxNkM2OC4xOTgyIDQyLjc2NzQgNjcuODY2MSA0Mi44NzY3IDY3LjUyNTkgNDIuOTQ5N0M2Ny4xOTM4IDQzLjAyMjYgNjYuNzk2OSA0My4wNTkgNjYuMzM1MiA0My4wNTlDNjUuNzAzNCA0My4wNTkgNjUuMTQ0NSA0Mi45MzM0IDY0LjY1ODUgNDIuNjgyM0M2NC4xNzI1IDQyLjQzMTIgNjMuNzkxOCA0Mi4wNTg2IDYzLjUxNjQgNDEuNTY0NUM2My4yNDkxIDQxLjA2MjMgNjMuMTE1NSA0MC40NDY3IDYzLjExNTUgMzkuNzE3N0M2My4xMTU1IDM4Ljk4MDYgNjMuMjM3IDM4LjM1NjkgNjMuNDggMzcuODQ2NkM2My43MzExIDM3LjMzNjMgNjQuMDc1MyAzNi45NDc1IDY0LjUxMjcgMzYuNjgwMkM2NC45NTgyIDM2LjQwNDggNjUuNDc2NiAzNi4yNjcxIDY2LjA2NzkgMzYuMjY3MVpNNjYuMDY3OSAzNy4yNjM0QzY1LjYwNjIgMzcuMjYzNCA2NS4yMzM2IDM3LjQxMzMgNjQuOTUwMSAzNy43MTNDNjQuNjc0NyAzOC4wMTI3IDY0LjUxMjcgMzguNDM3OSA2NC40NjQxIDM4Ljk4ODdINjcuNTUwMkM2Ny41NTAyIDM4LjY0ODUgNjcuNDk3NiAzOC4zNDg4IDY3LjM5MjMgMzguMDg5NkM2Ny4yODcgMzcuODMwNCA2Ny4xMjUgMzcuNjI3OSA2Ni45MDYzIDM3LjQ4MjFDNjYuNjg3NiAzNy4zMzYzIDY2LjQwODEgMzcuMjYzNCA2Ni4wNjc5IDM3LjI2MzRaIi8+JiN4YTs8L3N2Zz4=;container=0;" parent="7-6c2CMcGdHakHLiAiGI-75" vertex="1">
          <mxGeometry x="196" y="105.92000000000007" width="44.12" height="30" as="geometry" />
        </mxCell>
        <mxCell id="9gm0HyqsbW9hDULjH3VM-12" value="" style="group" parent="1" vertex="1" connectable="0">
          <mxGeometry x="-2981.5299999999997" y="-4537" width="315.28999999999996" height="180" as="geometry" />
        </mxCell>
        <mxCell id="9gm0HyqsbW9hDULjH3VM-10" value="" style="group" parent="9gm0HyqsbW9hDULjH3VM-12" vertex="1" connectable="0">
          <mxGeometry width="300.4199999999999" height="180" as="geometry" />
        </mxCell>
        <mxCell id="7-6c2CMcGdHakHLiAiGI-83" value="&lt;font color=&quot;#000000&quot;&gt;&lt;i&gt;ns: ebdz-elfw&lt;/i&gt;&lt;/font&gt;" style="rounded=1;whiteSpace=wrap;html=1;arcSize=3;fillColor=#f5f5f5;strokeColor=#000000;strokeWidth=1;align=left;verticalAlign=top;fontFamily=Helvetica;fontSize=12;fontColor=#333333;resizable=1;container=0;dashed=1;dashPattern=12 12;spacingLeft=5;" parent="9gm0HyqsbW9hDULjH3VM-10" vertex="1">
          <mxGeometry x="19.579999999999927" y="20" width="280.84" height="160" as="geometry" />
        </mxCell>
        <mxCell id="7-6c2CMcGdHakHLiAiGI-84" value="2" style="ellipse;whiteSpace=wrap;html=1;aspect=fixed;rounded=1;fillColor=#0050ef;strokeColor=#001DBC;fontStyle=1;fontColor=#ffffff;container=0;" parent="9gm0HyqsbW9hDULjH3VM-10" vertex="1">
          <mxGeometry x="269.1599999999994" y="150" width="23" height="23" as="geometry" />
        </mxCell>
        <mxCell id="7-6c2CMcGdHakHLiAiGI-89" value="&lt;span style=&quot;font-size: 11px;&quot;&gt;&lt;b&gt;ETL&lt;/b&gt;&lt;/span&gt;" style="rounded=1;whiteSpace=wrap;html=1;fillColor=#ffe6cc;strokeColor=#d79b00;container=0;" parent="9gm0HyqsbW9hDULjH3VM-10" vertex="1">
          <mxGeometry x="30" y="150" width="60" height="20" as="geometry" />
        </mxCell>
        <mxCell id="7-6c2CMcGdHakHLiAiGI-86" value="&lt;span style=&quot;color: rgb(0, 0, 0); font-weight: 700;&quot;&gt;&lt;font style=&quot;font-size: 18px;&quot;&gt;EL Framework&lt;/font&gt;&lt;/span&gt;" style="rounded=1;whiteSpace=wrap;html=1;arcSize=13;fillColor=#d5e8d4;strokeColor=#82b366;strokeWidth=1;align=center;verticalAlign=middle;fontFamily=Helvetica;fontSize=12;resizable=1;container=0;" parent="9gm0HyqsbW9hDULjH3VM-10" vertex="1">
          <mxGeometry x="80" y="65" width="160" height="70" as="geometry" />
        </mxCell>
        <mxCell id="7-6c2CMcGdHakHLiAiGI-92" value="" style="shape=image;verticalLabelPosition=bottom;labelBackgroundColor=default;verticalAlign=top;aspect=fixed;imageAspect=0;image=data:image/svg+xml,PHN2ZyB4bWxuczp4bGluaz0iaHR0cDovL3d3dy53My5vcmcvMTk5OS94bGluayIgeG1sbnM9Imh0dHA6Ly93d3cudzMub3JnLzIwMDAvc3ZnIiB2aWV3Qm94PSIwIDAgMzIgMzIiIGhlaWdodD0iODAwcHgiIHdpZHRoPSI4MDBweCI+PGRlZnM+PGxpbmVhckdyYWRpZW50IGdyYWRpZW50VW5pdHM9InVzZXJTcGFjZU9uVXNlIiBncmFkaWVudFRyYW5zZm9ybT0idHJhbnNsYXRlKDI1MjQzLjA2MSAzODUxOS4xNykgc2NhbGUoMTg5LjM4IDE4OS44MSkiIHkyPSItMjAyLjg0IiB4Mj0iLTEzMy4xOTgiIHkxPSItMjAyLjkxIiB4MT0iLTEzMy4yNjgiIGlkPSJhIj48c3RvcCBzdG9wLWNvbG9yPSIjMzg3ZWI4IiBvZmZzZXQ9IjAiLz48c3RvcCBzdG9wLWNvbG9yPSIjMzY2OTk0IiBvZmZzZXQ9IjEiLz48L2xpbmVhckdyYWRpZW50PjxsaW5lYXJHcmFkaWVudCBncmFkaWVudFVuaXRzPSJ1c2VyU3BhY2VPblVzZSIgZ3JhZGllbnRUcmFuc2Zvcm09InRyYW5zbGF0ZSgyNTMwOS4wNjEgMzg1ODMuNDIpIHNjYWxlKDE4OS4zOCAxODkuODEpIiB5Mj0iLTIwMy4xMzMiIHgyPSItMTMzLjQ5NSIgeTE9Ii0yMDMuMjAzIiB4MT0iLTEzMy41NzUiIGlkPSJiIj48c3RvcCBzdG9wLWNvbG9yPSIjZmZlMDUyIiBvZmZzZXQ9IjAiLz48c3RvcCBzdG9wLWNvbG9yPSIjZmZjMzMxIiBvZmZzZXQ9IjEiLz48L2xpbmVhckdyYWRpZW50PjwvZGVmcz48dGl0bGU+ZmlsZV90eXBlX3B5dGhvbjwvdGl0bGU+PHBhdGggc3R5bGU9ImZpbGw6dXJsKCNhKSIgZD0iTTE1Ljg4NSwyLjFjLTcuMSwwLTYuNjUxLDMuMDctNi42NTEsMy4wN1Y4LjM2aDYuNzUydjFINi41NDVTMiw4LjgsMiwxNi4wMDVzNC4wMTMsNi45MTIsNC4wMTMsNi45MTJIOC4zM1YxOS41NTZzLS4xMy00LjAxMywzLjktNC4wMTNoNi43NjJzMy43NzIuMDYsMy43NzItMy42NTJWNS44cy41NzItMy43MTItNi44NDItMy43MTJoMFpNMTIuMTUzLDQuMjM3YTEuMjE0LDEuMjE0LDAsMSwxLTEuMTgzLDEuMjQ0di0uMDJhMS4yMTQsMS4yMTQsMCwwLDEsMS4yMTQtMS4yMTRoMFoiLz48cGF0aCBzdHlsZT0iZmlsbDp1cmwoI2IpIiBkPSJNMTYuMDg1LDI5LjkxYzcuMSwwLDYuNjUxLTMuMDgsNi42NTEtMy4wOFYyMy42NUgxNS45ODV2LTFoOS40N1MzMCwyMy4xNTgsMzAsMTUuOTk1cy00LjAxMy02LjkxMi00LjAxMy02LjkxMkgyMy42NFYxMi40cy4xMyw0LjAxMy0zLjksNC4wMTNIMTIuOTc1UzkuMiwxNi4zNTYsOS4yLDIwLjA2OFYyNi4ycy0uNTcyLDMuNzEyLDYuODQyLDMuNzEyaC4wNFptMy43MzItMi4xNDdBMS4yMTQsMS4yMTQsMCwxLDEsMjEsMjYuNTE5di4wM2ExLjIxNCwxLjIxNCwwLDAsMS0xLjIxNCwxLjIxNGguMDNaIi8+PC9zdmc+;container=0;" parent="9gm0HyqsbW9hDULjH3VM-10" vertex="1">
          <mxGeometry x="214" y="111" width="20" height="20" as="geometry" />
        </mxCell>
        <mxCell id="9gm0HyqsbW9hDULjH3VM-102" value="" style="group" parent="1" vertex="1" connectable="0">
          <mxGeometry x="-2964.3" y="-4301" width="280.84000000000015" height="231" as="geometry" />
        </mxCell>
        <mxCell id="7-6c2CMcGdHakHLiAiGI-4" value="&lt;font color=&quot;#000000&quot;&gt;&lt;i&gt;ns: ebdz-minio&lt;/i&gt;&lt;/font&gt;" style="rounded=1;whiteSpace=wrap;html=1;arcSize=3;fillColor=#f5f5f5;strokeColor=#000000;strokeWidth=1;align=left;verticalAlign=top;fontFamily=Helvetica;fontSize=12;fontColor=#333333;resizable=1;container=0;dashed=1;dashPattern=12 12;spacingLeft=5;" parent="9gm0HyqsbW9hDULjH3VM-102" vertex="1">
          <mxGeometry y="71" width="280.84" height="160" as="geometry" />
        </mxCell>
        <mxCell id="7-6c2CMcGdHakHLiAiGI-5" value="3" style="ellipse;whiteSpace=wrap;html=1;aspect=fixed;rounded=1;fillColor=#0050ef;strokeColor=#001DBC;fontStyle=1;fontColor=#ffffff;container=0;" parent="9gm0HyqsbW9hDULjH3VM-102" vertex="1">
          <mxGeometry x="249.57999999999947" y="200" width="23" height="23" as="geometry" />
        </mxCell>
        <mxCell id="7-6c2CMcGdHakHLiAiGI-9" value="&lt;span style=&quot;font-size: 11px;&quot;&gt;&lt;b&gt;Storage&lt;/b&gt;&lt;/span&gt;" style="rounded=1;whiteSpace=wrap;html=1;fillColor=#dae8fc;strokeColor=#6c8ebf;container=0;" parent="9gm0HyqsbW9hDULjH3VM-102" vertex="1">
          <mxGeometry x="10.420000000000073" y="200" width="60" height="20" as="geometry" />
        </mxCell>
        <mxCell id="7-6c2CMcGdHakHLiAiGI-16" value="" style="rounded=1;whiteSpace=wrap;html=1;arcSize=3;fillColor=#f5f5f5;strokeColor=#000000;strokeWidth=0;align=center;verticalAlign=middle;fontFamily=Helvetica;fontSize=12;fontColor=#333333;resizable=1;container=0;" parent="9gm0HyqsbW9hDULjH3VM-102" vertex="1">
          <mxGeometry x="1" width="278.36" height="63.64" as="geometry" />
        </mxCell>
        <mxCell id="7-6c2CMcGdHakHLiAiGI-17" value="Minio-UI" style="text;html=1;align=center;verticalAlign=middle;whiteSpace=wrap;rounded=1;shadow=0;fontSize=23;fontStyle=1;fillColor=#f5f5f5;strokeColor=#666666;fontColor=#333333;container=0;" parent="9gm0HyqsbW9hDULjH3VM-102" vertex="1">
          <mxGeometry x="11" y="7" width="258.36" height="49" as="geometry" />
        </mxCell>
        <mxCell id="7-6c2CMcGdHakHLiAiGI-11" value="&lt;span style=&quot;color: rgb(0, 0, 0); font-size: 20px; font-weight: 700;&quot;&gt;S3 Minio&lt;/span&gt;" style="rounded=1;whiteSpace=wrap;html=1;arcSize=13;fillColor=#d5e8d4;strokeColor=#82b366;strokeWidth=1;align=center;verticalAlign=middle;fontFamily=Helvetica;fontSize=12;resizable=1;container=0;" parent="9gm0HyqsbW9hDULjH3VM-102" vertex="1">
          <mxGeometry x="60.42000000000007" y="115" width="160" height="70" as="geometry" />
        </mxCell>
        <mxCell id="7-6c2CMcGdHakHLiAiGI-12" value="" style="shape=image;verticalLabelPosition=bottom;labelBackgroundColor=default;verticalAlign=top;aspect=fixed;imageAspect=0;image=data:image/png,iVBORw0KGgoAAAANSUhEUgAAAjMAAARxCAMAAADjzPatAAAAM1BMVEX////HLEjHLEjHLEjHLEjHLEjHLEjHLEjHLEjHLEjHLEjHLEjHLEjHLEjHLEjHLEjHLEjJoTlQAAAAEHRSTlMAECAwQFBgcICQoLDA0ODwVOCoyAAAHx5JREFUeNrt3eGim7iuhmEgCRBCwPd/tefHzJndaTurS0GyJfn9bqA0eZYtyzYZBvJp7vd13fe9/Jhj35/rfB/5dMi/Mz3W/Shf5dyfy50PigzDMAy35fU1lx+yPx+MOJ1nnLezCPNeb3xw3U5Iy6t8lnN78PH1OMJ8CgY2ndYw8inp1xzPiU+ymyHmXZSyM9h0IWY9i2KOhYVU9rp3K9o5V6YoxIizoSbrrPQsZtmYoTJGt475dYZCTbY8jmKcc+ZTTlXI7KVC3mxiMi1R1vSa27tUy7nweWcYZErV7Ky7qWQYanpbLp2lfnaqmsB5liY52bqMmnEvrfLk04+5XjpKu7wphSllxPMTDb5wmUvrsH4Klq20D11hyMiLGtBARnzyk6tQkBFXwqCBDKdqIGMf0EAGNJABDa28AhoiyaMU0BBJbmcBDZFkPEoBDZFkLwU0RJKnYzJ0hKl/QZMh0+nbTDnY5aaY4WhE8KzFfza+JledmRIhK1+Uo7xDmClcfGJmEi+euMLCmklcB/NlOcmrhAk3LH3kXgKFksZFjkhmKGk8ZCmhsvONNc94xjJDl4Z1tjzsVjLMsOBmmGHBzTDDgptEH2Y4gMUww1maUJlL0Lz47mgBS8Or0xrlXuKGkqZNtsBmOFPepgIukcMeQossoc0wO7WIySng/bnc/8q87qZLeXa460f/ssHx/Pn14dNieAiQS9zVo31B+/X7982Pi9WK/qQMjt2c+eqX1R9GtzS5JVc5k2pt8YeC9G4z1vBLGmFXTd/5QUCTX889+BqrRm+++N6vLZn8tiVNmpgNvW//AIrFwQuuIVTMo8Gf+l1/fqJJE3ClLWqSGPzAO02acE1g4Vc2qqOhSROtnBHXoPpoaNLUyr3V96WPhiZNpaisYT66aaSOhvtOgbozH963V0dDk6ZONHr5n14z0kbDuyLClMCfn/3XRkOTJkgJfOWvWxsNFysrZG5cRSijoUkTYtl08WtSRsO1f/u8mn9Lymho0gRYal9eq+iioUljnrPdoskIDZdxreNiO1kVDU0a9+0ZlYWKKhpeFeG8PaNUPqiioUnj24zW2lYTDbf+fZtROx2niYYmjWszeu0QTTTc+jfM5TawZj2uh4a9yk7MaKKhSdOJmWFUu5jLXqVfM6fu49zU7j3RpOlknNFEw15lL2b00NCk6caMHhoOlHvtz+hvCKq9qY29yvQ9vX+i9R59mjROzVjMAFpouPXv04zJmlYJDU0ak1w+P3OaPJbSS4249W8Sp9uBSj/AQJPGIpdXtkbnDnTQcKDcIpfvHVi9MVMHDU0ag1y/32R1klJlk5sD5S6rTas2iM7JCPYqXS5rb67RcKDcX4PG8E9ZBQ17lQ4X24YrWpX9Sg6Uq+fwvKJVQcOBcn8LJ8vTtxpo2Kv0t3AyXdHeXJOmCHbZb1VY2LFX6bAINi00FdCwV6kcnV9Tml2jYa/SX0FTynnz/IT8jJzDgsYWzfX9SvYqdXN2gIa9Sn8dGusu/WU0NGm81Zh/r7gN0VzeemKvUjN6P2JqiObyfiV7lS4nJ99o2Kt0OTn5RsNepcvJyXQX4ep+JWWwz8nJtE9/FQ33KhXzKF2gYa9SM0cUNOxVuslagqC5WK6zV6mXqfSBhnuVitl00Sxe0XBkTy93XTNuj9OwV6mYPQ6aS2Mi9yr9DjRu0VAG+x1ovKLhyJ7jgcYrGo7sOR5oLA/uXdmvpAx2PNAYormyyc1epV5evaDhyJ5aptIJGo7s6WWNhebzjVWO7Hn4Fppc///8ZARH9tTy0DdjedrzczSUwY7X217RcGRPrww+O0HDkT29LCUYGsrgnLOTJZqPT0awV+l7drKsOT9Fw5E9B3+40U57cmRPL69O0FAG++7suUTDkT0Ha5FmaJ6UwSkX3KZoPjuDxZE99yWN5Qm5zdsD9VfSvG3QeDvtyc0VzZLm7AMNZbBiHiUcmo8mVI7sKWYNh+ajCZUje+2rynBoKIMD1MHF2RFhymDNb8CoDnZ2rpwjexEWT87QUAZHWDwZovngKAd7laqZ46H5YHDkyJ5qnl2g4eZKiBX36elcOWWwg+5qtMsI3FyJ0abxhIYyGDTi2p2XTSujOTpAw5G9GL09T2i4uRIFjaNrT9xciYLGz2UEymDt3Es8NMKT8BzZa15UxruMQBkMGikabq6ARoyGI3tx0Hi59sTNleb1QbwbLJTBoBkG4TuYOLIHmkG4XcbNFdCI0VAGG+SVHA1lcOMvwMnxf8kzc2QvEhonN1gog0EzDIPoBgt7laD5K4KNeW6uNP6rjYiGmyuNv4CAaCiDQSN+Zm6uxELj4QYLZbDRF1DioZkpg9tmzoyGI3ugkT4zN1dAI35mbq6ARvrMlMFWWazQvJpD5wK3VcyO07Q/V04ZDBrpM1MGg0b8zBzZA430mbm5AhrxM3NzxSx2pz1b35WjDA6IpvG5ci5wg0b8zJTBoJE+M2UwaMTPzJE9SzRnTjTcXDGM2cG9tnfluMAdEk3bI8KUwaARPzNlMGikz0wZDBrxM1MGm8bsLcIt0XBkzzZzRjTcXAmKpuURYS5wg0b6zJTBoBE/Mxe4QSN9Zspg0IifmTLYOls+NBzZC4vm1eqZubkSF02zc+Vc4AaN9Jkpg0EjfmYucING/MyUwfZ5JUNDGWyfiHflvnxmyuDIaNqcK+fmCmjEz8wFbtCIn5kyGDTSZ+YCN2jEz8zNlSpoDis0dhPFf/9uDGVwleS6jEAZDBrxM1MGg0b6zFzgBo34mSmDQSN+Zsrg6GjsvsEHN1eSomlwRJgL3JXyyHOunDK4VhLdYKEMBo34mSmDQSN9ZsrgBGjsnnnlAndSNLWPCHNzBTRiNFzgrpclCxreY1QvWa49UQaDRvzMlMGg+TI7ZXBSNHWPCFMGg0aMhjIYNFI0XOAGjRgNF7irJsW1J8rgqrG7K2f4E2EH7zHKiabqEWFuroBGioYyGDRiNJTBoJGioQwGjRgNZXDlTAGvPf2MhjK4chJce+I9RqARo+HmCmikaHiPEWjEaHiPEWjEaCiD86AxPLM7Uwa3TfgbLJTBoJGioQwGjRgNZTBoxGh4jxFopGh4j1EqNEsVNJTBLbLGOyL8w7FmDkU0SezLCJy+Ao0UDcc8c6ExPIP1PzT0aEAjRcOLIpKhMVwL/z8aTnm2yh5vk/tv6CdfXqOYnSu3bO8vvCciJxrL98Xcz1IOzORDY1mkTjv9mZRoGAhA4+jWE2kdq7tybzaF8sbqiDA9FNB4OhhBsqKhDgaNuA6mpEmce7hLT6R5jE57cgoTNOJwVRY0js5FkKxouMGWOs9wu5WkeTY2nogLNCy4QcMeArFHwx5C6pgcp+EKG2iYnYg5GtZOoGHtRP4di9OedPaSx+A4DUdpQMPpYGKPhlMR2fOgSUOkmWnSkOZoKINB4+plEcRH1M9g0Q3OH+1Nbs55gob1Nvk1L7adiDDa+5VsO4FGfN2JTxQ0DDTk1+iejGCg6SK6+5UMNNEyf9JWuzHQ9Jv78VmHZGag6VXM/nFXbWWg6VbMx53YjYGmv8XP61r3XnPFzUATQsx2ecdHc8XNQOM+46qxS3hn16mfrKfOzrJiHcz2tu+GzKH2dentcXNvxfNi6a34Jz4eHNhLn9uuOy3olTScDHZa+m7qpYRaScMVBJ+LpdOg/Hyz3O6n9FUyo9al4VKlu9J3t1rmLiy3U2baDL+rneV2P4WMkhm12Ykq2H8hozUnLFTB+Tsy2nXEmyo4fUdG24zWSU9eNO0gy1lnvfKkF5xlff2utcYddcpgjl4FmJbU+iJKR8offG3upyW9XtqbFk0n05KeGZ0N7pNvzv20pNizfzE59TEtKZqZmJwyN/Fs9gY3Jqeo05L8EJSSmYnJKWjt+8EBXa0zCBuTU8RB5qNCVMvMxOSUvvZVP+ukMtCw51Qx06dnn9TMqAw07DnVy+cXAPTOVGoMNByIqFb7Xujd65lRORPB5bg6te+lswiKZ7c1jgZzWs/rAtvGjMbPgvELCN4HGeU7Iger7QB5XP6aNM0srLaTdvHszIwKZla+VtNBRuNMper9RYXlNu+8cj7IaJvROHvFN+t7kFG/J314eyCit1wy+ooWCpqkPRk7MwqbTnRofA8y+lPB9V4wHRqD3I7i14zCVSc6NOrR/HkKfTMKLRq2nLQHGeXfEFVfplzvAHCGRjfLWZybuT450dVz2MYzNaOwcuKL9tfGs22hvSmCc66wDc2sFMFpi18rMzeKYC/FbylBzAwnRbCLeWkvccxcLtTpBCvkfpZAZq6vtnlV8OU8S4lkZnL4TJ1lepdYZq4foln41v01ZWzNXC5oOEJzqfjdSglnZmHhlLApY2vm8qlg3hR8YQVylohmBnac8s5LVmYud5O46e92XrIy8/T4UMxLrs1cLoLZpXTXx7M2c7kIZrHtro9nPg1cfSje3yn/Oz1LbDNXO8E0aKRZSwluZsdM3SX2XsKbuVyNwUC0xD5KfDMrZhIusW3NXF44cYLm+9lKyWDm5vKpcpYy75LDzICZWqXMWTCDGVEpU0oaM1fXfjSCnZYymKGUcWTmhZmcpYyhmRUz6boy3s2wSWneak9nhg2nP5Qyr5LOzB0zlpneBTOYiVH9YoZGHmaofjFDvFW/mKH3ixmqX8wQP71fzMTMUgpmMCPJVjCDmWgLJsywYMIMCybMkP99np7IYCbEGruU/GYemEm4xvZ95oofv/W4xuY8cJQFkzsymGGN7cQMd1USk+FOHG2ZJGYecPFLhjv+jvPwSQYzdPJ8fDuX31nEy+sdk3H6bjTEOLheUNcM72DM1/y1NnP1b+QNmdKbGd4pfbGT9yrdmbn6juPOtyhdNn+tzVx9qBUyvZnht3hSk/H5m189t/Qm92T4bUG2mFx8PZd/GQYy3Zm5+kwnZHozc3m3aYeMUd6bUzOXS+ANMjbZxuHwaeay5RUyJlkGnR+uNDBzeKyx/Mf6ruR5H9yamS4/061HMtbHZd5//faeTzPX//OQMShl/v53fJq5XM7skFHPPLg2c2j9SUBGrZT532zv0szl7kyHyyZjMu8fjle7NLM4HPr6JrP9+MvTLs1c3mzq7se1jcks//rHPJoZLz/RARnNUuanK6kezVz/BF6Q0cvxc6/Lo5mX8lgKGYVGnm8zo8MKy3MepmR+07VwaEbhz6YnMrbbkr8bsR2auT41vSFjU/16NaMwNT0ho9379W1GYWp6QMam+vVqRuGexQgZ7d6vazNToZxxQea/J3h3Zp6UMy7IzEMcMyflzHcXC4a3Jc+vPkNvZjR6miNkbBZMTs3slDPtyby//qtzZuam8DgrZEzJeDOzeSuvvGa3I/PHc7G+zIwac3EPZAzflffnVacvM2uNPxPIfLjGdmlmPOv8pyFz6dNzZUblB/Dyr7TtzlidtyGaGY0XDuyQMSbjyozKh7FA5uM19jd/IsKTGY1hJv1PY9zsyHx3VndkRqWayd4EttuX/DYZR2ZUFk3ZpyY7MoIWhR8za2FqardjsA0BzegMM2/I2DdC3ZjR6VPlnprMNpnmIaIZpeVA6obe5oOMGzM6f0Kp72k/nZDxYubR5n9PL++TD82HmVGlnZf6GIQVmVP+hlMfZpSG3cTHIKwaMx+Q8WFGqx9+g0wFMj7MKLUd8jZnrBozH5FxYWZtVcyFiSsyHsxozUxn2ubM5oqMBzNaf0RpK+DVhsxxG6KaUftEsm5PGq2y3+MQ1YzaGaKshzpv3sg0N6PUzStpb/YbrbIvkGluRq28S/oaaaNV9hUyrc3ozdVJT0Hs/sg0NqM38CZdaG8OybQ1o1fMJH0ZxOyRTFszL73PIeUwc3dJpqkZxV5Vyn6ezZLpMpmWZjQH3oz9PJsl03n9o2pnRvOvKOUwY7JkOhXOizQzM50MM1/m6ZVMMzOqA2/GYWZ2S6aZGdW5OuEwc/NLppUZ1V5VwmFmPP2SaWRGt72ZcJh5OybTxowumYQ/b2CyZaC28d/CjO4nknCnyaT+1Tst3cCM8ieSb6fp5ptMAzNLYZipX/9q3smobmZz/GHkrX9VB+PaZrTJ5LsHZ9H/1e1GVDajviBI94MYs3sydc2M6mTSvXDG4vyD9odU04z+5v6ZrZ1ncf7hPcY1M+l/HunW2a8AZCqaMRh1091PWfTJHPq9iGpmLGq7bAWwQTPvNHgnTy0zFivIbAWwQTPPgkwlM6PFOcV0HWCDD8nkQnIVM7fDgEy6m5MGrwyZh6hmFgsx6d4DYXCZaR2CmhlfJmSytWYMipltCGrmbjIv5ZuZ9IsZsyWCtRmrF65nm5n0i5n3GNPMzerHY7LNTPrFzDEOIc0YvTww36kZ/WLmvA0RzdzNfqEqXTdPv5ixfCW7mZnR7Kdj8nXzlljjsJWZ+bQjk22fSX+byXa/38bMfTcUk+0ExKjejTC+WGphZtosxaQ7ArxF+4D0zYzraUom2zJb/ZDIe4xmxlhMundHT9qf12n+K1bKZubDWEy645zqDQn7BYKmmdFeDHsGDrqdemZG81nJtiOeY89gG+KYmZ4VxFSYq4Mvs/coY+O2PF6lSrJdztb+2N5jyPnUMtneTvSIOQxHMpNtZ1J9mV2pDRHIzJt7Bl+n1tHFOGbSXU3R3s2u9vrSMGayLZnUd7PrDcNhzKT7ucl32GE4ipl0r0DT/uBvA2balHdhG8DzgJlG5V3UBvA2YCY5Ge1rX3XbECtk4s9MlY+hBTCzD8xMrY/MBDPzHpmZfC0QVshEn5mqb8OtkAk+M9X/hFbIxJ6ZGuyprJCJPTM1aJC7NrMnJKM8M7XoQ3g2k/KX1nVnpiZ3SlfIBJ6Z2twpXSETeGZqc0DErZl5YGb6UxqdqV8hE3ZmavWCDJ9mzntKMrpn85q9IMOlmXRnf00+7GanXZ8OyWTs5A2D9qnxdhcEd39ktqRkdD/r94CZf7ImFaN7n6nl2768mTnnrGR0b9rOA2b+znHLSkb3HRBNG56+zLzGtGRU3wHRdpWwU8oE3DRoOhqPNPIC9jTa3hB01NLbx8RkVFszbS9i3E7mpXCbBm1fqjK+vYg57qnJqLZm2r4h4+WFzGtMTUb1J72ejDKp+3gGf5tNl9n3wwmZfUpORvXUTMNl9t1LY+ZchuzR/ONst1Qw/oUlBhmrfsaOmA4GGdW9yVa72aOfPl7y5ZJ+Abw0EuOmjZe8J2NQALd5EftK4zduAdykATwfbsR0UPuqF8CPrsX0MS0pF8D1Z6a7HzFnJ9OSbgFcfWa6OzpbtY3dkLnHnZk8iemlkBmGQfUIRN0TwJMjMe97R2I0j0BU/fFWP03fUo65JzGqRyDufYrpYaPgX1E8A1zv0Mzo6Db2uY6dkVE8A1xtzeRom6CU7sSoXgN6dChmm7oTo3kJ7oUYNpo8zkyOtgk6FaO50fToTMzepxjNdfarMzH3odNsgWamB2I8ZIpzNs/VxlK/YjTX2Tti+ojifvaEmD6it59tedTohhg/mfXOARiWXJ42rx+di9F8p9W9CzHz0H302nlPxNDOc9GacXVABjG67TyTWd7TVuTZ4XEH23bejphOonY9xeBCP8cdkrfzVsSwayBcT2g/2eJITHkgxWCYUW7NeDruUKreo+hn1+CVWQxmLHYNVFsz7sRg5oeofTlLajGYMRhm9PYm7+9SMNPDroHWR3rfS8GM56htTm7JxWBGfZjR6QA7FoMZ9WFmzS4GM9rDjEIH2NNxB8xUGGbu6cVg5u8vSmuY2fOLwcxfUfumpvxiMPPXd+WiAB5jiMGM6jBzZaPJ1QEZzFQbZuYexGBGc5h5dyEGM5rDzL0LMZhRHGY+PGkVTQxmFIeZj9bZLg/IYKbSMLN2IgYzasPMB+vsmGIwozbMLL2IwYzWMCPdz36EFYMZrWFGdk/M+QEZzHzZG2mxnx1bTPdm1vofY3QxvZvROp63dSSmdzNaw8x323m3BGI6N6M1zHzz1XnTVgpmGGa+387LIqZvM1rDzNqVmL7NzNWGmUxi+jaj1Iqd+xLTtRmlYeZPuwaujlSdb8y4H2Z8HcLbxhUzF/KoMMw4EzPpLBX7NbObT+7+xGDmUpRe0rmHEoOZS3kZDzOzRzGYuZLJdphxdQjvx9eGY+bzbJbDjFsxmLmybWA4zDgWg5n2u5OTczGvyeI/3qcZpd3JX49auToa/rvfo8VM422Dn/+KXR3C+/0vGGOm7bbBFk4MZlpvG0zhxGCm8bbBFk8MZj7NTXuYCSMGM237ef8MM66OVO13+yZDh2Ym1WEmlBjMNO3nbRHFYObDnGrDjCsxx1zrD6Y/M7PWMBNQDGY+i87v9U3jGlAMZj6Kzvm8l6dDeIfgXdaYabbQLjHFYKbhQjuoGMy0W2hHFYOZdgvtqGIw02yhHVYMZpottMOKwUyzHe3mOT/+pSjM9LnQPtfPf48OM8KMvYvBjDhL72IwI87RuxjMtNlqiiwGM31VwBpiMNNTBawjBjP9VMBaYjDTSwWsJwYzfVTAmmIw00UFrCoGMx1UwNuk/DFgJnkFrC4GM8krYAMxmEldAZuIwUziCthIDGYkFfCJGMzIMiMGM8K8EYMZWSbEYEaYJ2Iwk7E585oqfBKY+WYeAcTsdb4JzKRpzuy1vgfMfLM5gxjM5GrO7DW/A8wkaM7sdb8BzIRvzuy1P3/MVPuYkojBTPDmzH4P+geU38wNMZjJ0Jw5Wn3umPlOHJ6cOeZmnwZmQu4bNBSDmZBTU1MxmPnWvsGJGMwE3jdoLgYz38kLMZgRTk2IwUzQqcmJGMyEmZrO1c0HgpkQU9Op/DoQzGSfmlyJwUyAqcmZGMy4n5rcicGM86nJoRjMuJ6aXIrBjOepyacYzPidmrbJ62eCGZ9Tk18xmPE5NXkWgxmPU5NvMZjxNzV5F4MZb1OTfzGY+ToPxGBGmLqHx/cgHyRmvsqJGMy4nZr2QB8iZr7IEzGYEeZADGZkuSEGM8IsiMGMMPbv0HNz/QQzQZrAMcVg5ovMiMGMMC/EYMZPEziyGMz8d+6IwYyTJnB0MZip3QR2dFUfM9qZbMSMA2bSmpkRg5nWK+0sYjBTa6WdRwxm6qy0M4nBTI2Vdi4xmPmvKO5pb2OyzwYzv43ennaM6yeYuZ4HYjAjzIYYzAhzIAYzskyIwYwwM2IwU7ec2W/DgJnOzFzaONiz/zYRZn6TG2IwI8yCGMwI80IMZqqUM52IwYxaOdONGMwolTPxLxNgpm4505UYzPwuB2IwI8uEGMwIMyMGM8JsiMGMMG/EYEaWbx4FznaZADMX8kAMZvQ/ka7FYObX7IjBjDCIwYwwN8RgRpgFMZjR6+ilvkyAGYOOHmIwIyuBEYOZ/8odMZhR+DwQg5mv8kIMZoQ5EIMZWcZuLxNgRqUERgxmZB8HYjDzrWyIwYwwb8RgRhjEYOaDEhgxmJFk7vcyAWY+NYMYzBDMEMwQzBDMYIZghmCGYIZghmAGM5jBDMEMwQzBDMEMZjCDGYIZghmCGYIZghnMEMwQzBDMEMwQzGAGM5ghmCGYIZghmCGYwQzBDMEMwQzBDMEMZghmCGYIZghmCGYwgxnMEMwQzBDMEMwQzGCGYIZghmCGYIZgBjOYwQzBDMEMwQzBDGYwgxmCGYIZghmCGYIZzBDMEMwQzBDMEMxgBjOYIZghmCGYIZghmMEMwQzBDMEMwQzBDGYIZghmCGYIZghmMIMZzBDMEMwQzBDMEMxghmCGYIZghmCGYAYzmMEMwQzBDMEMwQxmMIMZghmCGYIZghmCGcwQzBDMEMwQzBDMYAYzmCGYIZghmCGYIZjBDMEMwQzBDMEMwQxmCGYIZghmCGYIZjCDGcwQzBDMEMwQzBDMYIZghmCGYIZghmAGM5jBDMEMwQzBDMEMZjCDGYIZghmCGYIZghnMEMwQzBDMEMwQzGAGM5ghmCGYIZghmCGYwQzBDMEMwQzBDMEMZghmCGYIZghmCGYwgxnMEMwQzBDMEMwQzGCGYIZghmCGYIZgBjOYwQzBDMEMwQzBDGYwgxmCGYIZghmCGYIZzBDMEMwQzBDMEMxgBjOYIZghmCGYIZghmMEMwQzBDMEMwQzBDGYIZghmCGYIZghmMIMZzBDMEMwQzBDMEMxghmCGYIZghmCGYAYzmMEMwQzBDMEMwQxmMIMZghmCGYIZghmCGcwQzBDMEMwQzBDMYAYzmCGYIZghmCGYIZjBDMEMwQzBDMEMwQxmCGYIZghmCGYIZjCDGcwQzBDMEMwQzBDMYIZghmCGYIZghmAGM91nwQyR5o0ZIsz4xgypjgYzoMEMsUaDGdBghlijwQxoMEOs0WAGNJgh1mgwAxrMEGs0mAENZog1GsyABjPEGg1mekdzYoYIczsxQ6zRYIZI0WCGSNFghkjRYIZI0WCGSNFghkjRYIZI0WCGSNFghkjRYIZI0WCGSNFghkjRYIZI0WCGSNFghvyEBjNEmhkzRBsNZogUDWaIFA1miBQNZogUDWaIFA1miBQNZogUDWaIFA1miBQNZogUDWaIFA1miBQNZogUDWaIFA1miBQNZsifsmGGXESDGSJFgxkiRYMZIkWDGSJFgxkiRYMZIkWDGSJFgxkiRYMZIkWDGSJFgxkiRYMZIkWDGSJFgxkiRZPGzP8BE5I2Adv1aL4AAAAASUVORK5CYII=;container=0;" parent="9gm0HyqsbW9hDULjH3VM-102" vertex="1">
          <mxGeometry x="201.25999999999976" y="152" width="14.86" height="30" as="geometry" />
        </mxCell>
        <mxCell id="9gm0HyqsbW9hDULjH3VM-107" value="" style="group" parent="1" vertex="1" connectable="0">
          <mxGeometry x="-2983.5299999999997" y="-4795" width="315.28999999999996" height="230.63999999999942" as="geometry" />
        </mxCell>
        <mxCell id="9gm0HyqsbW9hDULjH3VM-13" value="" style="group" parent="9gm0HyqsbW9hDULjH3VM-107" vertex="1" connectable="0">
          <mxGeometry y="50.63999999999942" width="315.28999999999996" height="180" as="geometry" />
        </mxCell>
        <mxCell id="9gm0HyqsbW9hDULjH3VM-14" value="" style="group" parent="9gm0HyqsbW9hDULjH3VM-13" vertex="1" connectable="0">
          <mxGeometry width="300.4199999999999" height="180" as="geometry" />
        </mxCell>
        <mxCell id="9gm0HyqsbW9hDULjH3VM-104" value="" style="group;spacingTop=5;" parent="9gm0HyqsbW9hDULjH3VM-14" vertex="1" connectable="0">
          <mxGeometry x="19.579999999999927" y="20" width="280.84" height="160" as="geometry" />
        </mxCell>
        <mxCell id="9gm0HyqsbW9hDULjH3VM-15" value="&lt;font color=&quot;#000000&quot;&gt;&lt;i&gt;ns: ebdz-openmetadata&lt;/i&gt;&lt;/font&gt;" style="rounded=1;whiteSpace=wrap;html=1;arcSize=3;fillColor=#f5f5f5;strokeColor=#000000;strokeWidth=1;align=left;verticalAlign=top;fontFamily=Helvetica;fontSize=12;fontColor=#333333;resizable=1;container=0;dashed=1;dashPattern=12 12;spacingLeft=5;" parent="9gm0HyqsbW9hDULjH3VM-104" vertex="1">
          <mxGeometry x="2" width="280.84" height="160" as="geometry" />
        </mxCell>
        <mxCell id="9gm0HyqsbW9hDULjH3VM-16" value="1" style="ellipse;whiteSpace=wrap;html=1;aspect=fixed;rounded=1;fillColor=#0050ef;strokeColor=#001DBC;fontStyle=1;fontColor=#ffffff;container=0;" parent="9gm0HyqsbW9hDULjH3VM-104" vertex="1">
          <mxGeometry x="249.57999999999947" y="130" width="23" height="23" as="geometry" />
        </mxCell>
        <mxCell id="9gm0HyqsbW9hDULjH3VM-17" value="&lt;span style=&quot;font-size: 11px;&quot;&gt;&lt;b&gt;ETL&lt;/b&gt;&lt;/span&gt;" style="rounded=1;whiteSpace=wrap;html=1;fillColor=#ffe6cc;strokeColor=#d79b00;container=0;" parent="9gm0HyqsbW9hDULjH3VM-104" vertex="1">
          <mxGeometry x="10.420000000000073" y="130" width="60" height="20" as="geometry" />
        </mxCell>
        <mxCell id="9gm0HyqsbW9hDULjH3VM-18" value="&lt;span style=&quot;color: rgb(0, 0, 0); font-weight: 700;&quot;&gt;&lt;font style=&quot;font-size: 18px;&quot;&gt;Openmetadata&lt;/font&gt;&lt;/span&gt;" style="rounded=1;whiteSpace=wrap;html=1;arcSize=13;fillColor=#d5e8d4;strokeColor=#82b366;strokeWidth=1;align=center;verticalAlign=middle;fontFamily=Helvetica;fontSize=12;resizable=1;container=0;" parent="9gm0HyqsbW9hDULjH3VM-104" vertex="1">
          <mxGeometry x="60.42000000000007" y="45" width="160" height="70" as="geometry" />
        </mxCell>
        <mxCell id="9gm0HyqsbW9hDULjH3VM-23" value="" style="shape=image;verticalLabelPosition=bottom;labelBackgroundColor=default;verticalAlign=top;aspect=fixed;imageAspect=0;image=data:image/png,iVBORw0KGgoAAAANSUhEUgAAAMgAAADICAYAAACtWK6eAAA39UlEQVR4nOy9CbgcR3U/+jvVM3eRZO2SJVmyJa94kTDCNjIGvLAZMA4GTIA4fBACL8kD8gIEEh6EQBLyMHvYAjwHEgi7MWEzNuB4k3dbtmRbsiRb+77r6upuM33+X2/Vp6prRlfyHU1dqX/6Rneml+rTVXXqrFVVYWaUKFHCDdVuAkqU8Bklg5Qo0QQlg5Qo0QQlg5Qo0QQlg5Qo0QQlg5Qo0QQlg5Qo0QQlg5Qo0QQlg5Qo0QQlg5Qo0QQlg5Qo0QQlg5Qo0QQlg5Qo0QQlg5Qo0QQlg5Qo0QQlg5Qo0QQlg5Qo0QQlg5Qo0QQlg5Qo0QSVdhMQ4RN/s7dwjEKgYyD5Xq8C3UMK/dUQHTVCXSXz6AMGOPpEbB4m3E5EYGaECqgrQkcNGKowKnWgHgBgoBKaz6oRUGFCSBwVAIRR+QSKLlcMDpNnVOvAYPQXCiGHUJT8jZ5TqXNARFMGiSdXGTMJNLtGPKkKTGamaSCcyIwJBEwAMAZAN4BOEDopJp06Tap4MHp1ZkS1MABCHxi9IdCjCLvB2AbwTmbsIaI9IN7AddpKCrtC5t0KVI/qSYFQByNA8l5R/UQIQ4ZShDpxXC9BmHyY8zpkEKL/4/ZI6zaqohD5OgYqvgZgSqlmIEiaI6k/cW1Uo4Ei1MIQQfTKiuIbYlq6OP4p8f98YeKz6VYjAi8YZBQi4sUzACwk0POqIRYR0TwQZnRCVZA2dDX9kvZJ/Xd4oLGFeyjpfNn3uMtRfoCCuEPWFGgbgLUEuheMB0F4BMAzab8tcRgoGeRQYMwl4Cxiei4D51SAswE+PSA1KRlUD6vXtxwEihj0JAAnBYxLIkaiSB4z7wPRUwBWAngCwKMAVjCwvt00+4ySQYqIBukFBFxDwNWK1XmRZhCfUYBf7HAIkP6jQBQx9KL0gyCIT9YqjGX1kH/OwC8ALIvUuvYS7RdKBgEqxHgugCsU08VgvICIZo0yVjhSVIjoeRWm5wH8CQY2EuEBAPcC+AOApcc7wxzPDDINwHtA9M4K00nHBz80Q2zPzAbiz+tTQ31dyLiBga8B2NVuCtuB44pBGJijGFcD9LpI1SCicfGJ45453CCiUwKiTzLzBxm4i4DfAPgfAJvaTdvRwvHAIHOCEG8m0Os7Qor175IhDg9ENJ6A1yD5fFUBdzPjRgb/FMDGdtPXShzLgcJZ1RBfJ6KnA6jriVLmKPHsQDHDvEgp+kJAtBLANwBMbzdZrcIxxyDMfCoRfa7CtFKB/gKEartpOmZB1E2K3k1Eqwn4LIBT203SSONYYpAOAr5ERKuI6P2gJNBWovUgwgmK6ANBVPfApwF0tZumkcKoZxAGuonx/oDUM6TU+4ho1L/TKIYKFH0IhNUgvO9YYJTR3pkWBUSrA1KfoyR6XMIDENFJAdGXFNEKABe0m55ng9HJIIwTA6avEqnbkqBeCS9BOEUR3UFEn03jTqMOo87Ny8CsKuguEB1zBuGxCCIaQ8AHGHhdyHgRgK3tpulwMKokCDFeFxBGLXMwA2GdUasx6jWOv3OaYs4Qn+h3mKSk19Nr6/G1o3e7PCI6TRHuYuDVo+ktRosE6Qbhy52heudoCPIlnZ5BChg7njBhqsLkEwOMm0gYP0XhhIkKHV1ARxeh2kkIKoCSQxUDtRowNMDxp78P6O8NsXcno2d3iJ69jF2b6ziwN4yvU0RpfKKNLz0MENHpAH6tGN8A4W8A9LWbpkPBewZhwviuOt0Ohee1m5ZmiEb72iAwdgLh9AVVnPbcCmbNCzB2gmpZx+0/yNi+vo5nnqhh1ZIh7N4WxpOOgqrfnKIC9X+BcQ4YVwI42G56msF3BhlfJbqJiPxjDgbqIaNSJZzynAAnn1nByWdXMHVmABUcHRK6xhBOfk4l/lz2+i7s3VHHxqfr2PBUDeueqqNnT5iltfsHwosB/ikY1wLobTc5jeAFgzTQScdXFS0movOONj2HQpgyxkUv7cT5l3Zg3EQPTDkCJk4P4s95F3egXgcev2cAi38xgAP7Eno9xKsA3ALgZZFAbDcxLnjBIJ3FqqEq0Vd9Yo7IcI6M5ZPPCnDuxR048/wqOsd42eliBAHw3Bd3Yv4lnVi3fAjLFg9h1aND8TmvZkFSPOvxKwD+vN2kuOAFg8jm4oSoDymi69pIkoEwBMZNILz6HWNw8lleVNmwERn/886txp9dW+q4+T/7sGVNHUHFHyZRit7Jg7xiEPisb04Yr1qbE7/zSwOl/rndtCCVGh1dwEWv6MD5l3ais9uz1jtMTJkZ4E8+NA5PPTyIO27qR89uhvLERiGoTyEM7+cQd7WbFgkvGERK/AB0vQ90cWwEA9f93bjYTXusgBTwnAs7cMbCDvzm2wex4sEhP6QJoRoQXU/dfLFPGqAfLZ9GyALgKkW0sN3kREb4jFMCvPVDxxZzSEQ2yqvfPiZ2MtTrfoTuSNGi+hBeMTQIRB8f4EXrpwNGoED/1G5aIkP8wld04k8+NBaTpntRPS1DUAFe/tZuXP3uMfF3H6BA/6IYSvnBs54wiIqNyVcQ0fntpCOSHOcuquLSa0Z9lvZh4ayFVVz+xi4MDba/VxLoAtWBlwQd7aYkgR8MwoBi+mg7aYgM8pnzArzybWPaSUbbcN4lHVh4eUc8SLQVBPAQfaxeqlg5QsbpRPTCdtIQqVZXvKkr1s2PRygFvOwt3V6olUR0GYA57aYDvjAIKVzYzueHdca5F1cxc64ninibQARc+PKOeLBoKyIbJGhvn8jgBYMo0EvaSgABl1x1fNkdjXDmwg5UO9rsZ00W5vZiJqIXDALGRe18/LSTAkyc5kdVtBtdYwjz5ldim6yd4BDz20tBAj96BeHkdj5+2uzj1PBogNPmV2K1s60gzGsvAQm8YBACdbfz+d3lAkEGxk9WCNu8ZHWy20n74QWDDA4NtPX5XG4rY6Beb//yrIODfvh5vWCQ3t6etj6/Z0/7A2Q+YceG+lGb9NUIe/b7sZi8Fwyya8/Otj5/24bjeguMAp55fKitMxGJCDt2+rH4iRcMsmnzOlTamAy0d0eIDStrbXu+T4jqYuOq9g4YSils37HFC7HuBYPs2LUV9Xr7OmgQAHf9vD/RvY9zPHl/+3X/oaEh7GmzVpHBCwYZGBrE5u3t25OFFGHT03WsfLj9naOd6OsN8dAfBts+iWrztg3oH+z3YlaIFwyiiPDosgfaSkNQIdx50wB69x+fLq3BfsbPvnoQQ21eOoFAeOzxBxEoL7qmHwwSVcvOXduwu81i9cC+ED/47EEM9Hmh/h5V3HlTfzxXvd1r42/fuRV79u4Ct9vPnMITBgFXKlUsW/5IW1fciJ69d0cdN32997hhktoQcNtP+vDonYNQqr2dMqr/J55agiBx2HjRAL4wSNwym7asw5atG9pKSNRJNq0O8c3/twdPLx1qKy2tRm8sMQ9gyW3tZ44IGzevw+Y2t78NTxgkGSyIFB567F4EbZ6UEQmxoQHgZ187iCfuOzYN952b6/jep3uxfUMYOynajcj2eGTpfbGLt1y0oQgtTvf37MXti2+JF39uN4KAcPN3+nDT1w5i27pjwwd8sCfE73/Yh+/80wEc2MtedMaoqW+/5xb0HNivs4g9ICuGFzOEiIh0xZDC+o3PYMXkaTjnrPPbzigqIKx5vBZHl89d1IGXXNOJMSf4Mq4MH2EIPPi7Adz9P/3JKlQeSA2kdsey5Q/H6nW2e54HY6OGFwxiV4hSAR574iF0d43FvFPOaDuTxFsLgPD4PYNYuWQI51xUxdkXVjHr1ErbvT6Hwp7tYRz8W7p4CAf2hH6sgZUiYo6n16zAEyuWxMwRSbNSgjjQSMwvfuAPqFQqmDNrHtgDp0YkTWqDwNK7h/DwbYOYMlNh0au6YoZpd3KfjW3r67jjZ/14ZlkN1c6kM/rGHKueWYH7H7kDQVp5uRbhiw/LEwYxkTdiEFRxz4O343nz+3DGqWe3lSob1Q7Cvp2Mm79zEHf9XGHOmRWcdFqA2WcE8WY5Rzu1bO+OEFvX1bF+RQ0bV9fjvUKiXtbR5Q9T5GCsWrMCDz92b5yDF282RGRIkFhkewAvGCTRPeWQkdUNxzX20KOLcbCvFwsXLEK9NuTNVkoRGdGo3HeAsfKRISx/cBD1oWSh65OfU8HccyKmqcS7SlVHcJ0nDoH9e0Js31DHmidqeHpZLd55KkK2zUESiPajniSCoIKHH7sHTz71WBbvgNy5myjnEB/gB4NA10rMJvHgER3iZGuxIAiwYtVS9BzYhwvOfyG6Ots6AbEhgoDixMeBfmDVo7XYXok6c2c34YRJKp6pN3YixfO+x5xA6B5L8blqJyUdOu0TYT0J4A30h+jvTTxPA72MA/uTLdh694Xo7Uk2NsxctJ7u/2Ggr/8gHlxyNzZv3ZhkbyeLM1hXUdYJvIAfDKISkcBMUFqSKCBbf5IpHlm2bN2Am3//Myy64FLMmjGn/cZ7A2QCLs4KUElnj4zl6INsk850587sFeSr5PenDoJU/ZDwxQs1HChS2LB5DR545G7UakNJrAMN+CA74ImW4AWDJOKCUvEqlE8ivScCOFHDavU67rj3Vpw296xYmsSjqCeVOVwQjT6ajxTRQHDvw7dj7YbViTFOefsmipVQpzOouN29GP28YJC8zhydJtGyYm0rY56KqmDt+tXYuWs75p+zELNnnOzNiFMiBSOWGo+vWBJPqdb2RkP1iZr+bBc8YRBRG9JGE99JnlcJqxw8eAD3Png7pk05ERdfcBm6urq9VbuOF0QGd//AQSy+/zbs2rMjVq9Ipq7bAkP+NrYa84ND/GAQWUuSWaw6iqRuxEy6biMDnoK4IX5160/ioOKZp52D8eMmoh7Wjxs1xgdEjLD/wD4sX7k0XL/x6TjqF6lU3CiuQQxDobbb2pOm84NBUmuU0510ElO9OCOAhICmjGGyKiaK9dxn1q3kuXNOp4ULFjncxyVGHoR6fQgPLL0vThFSSilSQW5rZ5epXEowm2EOT3jBCS8YJLHOM4YgkK7JTGnNL4zPpaeJKa/e2GGkoAJFUUNt3b4Rc046FXPnnIZJE6cgDI/PmYKtQqQ27dmzE+s2Po31m9ZgaHAwCfohdckRSae9PpQwR9KukjEo9WLmQt8PGeIFgyRGOqV1ktRkzBeKY+9VJjIS80JUorT40gaJmEYphXq9jjXrV2H1mhWYNGEyzjtnIU6cOjO+tLRTjgyZyrp122Y8vuIR7Nu/R6tRSgmfFCnTqBA2pFJkMEt2JnX0i2vJi0byg0EMPTRz/rNlnbscVZQqWfnvLLEwK6kSBNjfsw+L7/8Dxo09ATOmnYTZs+Zi4oTJpY0yTETSd+++Xdi0dT22bNuE3oM9sc2Rzdsh8X8OEp4WMvo7ZR5J23FFdku2H34wiLOjFgSw/p6bd2w1TmaZWHfH2lqAvr4+LVU6Ojox88TZmD5tJqZNno7u7nEI270grSdQKsDBvgPx4m3bd27F1m0bMTg0mDIE6eTCRmDDOUVNGMjlsoRUsNsOXxiEXZ07ZwNbTkiGoDTZTZwVpnymTpEeuVScPxUxw8Yt67Bx89p4hJw4YRJOmXMGZk4/Cd3dY+Nrjxe7JVKPomqKmGLLto1Yt+HpWH1SGSPEOWeVtF61hZjaG7lkz1SnzOZI7EITDDMjEXoAk61KiUHiAXxhEJ1qYssNpBWWBdVd40pBAhkaW7Ge5ZhGimJvV8+BHix98iE8vvwRjB0zLlbBIuN+yqTpGDtmLCqVatquXgxszwpRfdVqQ+g92Itdu7dj996dMUNEqlMy2Cgd2DNvzP4ImdBABba/G6nsRAXhocg05EXWYlvhBYO49FHjbKNgklX57pKH8XRKPxzEfw/29cafjVvWI6zXUa1WMGH8ZEydcmIclJw4fhKq1Y7UGRCCPV0ePp4DEgQI6yEGa4PYt283duzahh27tmN/z554BcNKJRAj+XDmg7uCGsNoB5eGZX2P7PyoDKUAX9b98YJBMgkgPIMxOLU4TE+H436Y9mCRj9i8oCEdLJiVEUQjaeqdiUbYfft3Y9UzT8YGamdHV6yKRdImMv6jv12dXejs7EJHtQtBJUglH2k1ESPgQdN1lZYZlRd96vU6Bof6MTAwEGfNRgx+oHd/nG1wsO8gBgb6ESLUNEWoVqqOaklrnfP6MOsPDevQSFVnPkT6j+s5xi2lBMlgqEhpmjtnOWtMTpdGXv+phSLMEpdShdSlaEZVitdF/S32MnPWYHnjxdnGqbQZHBqIPxHTRB00sVcS9SSSLJFK1tXZHae/dFY7MWbMOHRH3zu6UK1WUY2YKFXv4pR1zueJRxIpy/gNOYzLjlSigcGEAfoHEgaIOn306evvQ60+FF/LYWLOxSkelLtUo2cEcBjXxKarQw5W0taz6s8ezET9aZvCrmOTZ+SgmDeaVsVUKUEMJI2ZJVrl8pVEngLpBmJ93IiWW40VdW7ta6fMDCx6TrLukaayJM0rjX5JY/p88zmESqB0Kkz00HptCAciPb+3Jx3pM+mRSxKldbukJKWT/VPJgGR2FGuPd5o3QHn2Qb5kEkFFDBCYA68yaLZ01STYBEWu1FkSbhPLrsvagtg4JgcqSttQhAob1l/WNpzWO/mjYfnBIETKMvhcMwxltUkvVtpZmAqxpXymGusyzGqX54veMalamAMmWZ0tvzvpOFlnzv1v+YjciEnJ6MI57Uqcd2kdKnemGqmyJJysbNUpFYwAV5YtFerItD/Ieh+y7oRkDv1+VtvppCKCEjXtB3t4wyBZEFXoR0xF9deV9ZudajDFNOuYefYDOfRuR3NkzxPPJTjMmVQdlGVbDksYRhXs96DC6JwbUmY0wKwf4y0bnE9ZVpsEwh4SUWxNv6MaSNIJFD1QzvqT9caiXqzzkva0XD2QlPNBcsQNaw1Uug1U2jh6dmF6QpluEz1AGw0jnmEOXG47k0RMRbatwbSctz8s1SMTFWxLPy4SmX0ntpgtHT2VY1DQnYeNTCXDlpJ2sux4Kq8TXd+WICNX/RUGE4cglIRkyVap/RM/TVn116BIoV8VhX2b4AeDmApreiz5y5ktgaKxzmQLbDkgU85onHunmvuxcjsj07HzDKO8U2cOBAjlJS8gfzZYvIP5FEPqZDmXQg6YL4X8WTpNIz0dCjXGvoeEXaAVObfwKg4gov5kvWU8wSF0xyeDPhLPslSlYdefP/CFQYgNphDn7MGE7HNWWdb3SVO68Oo3nYnenkH8+scrMdhfj0fT3NvSuE3cYcuoQXN7wHmv1dnkz4IV0EASkNDOYVhRRS2RLCa066/RcEwWLQWB4PheHwpx4Utm4eIr5uCx+7firlvWgwJytoUYqoyybeFVuIbI8je2D14wSFQhio1k3gRc7GT5MWEyc6G4+GzUmO/9+AvwwpfOiY9f938vwL+8/048cMdm7ugM7P6ZD8JZL0SeXcpWSoUSE7fs4dXF6NkBomKHcbOh2a2VrZak0WetBrKlKsGhxzRgBE2bVX+yrDBkjB/fgQ/+fy/ECy6bHR+7+q1n4b3X3ozVy3fnZbPlYrE1Sl1/KNQfsXy+H6LECwaJfShKNHJB72WrpmF6V2w9nfOGmD33BH1q3PgO/PM3rsA9v99A//XlpdiwZj9UQce37YX0p7IYQDdo/nxtr7BI2Yd4B0tCuJHp6MUryOpsGZ0kaZcBClf96XItA6PASJzmXTG6uiu46s1n4vVvPzuWyBInnzYBTy/fI2i0PYLFNtXMYokRrfJRPG3BCxHiB4OQdBNlB5M/nM4wROECNDjGIthFhTytIFB48StPwaLLZ+NzH7kPv7vpGXSNqTQpz3XK7lQW+WSLPfsHa13c/TQqXl0YNGQpsBROEtc0qr/itca7gVCrMWadPA7X/+fLMG3GWDelhToeRv0ZUxm4WH8Ohm0XPGGQgkNFiF2CManZUruYyRr15WIybs0Y8dKhAT78mUvw0qvn4btfXYqnlu5Ctap0UE6Dc53YbsqETiU8USS8P3mgjXI/gXhL2U/yiIktdOAwpLOMWDmumINxGnTNXM5sqjdSx2dDNUtss0idmjq9G9e8/Wy86o2noXtstWnbGe1hq3EGd5vyK6mDpP5kQLfgvWsjvGCQrDMZg6Q9+pKo7Ez6siPJMbtZdKAmj40Nzue/aCZ+8f2V+Nanl2hVSkf2Vc6IKi27aKAr7f7V8+lJhAlTN2tSjmDmtDxC7k9WFjNl5ciKoUyF065U20Oajzr6fsEEmjPZ9l4lUuPyq+biPR+7IFZJh9N20h7LmkaRYFKS02mtgGhMltJpQ1lbU+nmzdF0Ar/kFmMEdiixxn1F9aoRlCK87rqzcMGLZuK/v/YE7vrturQIksU56bWlgryvuGKHI2CG3AWtS7c6re7wthfAohG24kTWNTat4tZ6jXHehdNw3V+dhwUXTW9cWRaIYdaIrJph1p+z9b1gD18YRLp9dMs2czo2O+Yod5iYPXc8Pnz9xfjjd52N73/9Cdx3m3vv9jxv7HDhGhaHQ2NjVfHIkdRxWGc8d9GJ+ON3n4MFFw6fMfJi8oHIZVMdKu7UBKWRnoFIZSFep8mGwqzBQ5aYaOrUeB2/Zph7xkR85POXYMm9W/HJ994ddyK7/CNXkQ99Y+NM8WHc67xK1l8++NTrwIc+czFecuXJw6LcSZFgEHLRfqis90bwxM/rxf5IelUTvcoV6WzVbOFmpUhksBa/m79h6SdHhuddPANf/58rccVr5xrlp1QbtGZ5TtlxTb+4zn5H172xFVN4H/N++7hxraMeZf3F9kAIXPLyOfjKja94VswhWlDTkKTsF+vGRX+jOpBzVtoNLyRIoxG50TGC29Fh6LmEEdm9dcZJ4/DXn7wQr3jDqbj+g/di1/b+eKepnHJJgDV3nvIB26akQJnDsynfJ5ttV7iNGo/Q9uGwHmLilG58+LMvwLkLp7lvOkzIzqzjQxnN0ltlt5XL4+WPd1fDFwbhYiNLZYHNxKFEaTDPmz6c9JqRc4Wc/dwp+MavXoVf/WA1fvL/P4WDvUPpaJl7hArZxoQmOoabZvu3VFkMT092LdsLrhXLCUNGd3cF177rObjqLaehs2sEm921Uv0wbe3MctGtZL36yBF55PCCQZRqZOUJo4TkrH4UUsGT+5QREGiUIXSk6OgM8Pq3n4VXvuFUfPGjD+G+/90Ux1PiZ0pllU3/qXb36g4u4idGEgmL45l7OA8MyQlJmimkP7TAa4SB/jouu2oO3vPx56N7zMg3NxnDELuDWprmBvNW5HIo+Yt4IUy8YBBksQBjAE5TAnUgDUaEOjMz8oiEEPNZpKJFdTz2hCr+/vOL8MCdW/DDf1+Odav2i9yifMZfvuSQVLuUTlfPw3ViWpFeAiebsZfP/DOmHGkbh/NJRuJ1IwP8zAWT8Ja/OBvnLzqxdd2NzGxhwApoyoxeEVU0VSu5P2FWRplqokFGZymawaxnm0G7N+zIsWyijLlaaehFdsiiy2fhghfPwFc/8Qh+d9PaOGcJJJYvopx+Ke4oNSjIohvinUicLTKSqUiKOYVxJ+vvq+HaPz8Lb3vfeYa91ArkUsxuA+h1tMiZW0Zi4b9UCEvGKiVIDm3kGeqROA+pypNxTAxPyR/OrzganpBKReF9n7gAl7/2FPzg68ux/NFd8TFNEeWRb80j7AgmyiREYbXqwYKsjJr8kuQPJ8G+Cy+fEUuNeWdOaO2LCwJIRjZlvqRypK0BIl+fDPpd39sNPxgEuepkg4V5UbQ53Dyifx6lQSjSmhZcNA3nXTAVv/vZWtzw2WUwlsqSkWw5ZMJUxQvH4PBDOBCdGnNCBX/76Qsx/8KR8U4dDoxpa1k2b3ZIifS0zN1C5i2F2InSt7QdfjCIsNHRoB9YA45hxhl9zp61eRRHIqUIr3zjPMy/aBpuvGEl7rx5o5ihaL2fY/FZ2+9wqHORjdM9porXvGUeXv2meRg/qXPkX+oQsGMW7FADWc/wtbKuyFatZLl+yBAvGARWtrtrMLXPKesvXAOvTDU9iph18ji89xML8YY/OxM/uWEl7rl1c+6MS6/hBuuF2NS6foch44QJHbjy2rl49ZvnDS+psEUggjPVxBII6bF82Z/M5SDbT8F0VPoALxjEpQpRbuUZTFG4pok5R21OCZ11yjj89ScX4so3zsU//uW9sdrFDp3c1ankb3lPWGfMnncC/uGrizBpatdRepNmyLOKM8no0gptp4rNQDINzwvRkcIPBrGqMR9BdO65MTuPDGuVsryrQgKhH34Q4KwFk/FvP70CN31nFW775UaxfKAVRtYwh9Hoa1gPMX3WGFx13am44rVz4piMFyhkTeesIOWKqUSL86nrLV8gSfvtvBAifjCI8E7lfnCplLDDEndIHbLKaDHdh4NpM7vx7r9fgFe+cS4+/YGHsXNbH4IAluvKUrTS94lUqpe//hT86fvOtmY/th9Z2xnr6xqubSn3G70nXO3qRfN5Udt2x5bfZRyACscBRyguPXc42b9HD6ecMR5fuvFS3PrTdbjxhlU42FtP86wo7WjJdVEHC2shFlw0FW981xk4a8GkdpPuBFkDHGfLGDGMZWHZakU42jRDushdKUFyUFFFSt1WlEkTw97I9zNUeladYAircXxDtapiz9PLXncyvv7PS3H3rVvQ2Zmuy8sU2xndYxX+8mPn46LLZrSb3KZIwpTmmmOmb0TYJ3ZSKrvS19JMBD80LD8YJM8GtYZ8UcnuzF0qfIewPUYim7eV6OwO8L5Pno/LrpqNH39zFZ5evg8dHQGueuspuPpPT8W48Y3ngvsCJnNuvEsxauxEsX7Lv57ku3vDIEc+S88qS5qJbXLzHg5UQDj/4mmYf9FUrHhsD+bMG4fxk9rntj1cNJ+7QUcuxf0QIP4wSPotT9pNj+iAoGXbscPFK92h2Wb1foxDh0YQEM5dOLndZBw2SC7WbS1LnMWi8q3V8u0hWNwTf2OxE2UZBzFhG2REIj2ctTmSnkz+KHPnguSUtZacGi3cMaqhjGwBOUlMt5+l8haTT4vLmPjSdL4wCJnLUUrbwnL8FUaoYooW++UpPKYhI+lS+tsDmuQZnWKi3cGivKP9AoeAFwwCaagbMVfWYpqEG4vSvJ7sOtvxm3tMfKvuYxRazWIxqFGe8z6c7AEuLBrnhZblBYMY24mxEkaECDJZYkSuGGhsloF8Tf6SQVqPJDFXZMZlBoX0/SphUbI1sxLS6FRp87E3SpYXDKJH+7ReWE52snyHRuKCsXCzLXu8qeNjG9nKiYaDRex3a2RqJ5vpsFjmNNMQYORjKU8STTxhED0lnfKFXwp2BczlSbPj5MiCJfEp0VrYBraSAUNHW+kf1vhlt5UvY5sXDCK9IPqYdcBmBsMN7LgGAI5w3bgShwOHKltoR3mtvNBe48HMH/JChnjBIK5IuThleq5cv+HwbukA5MhTWyKHXvDNFRMsiAWRdypGNXOJ5XQ/Si/YwxMGcRnT+ezBbCOX9Fo0EAra8HP5Skq0DmIlS1cb2JviWuIlX8qouL2ED/CSQfIkaTNd+tDVZhp7pRer9UiktHJ2bmOmoKEWs17TRGnWUE47pd3wgkHymf7JL2WkuSeuQZWmKtgRVxiGIINZQemFAzyp5WMcZMSmxAxQa0phtluxEqzEzKyIyBjcjnTB6xbACwbJs3FFMJCFQ5cyCV7YyjK/X98qAoa+1PIxDHNRPDELEqY4oGzxuyzGpe+RKdcs2tuPtvOEQVTqQxd+KrJ9Vmwl+ui7rYkF+X2truMNT/fikbt34SWvORGTph79FUWaoV4L8av/3oiDB2p47XVzMG5Ci1LnycqatlxRRZswCQDnKynK641lLLzgEC8YBEa8SNaLe82S4mLNtqNXX9kyZXbNih586j3L4gS8236+FVf80Uy89JoZreuIw8TQYIgli3fhN9/fhM1rD8aVunfnEP7y42e16ImuTTwtm5LNHbRYNKmIoORLtfrBGzG8YBBXsltWb8xShOsBKD3nSHdHXhap1m1/snltX5yiHj1osD/Er7+/EXffvB1/9uHTcfbCo7WqoYltG/vxH9evxurHe9DRSQgqSUR619aBlj1Tp7vbanJmU2T7uYu0d0obUju9MvmhzNmHPsA7BrEhFxUjK+3Kvt7OBi7mio4szQyl6YuY5cD+Gj73t0/ieS+ajKvfNhtzTnNvnTzS2LGlH7/5/mbcc+v2OCuhozMfGNQI7ZPSGPYGJcIAt9rIKfXNP54oVjm8YhA0qKDDiWzIRZQVqdYNRGSmemfo6AzwxAP7sPTePXjFtbPwunfMQVBpDRFhCPz6exvxy+9ujKVFELglZitXB2vmTn+WT/UiVOgJgyAfc+z1RZFFW8VEA6Pm2RGNcnwfaZpBVhTZ3L+jUglw60+34LF79+DVbz0JL7hiqpGc/GwQ1oH7fr8Dv/3RFmzb1Idqh2pcf0WTYESht1gz9q52q78FPrKngBornbAXssQPBom7P+nNVfTUSyWn1pJpi8NKidc2S+JpT/pJ2EqijQ0smZId0uNGTkmtVgLs3j6E//zsGtz16x14zZ/MwjnPn3DEHbZWC7Hk7j245UdbsGltX6yzV6uBYE7hyIgoUZxuxdDavkb6ncUsUDIZxnA22jOnkOiCLBaQQ7nsjwCpQuScst9U1Glze4SctmGmZrV6yi2lfn17dpwtxCIVa92qg/jyR1di4Ysn420fmIfOrsMTJzu3DuCGTz2DdSsPxOpURahTmjlFZcjpA630CiUDFxnz0rNaMKbUZqSBxaQ30Z6WB9MXW8QLBiGS1Wr2djIMbjIMb6M7pgOOirsKW56VFtCcNSLJ7W0aX4t4PawAjy7ei5VLl+KVb5qBS187PVWPGmPXtgHc8qOtuOe3O+OCgqqZemMuyJbt6JTUgdFxWwWifG0ya7Fkc2k4srzuJJcZFVuzweGOaR88YRCz65vrJIrJNvFfJabbwoqBpFdyOqpRC1UsbYMkEhBZ0IuKlMvgZRAQBg4yfv4fm/GHm7bjz//+VJx27rhC6VGHu+WHW/CL/9ocb8ijKrZcYpEZ6/Ii5X9bKkGyv7EIVWnXZsubRWZMSo95qqg1kF1ye+EHgzT0fJPTVdt4VMzNO2qx9yYTITKA79pmTH6X42LEKL376/jyR1bj/Esm4Mq3zMSMOV2xZ+r+3+/C72/cFsc1qtV88wCtimTxniavZ2ZFtbKzkTX7E4WUIP2/LdFtO0TIHD/khycMEhlkxY7lcks1K0PkY2mLsHVdQ3uxqDhpy8zRs+dHmjRFZx5dvA9L7tqHCy6fhDUrerFt4wCqVdJbuRXusyfFOOnLr22tDYKic0BTkG8xCptVxSswFeutdSHew4MXDELSakNB1uZwaVbZ8YI20/q9QTI7x06hzGzR+Fy2SFqD2XSaqQPg4dv3xhdpu8QeIwzOc7hzixqdeX9LIAKFtpcqU3ehzaOcNuHhdco5LuMgGraItqUwi4kFxm+CPWVEupRiN2cLRYjBhIQGgk+R0TE0OaqYi4lAvAMcHdsyNchegVASQ/JrKyUIFfeYbDT8k/W+1qkjURxaDU8YBEIcF4fLgoZAQlslOAzA1ntw4sVuXEsL2fTAxfgshlRY+4kX5qBa9eJ4nC7HzQytTv4rbqAjVC7dVnDXSaGwYhnthCcMkkxCJq23yuqRDAPRBfLjrv2JjFhAC8DCDimeKc6hM9+FHDEfcoiU7OrhlSeZg2VUppUMQvnUhOQpLrvJZhGbAex382frCk8YhDhf4JjydcZsnSILPTHce3NbjBUEjHWr+nDinJHfy4+sSHqGJLU7mdmYB4NtHZCsazNJab9vOotS2DCcubDtkVrUH4lgKdBqSWoPFK7OD2tQM9/RJS3YEzeWL86CHcmGN6Sj31nnyztiPjFHWWns+U+zUlVA+PkNW3HLj3bgwL7ayFPtGJkTWsRCBoXGV/o9smuIxOKDVtHZZDK9YhiJCIeR5CnrSx5rnQAZ6Ktjw+o+Kwrumqtj10N+zH2titp4R2uoPjz4IkEeA3Bq0aQsVioV5ptn6pTrHmBogPG7H+/A3b/ZjTf91SzMf8EJI0m3MbeBxXFbRSBjawD3bMfC+NrgnfLxmPSqhnqk1gOMVNFGnkN2bx/E9z6/CTs2DTHpnB4l6BheOXInsLwmCcz1p0ac6COAFwzC4MWK1DX5kaKq4fqdZ4g2b43omoHeEN/+1Aacef5YvPQNU3HG/LHPyg6k7J94PjWgUzsgCqPlSIC06tWQoUZQhKxf1Yc7f7Ebj96zPxnrA7PwhI7iAAEUJ8Pl5BWHRELw0IgR/SzgBYMEQXCnTLzlTFI41Fkjmmzp2qYf1YoPEFDtJKxZ3oevf2w9zn/xeLz5vTONyUWHBYIZSZePteMB6WY+Tp5IVzUvdB6HI8fYnMbarEZOLNMSikfORj94oI6bvrUVD/3vfnR0JSkzkibJm8mzzfeNZxaK8A41decSauHgI8+e6mcPLxiEQlrGhM0AZkFmxtoL9pHVEHkJkH4UEtkYQLERIkZ5/L4efGFtP17y2il4/mXjj4hRqJBaaX3J6BcOhEJMT2ezmlLIvgcOQUDuqTN5XVAj43j4iGy3W3+8E4/cvh+DAyE6rCzkhCY7fo7Md5I/XZBAaLyuT/q+a6tBx9IjJnoE4QeDUNBP4G8y8T9mx9wL/DQpQ/xtdJ/RQQPCnh11/Oyb23DXr3fjbX87GzPmHM7egBRPZTWmlDa40sV6pgLmVs6avbvNbI0UUcKRxUHqNcZDd+zHr769HYODiXoYBKqgOMmByUWj+z2o8B7m9fQVEA0eNtEtgBcM0tkdRJX0tcGB2nvAPDX3q2ejkrWvhCt8LAJSxHJoZqMFkiLyTXcqFcKebXV84f1rseCFJ+Dlb5qC6ScdmlHIMJVZB/vi31mOEfI9+bJhNB9wRbc2tmXightX36MhDXJ7rxR71YvDEyCD/SGW3NWDO3+5Bzu3DEIFpofNjC1phc4Ifub2UN5uug0B2A2Sq1txGVsorNzgSRjEDwaJR2JgR1BRXwhr/C+wo8LmNDSrwR1BMzEvQa79KjgkZaB8/Ip06sfv78XSew7gnAvG4oo3TMGc05uvdZUvjk16GwCpYJNtABiZjXK3UTErUjOUEsENu5O76oOFqiY64jAzCvbsGMI9N+/Dkrv248C+eswYmcQgyaEkk6oyZsl/M6w4lrLpdlVk9jd6Hn0GFew9JMFHCV4wSGboKaW+ElL4YQKPJ5CtuIov+YhrplfYf9nWjNPTqfwQ6zJl8VtVJTz1aB+W3bcel7xqAq7+s2nuRReymXQp8+qsXaJiR5AjuqGza+ZgiG6uO7n0ngJiSiobO2llDJWzjWmRNFOxhoZC3HvzPtzyg13aA6IXf6AG9SfqLJs0lgkul8qk6SVz4BMh08xVvacT6lu+SA/4wiCDWtuk/UrRvzLTv5qpFoiX2ElgDqeKyPCim2icskD5yr+580sIrM5uhQdv68G6lQO4/JpJOPeisahU8+fWh9IpvVJ1amD5FClTViK4lJEk1DZHSWS9F0MvHl1M90iPOuaNRTbGo4sP4A8/2Y09O2rx/HbbWCom6hfrD1J+GAxQjMMYLWfY6Sotq/rpGioHDksnbDG8YJBOockw0xfqQ/xWBs3XGzua2riFbOS2zjMKujjZGkFmiyjSto12n0bSIWDs3DKEH35pO04+sxN//L7pmDw9WTnxmSf6k/WmRFkN3cyWv8scldmgLxlmcyliMEpBzRJ2j9MvnDDUrq017NtVw4QpSXOvXd6PG7+xAzs2D6FSQboAnmOIYVG3XNDc4nQakJgua0yoJLOFmM1pLNZ4R6AHKyF/HhhytHH7QOzBZnCfeMda80CdTqzVw9sBPMd1fTPvjUuSmOZug/dtcgpCDTx9fjf2761h+/qhEVvG53AIamhzN6E/Ojx2vMLZC8fGDL9meb8ZkzgEJYdp5zeFHb9JmfxJpXCZYjLSSz7+3bkj9NQjhxcSpADF2wLCu8I63eHykhYtDdmAZlNyg/xSJ8hVHlI9PmnVSHJwmud1KDTpWC5NxHFfY/ZvyCQNDvf1MB6540D8OwhoeOUduugjgxm/6VeK3qECeJF7ZcNPBkkSE+9WwKvCkP6bgKnSi2lDCdUpz00Sagu77X1La8jPO5xHLCLDjaLA+bVmdrHhgRU9n9kaUYkNa4bZIRjsmXnZYTIlq3Q62eTadagsL7FdQWTvJXiI+oPjemtduYyQ7SC6FuAH4Cn8ZJAUpHCrIv5TrqtfU7IERrLAcXaB7mBiDSwSjGEt+JfoyebYbIQpUGQkarDVt0GnkbKelys7efo+DgeWQ1rBmGaR02m+QuoJFgv/pNcnHZ6NshKm4dw1rdN2OJ8+kKaD6PQRZXdsNrdvBorT49OYh949Kr3QqL/kW42J3wTCnc36QLvhS7p7QxDht0rxyxSpp1Xsykx2KCKxfXQ27TNzZyphnFO6blOWMq7T5im/Lks3j6/VizGQkAK5Updca6aWU5rCrow0dqS0iJT97Hea1i/fI7sm+w4yn6epMJ5LeuE2XZ5m0LycrM6y+st0nJxesz6VmOdi1B+JBE1BA6z6y/b/gNjWO6+/OE7yFBRdSoQ7Wt1/ni28liAahP8F0yIQfRHgN0dqtOlYJeEhymbp8SH2NzRn84kFZxzL5UinsGxysjxTsGIywuvP0CKDjFeDoNt8BxAsa8S2voq2itt2MYd4KnyXtFKD+rPep1AKW38lRdmHawC+B+IPgGk3RgFGB4Mgrt+dIHUdUL+PQF823LhsB+jYsfmOtIkd2rROP1FGYCsvL+08bC1Hws1WcHSVhQLzAbDjIjrL1/mehk1ldFwuLnZUfJbxXVeFVX+pC9e0olysDfM8i3PZYjV5nb0XjH9vv990+PBexSqCvgLCtUTYkHUFrRLp7+lITXIGHgx5QVLXjxMPlVBfyMiUlb+1mgGp1plyg7RSUxxv8zIgaDB+CbUnX/eWROSeyByXxfMJ8t2MdxXSoPBu8n1gzGLM34HM99P1kf1WunCpUqa20RpQ+HoQ/r1FnaJlGD0SxAD9FES/VMC3ofCWZHVzrVqnRjVpC9xeaVHKGSDvVqCinCF7sE6/uMblzEYw1yUqqiDi4pwOyuWXeM/kfzKDh670+QaKnT7AGTOwOXnLrovc4M83aG6kwLFI5ydkEX22ygz/ixG+i0CDo0lyZBiFEkRjgIDriPEaEN1jj7LSnaSnxmpGIOO4PieHRchz9gfmccjvMK+FpYJZ5Rh0QNwjJIlxn5AK0Aa/MugolGOVX6ynopSStDlpdJWj6yVWKe8k4EqA3w74kbp+JBilEkQjJOA3BLqFo4Yg+hQY0/VZcgTiyDruMh1c98th0S53GKp5oVz7GlgiodHzi0N+8sfQmw5RTsFP7biu0Tvb6W32NcD2kOt/R6S+Ax/SNJ4lRjuDZKgTcAMC/gXq9A4A7wbotPiMiwG0fepekI3FHutM+X4WiS2fKjC6DOsRjZiP2FR9CrTkgsagy8hLtPfasGiWqp99nlyqYv5s2PvKN2NOR/0x8VOg4Fth2P9tBu1uNu6MJhwrDJJhBxGuB/AlED4OxgcZVHUKAmGEwhgk460502Pmd7nMZtY5yCFU3MxDwuIorjWYXyf298hKLcQTzECgLJ/0OfOJjpW5DF7Sd5iEkCOwLsqMnzgYVmqfCWvhJxRV/co0HAGMZhukGQZI4SNQldkg/DUIDxBoKFfThfdI69H5ucxuyOMRqZeGYOni6ens+qLqb43Kph2h7BFbf6GYMbOAnYJtt+SepqwsM7iYeq2ksNG0aXuCxOPywSK/WK8pDpLPiL/ViHA/CO8l0MywUvsofEvDHSEcaxLEBGE7gH8LK/RvQQ3zAPVHYFxDhBcCVLHjJKaHSVmdlvN5F8yOrZWFLLDG3dx7Rqb6T0IGkWOcJk5WR1dAtjirpEfTmF1H8ngqYdK9/zTTi9wRY3ke+XxFxaoBBqHUvcS4MQxqvyRWa2MpWschDLnRjWObQQQIWMPAF0mpLwLhKSB6JzHeA9Ck5IqCNZHCXIbd1O9JZC5aT9N6FhnZjWQzEJm3FQ5knVgLLBJ0Cbq1y9VWCqylieyEsAIBZH5l7GLiL3MQfKsO3lwNXRmUxy6OGwaxsA7AP0DhM2C8kIDLAYo+5wE8pni5HZWXOMToSdLyIMu11aBMHdQpDuNut5zrSDF5pniPOJozci+ApSHRHQz+HVF4Pxi9dEzLicY4XhkkQw+AWwC6JVWhpjHqV4LpWiK6AsBYnUKrt5rMR93kVD7nL850ja4S5q825rMF4mRulthvMRMUeiuE+LfSXi1ASpBsy+QELG2RzAnA6STlXADlPFBMbz/AhFsU0U/B4R/AagcHhHgxPz6OxIUDxzuD2NgBwnfB8acbhPlI7JX5ABYQcAZAE7KLpQGbHxPqjvQzEcwlcywDm2XKFudbu8HyVennEBmdX5zJz1taW/p9H4BVICwB40kOsLgeYKmqY0Cn0h+//FBAySCN0UfAAyA8EO/eGoQI6+gKAjorDPnFzLiEiBYCOCmWNA44lTHLcSVTZOwb0zynOFnG1W/JEfOzEKlLm4jxMMB3MXA3gVaTQl9dT+MvuaEZSgY5PPQDeCz9fCUd7U+A4rlgzGLCqQCmEjADoJMYPIVAUwBMAHgyOI7JBLmOZckGx2JyCXOQPF2PPUrAboD3RUY0CLuJsYkJW4mxnQlrmbFZEdZGauToj2e3D14wyKV/NPHQF7HSijoZ2jjyBMEgH1ITFSVNuFOACuF257IwnmMPT2iUoS9MZ94lm+YbYboeEJaBscwpMpJHdQDo4oR5JiD/dBEwJnE5Y4y1BV1vencvIzKSqYfB+xjYRcA+Ag4yMKRZSmaow5z2m/qmc5rFLMqQWNsmiSs50bPCbJ/HuD4S71cY1Wh8OtS6GLFCvdIB1KJrK2Cu5N66uDxrzaE0G4HT+7XLwlMPgBermpQo4SuO1Uh6iRIjgpJBSpRogpJBSpRogpJBSpRogpJBSpRogpJBSpRogpJBSpRogpJBSpRogpJBSpRogpJBSpRogpJBSpRogpJBSpRogpJBSpRogpJBSpRogpJBSpRogpJBSpRogpJBSpRogpJBSpRogv8TAAD//3KFv91tEyM/AAAAAElFTkSuQmCC;" parent="9gm0HyqsbW9hDULjH3VM-104" vertex="1">
          <mxGeometry x="193.07000000000016" y="87.65000000000009" width="27.35" height="27.35" as="geometry" />
        </mxCell>
        <mxCell id="9gm0HyqsbW9hDULjH3VM-32" value="" style="rounded=1;whiteSpace=wrap;html=1;arcSize=3;fillColor=#f5f5f5;strokeColor=#000000;strokeWidth=0;align=center;verticalAlign=middle;fontFamily=Helvetica;fontSize=12;fontColor=#333333;resizable=1;" parent="9gm0HyqsbW9hDULjH3VM-107" vertex="1">
          <mxGeometry x="21" width="278.36" height="63.64" as="geometry" />
        </mxCell>
        <mxCell id="9gm0HyqsbW9hDULjH3VM-33" value="OMD-UI" style="text;html=1;align=center;verticalAlign=middle;whiteSpace=wrap;rounded=1;shadow=0;fontSize=23;fontStyle=1;fillColor=#f5f5f5;strokeColor=#666666;fontColor=#333333;" parent="9gm0HyqsbW9hDULjH3VM-107" vertex="1">
          <mxGeometry x="31" y="7" width="258.36" height="49" as="geometry" />
        </mxCell>
        <mxCell id="9gm0HyqsbW9hDULjH3VM-110" value="" style="group" parent="1" vertex="1" connectable="0">
          <mxGeometry x="-2236.42" y="-4794" width="280.84" height="228.63999999999942" as="geometry" />
        </mxCell>
        <mxCell id="9gm0HyqsbW9hDULjH3VM-89" value="" style="rounded=1;whiteSpace=wrap;html=1;arcSize=3;fillColor=#f5f5f5;strokeColor=#000000;strokeWidth=0;align=center;verticalAlign=middle;fontFamily=Helvetica;fontSize=12;fontColor=#333333;resizable=1;" parent="9gm0HyqsbW9hDULjH3VM-110" vertex="1">
          <mxGeometry x="2.4200000000000728" width="278.36" height="63.64" as="geometry" />
        </mxCell>
        <mxCell id="9gm0HyqsbW9hDULjH3VM-90" value="Pipeline-UI" style="text;html=1;align=center;verticalAlign=middle;whiteSpace=wrap;rounded=1;shadow=0;fontSize=23;fontStyle=1;fillColor=#f5f5f5;strokeColor=#666666;fontColor=#333333;" parent="9gm0HyqsbW9hDULjH3VM-110" vertex="1">
          <mxGeometry x="12.420000000000073" y="7" width="258.36" height="49" as="geometry" />
        </mxCell>
        <mxCell id="9gm0HyqsbW9hDULjH3VM-80" value="&lt;font color=&quot;#000000&quot;&gt;&lt;i&gt;ns: ebdz-loginom&lt;/i&gt;&lt;/font&gt;" style="rounded=1;whiteSpace=wrap;html=1;arcSize=3;fillColor=#f5f5f5;strokeColor=#000000;strokeWidth=1;align=left;verticalAlign=top;fontFamily=Helvetica;fontSize=12;fontColor=#333333;resizable=1;container=0;dashed=1;dashPattern=12 12;spacingLeft=5;" parent="9gm0HyqsbW9hDULjH3VM-110" vertex="1">
          <mxGeometry y="68.63999999999942" width="280.84" height="160" as="geometry" />
        </mxCell>
        <mxCell id="9gm0HyqsbW9hDULjH3VM-81" value="4" style="ellipse;whiteSpace=wrap;html=1;aspect=fixed;rounded=1;fillColor=#0050ef;strokeColor=#001DBC;fontStyle=1;fontColor=#ffffff;container=0;" parent="9gm0HyqsbW9hDULjH3VM-110" vertex="1">
          <mxGeometry x="249.57999999999947" y="198.63999999999942" width="23" height="23" as="geometry" />
        </mxCell>
        <mxCell id="9gm0HyqsbW9hDULjH3VM-82" value="&lt;span style=&quot;font-size: 11px;&quot;&gt;&lt;b&gt;ETL&lt;/b&gt;&lt;/span&gt;" style="rounded=1;whiteSpace=wrap;html=1;fillColor=#ffe6cc;strokeColor=#d79b00;container=0;" parent="9gm0HyqsbW9hDULjH3VM-110" vertex="1">
          <mxGeometry x="10.420000000000073" y="198.63999999999942" width="60" height="20" as="geometry" />
        </mxCell>
        <mxCell id="9gm0HyqsbW9hDULjH3VM-83" value="&lt;span style=&quot;font-size: 14px;&quot;&gt;&lt;b&gt;Сервис трансформации&lt;/b&gt;&lt;/span&gt;" style="rounded=1;whiteSpace=wrap;html=1;arcSize=13;fillColor=#d5e8d4;strokeColor=#82b366;strokeWidth=1;align=center;verticalAlign=middle;fontFamily=Helvetica;fontSize=12;resizable=1;container=0;" parent="9gm0HyqsbW9hDULjH3VM-110" vertex="1">
          <mxGeometry x="60.42000000000007" y="113.63999999999942" width="160" height="70" as="geometry" />
        </mxCell>
        <mxCell id="9gm0HyqsbW9hDULjH3VM-93" value="" style="shape=image;verticalLabelPosition=bottom;labelBackgroundColor=default;verticalAlign=top;aspect=fixed;imageAspect=0;image=data:image/png,iVBORw0KGgoAAAANSUhEUgAAAPAAAADwCAYAAAA+VemSAAAAAXNSR0IArs4c6QAAIABJREFUeF7svQecZUWZNv5UnXBj39u5J+ccCJJRlKCugIIKKgbE9P/pGvZT14TkrIJpd03fqvsJKiYEJEqaQBgyw5AzDpOn880n1X/ft87pvt3TzXTPTE9Pyz3+xmG6zz23TlU99ebnFahdtRmozcCEnQExYUdeG3htBmozgBqAa5ugNgMTeAZqAJ7Ai1cbem0GagCu7YHaDEzgGagBeAIvXm3otRmoAbi2B2ozMIFnoAbgCbx4taHXZqAG4NoeqM3ABJ6BGoAn8OLVhl6bgRqAa3ugNgMTeAZqAJ7Ai1cbem0GagCu7YHaDEzgGagBeAIvXm3otRmoAbi2B2ozMIFnoAbgCbx4taHXZqAG4NoeqM3ABJ6BGoAn8OLVhl6bgRqAa3ugNgMTeAZqAJ7Ai1cbem0GagCu7YHaDEzgGagBeAIv3lgPXSllAMhWcu0tsbqMiVIhh4SRBzI+AAWA/vYAuEKIYCTjUUpJAPQnGOlnRvLcN+o9NQC/UVd+BO+tlIp1vPrq7LtuvP5NDXasbWpzcy42qa0r3pp1E+m0V5dOFsx0ugMwugCnCGQJxPQnAjX93XfR85DPZ+B5SdTXu0B3EagvhwcAHQa1a5QzUAPwKCfsjXS7Uirubtu28MorrnjHurvvO7Q5Ea9rrM84ybq0l0ylnHRDQ1dTS+vG+kmtG7PNrb2t0ya7RjbjIJXthG1vRzzeA6BCAGWpWyq1PX7tzYv/8dRzU5ceuNSbu9/ydrQ1bUXW3gYk+u6tSeaR77IagEc+V2+4O5VSJsrlaU/ecPNxN//8F++Nuf7+icBLi3JF+VJ4PmQhMI1OIxHrVIlE0UinPCtTV0y1tG6qnzT5leZJLZsbGxs3Z/bff2NzczO2P/30ftd997+O2/rcS0sa0ilZP7m1vX7JwvWLjzr8panLF6yPZeu2AHY7gBwBXwgxQIK/4RZgBC9cA/AIJumNfItSKltY//LB15z/nQ/4615+hxDOdBUrmwpCQSk/EPC8IHCDQAVKKLJrK0qKLlPKbdI0N3uu//jBn//c/Yd84FR37S/+520rf/X7E+sta4EQynKDoIS40S5Tic2ZyW3rlxxy8CvTDjnoFWvunPWJhimbAHQDiFTsGpiH2Ig1AP8ToZMlJmCFf6K1JWcTbX5nZxItdFqR44ouj1RZpZQNJz/33p/+8sRHrv7b+9LC38+wKilFT1WAEkAQBOzREvobA6UlJ31fp1spP3DE5/51xfyDDlJ/vOiKY0qvvvaWjG22+YFrwDYCB76rpCxXEPTkPX97w6SWjZMXLnl59gGHvLBw6X4bY9Mmb0UmsxUAqdg1MA/arzUA/xMAmIC3HUikUWpMuMXJzz3zfMMrr/3DntE2BdOmzXQzTa1d8MVWxOO9oT1KDiOySxmkNAUh+LMAmrSXuJQDEkWgK0AJ2e2Prj3899/70anxzu6jkoHToiBk1BZAhP+hlGIgR0gGUPA95+m3febT67Z0ddtrrrlp/xZpzZPKTXrChSMVPKEg+VHCV9JyCiIoouR11LvGlvT0yVsaD1j2Wv3+S16af8jB6xumTd8IWBsBdAkhak4vmup/gv37hn0FDbrtcSDd4JW8ad7DTyzceN3Nix9a9/i0kuckpB1HvCVbSrc2bp6+ePHLjTOmb22cP7skW+vz0hbttm12AVYZyPpAPl7a2jPnD//3l8smp5vqlh+4rCszubXLmpTNxwNZgWVOuenHP337y3fceWx9uTJdQVhCiD7Jy8BVgCQx3C+O3cD3O+YecljHU88+b1m5fKstREYpX7q2D4fODkPC9AUMgqMP+FIqoTzPcPMVTxjFcmB1WC2tG9Da+lLr8uWPvOmEE9bMWLLkJVLV37ALX/XiNQBPwF0QSssEUG5ErnPalnUvznv4nlVLNt7z6JLM1vY5ypRNbhDY0o6hpDzHNdBVUMFWz5Y9qZamYv2UyR1tUydvmL9k4ab6KVN76xuaHKN1cuyZO1cu+Nl3v3+w05VrgyHLDZNbe1tmTemePm3q9v332y/o3bhh4UN/uu6gZLE0BUJYdPxH0pc2kud5LBH6fiaEEgqeF0t4XsWTSaVMKZQhpELR9OAT1gVg+QKWpyCVRACBQPiwYy4qju+7gZ0vmfFNPabxVMOSJave88XPrpyxZH8CMKnTb/irBuAJtAUIuO1AohnlRq8rN339Q48tePXOVUtefeLJhcXu3lnC8ts8VamT0rANQMgAMBUYRFDSgVKuUHClYeY93+0whdnZ25Iqts2aXZk0dbp8Zu0Tba889uRMG2iUpgXPFG5XUC4Gyuu2TbPclEzXxUpOWyLwM0Ia0jTJjDVhGSZIGvueT64tyD4hrKGsfCAuDMBxIS0gkAHKlt56DGAPsBwfQUAfNlExfVRiFV8qWXQqcmNgJp9YdPTRD775o2c8HF80+Vkg1bEze34CLetuDbUG4N2avr3z4VDiJsk+9bq7p3c8cN+Cx2++Y8nmJ59dVCnkZ4kgaBExIx0o31IioCwnBhSUYmmoVABBdqaQ9COlJNuPLpTyXD/wAsAvuBXV291rxywrYfmShKJwTaBskGKrPKEC364E0lCBJQ0YZOeSumxAwJQSQkokEgn+mWmY/Dd9H4GZ1GPhBzAZ4AGUVHAtGouCAQnTC0BWsI8ARQQwzZgXN2K9253yq6WmuoeP/MCp9x75gZPXIdW6AUCvEILs99pVs4H37T1QDVx0t8946ZFHF95/w61Ltz/1zEI7l5+ZDGSLach04LuWTJjC830oToTSZuiOF9mspKL2/zZGeJdQ3U4ZXT09jHxbmPBUAE8CFfZJK5hKIe4KLc5JtIeXVNU+KwFDSpbIpmXCsmxYhkQMBkjftgIFGQSgUVZIWSZwBwI2nSBQUIZEyVau68ouUbFfSM+Zev+RnzztnlnHvnUd4lnyRJdrSR4DV7UmgfdBDGvgdiaBxqbu7g0zXrv7kUXrb1m5dNvjTy0yK85MJVWzJ4JUYAuLIGUpBdsDlOPBMKIoEMBZx9FVhWgto/UlpWSwbij2IOdrwWZIAwFJSooFhY+zfCDpge3WsgEYVc9jaU8X68sUSNLgJO8y/UfCNBjEMWHAlgZM00RgSJAol24AQym4vgc3bnl56bf3GOLpSUsOu/eET55x7+SDFjwFJNprTquhN2oNwPsQgBm4nZ1JGEYztr8244VH1i588J77lm567sVFMl+YVW/azZbvp4QKTKV8QSajYRqsIvteAENI9MN30ItVSV12Eoe/FtJC3newobcTjkWAAywGoQ4JuaQDE9AVEA8DNx6px1VSPgIwqcSM4AjQOjzFUtckexwCkgBsWRC2BakCJKSFjJ2A63koWiiKVOz5RW9/651HfPTTd8bqm55AIrFdCOHsQ8u0Tw2lBuBxXo6wOsdEV1cCUjZ527fPeOr++xY+fvc9y/LPvbjIL5ZmSlM2m4ZMKd8zbamEScAlKQdDVw6oAC79jNTXYdTnwcVC7C1W5FCysb1cxPZSL/yYyeq17Qes2hKEfSn71HGSwiy8Fcn9fjU9AjAldAgp2B4m4Ab0h36mFKvQBn9OsBSn+C9JcTsQIDXejtkoW8gvPexNz77zW1+9y5wxfbWB2LNArKMqgWNEFU/jvKR79etrAN6r012l0epSPRtAGo7T3LFhw9T1966Z98SdK5bm17+2CJXizLTnt0CpJCxhKkHBFR8Uggk8n9VRKJK+GizCMEP7tz/jsNoOJhdRpOcSoGjhCYxlkcTmXDdyykVgasdXwglYWhJEyQ4miUtSlQBvBQT8/m3D3xFKaQIsfawaZUoKSJ8OGw16OhAcQ8Aj9drzkYKBhAP4ZHPbqFTS1rZYS/Ozs2cuWjd78cJn2+bO/kfr7PkbmlpaNqOhIVezgQdu2BqA9zKAw3TFGFDMwsVk58WXZ6679755z9z/4PxNL744Nw5MtxVaDCCZ9DxTKiXcgNy4FGIhm1UgIECwxKUzQML3CZwclAWqynIHLG6o9hLIIg+1IQQ6vADthTx8oUC2MQPbJQDrR5K0DKpUYiOgb+x/MoM1/D15nslyZiBHNjF5q0PNmuxqelYgBRR5rumVPK1eky3uC6UcE44jVK5iiG2+E2z0lXz5iHe84+FPXXjuGqQbXxFClPbyku3TX1cD8F5aHlKVNwPxyQxcd3LPC8/Pe+zWO5dsfGDNgvyWrbPiLib7gWpQpkzAME1fSBGjuGkEhmicVUnHw/mao1urfVgcgFUKfkBooRCPBuv6Yi8KrsvSmABIf7wgYBAS0Mdig/AzWVrrTC76klB4M6h9qYKS7bmWI8vKkVve/O533X/yZRfcDDv2EBDfXqtU6t+0Y7E+ewkSE+Nr+iUuMm6xZ0rupVfmPrlq9ZJ1d9+91GnfPtcqO5MSSmVkgJgQggKoUIKkkUDM99h+3NVrAICFtpdJChIwyVvtOA42lvKoUKYF4ylMrtiN79zVsVZ/jlRtTyoI01KVilOYPWfuC/9y8in3NU2b9mBy6cLnE9NaXwOSlMzxhk+nrAF4T+y4IZ5RBdws3OKUznXPzHn6zlVLHn7ooSWVns65lutOiSs/Gw9UTDiOJAcUyTsvdP4oacAmsA0T0R3JsAcC2GQ7kwEsCcAmCsUCtlSK2saNVOvQczyS54/VPSz5pYEKp5AFfl0s2duQqt/gBurlWQfu99S7/+0LD8RmT1sHxLe80UFcA/Ae3oUhcONAqd51i1NeuX/t3PUr7l205ZGnFvds3DLXMM3JpvCztiFigVMybIrbckUOZUwpOBS+YQlJOYeu1i138aoGMOU69dmmpoSvFHL5HDpdh2Oy7LLiNC39fX2x3V387t35GB1klrKRly4CA2hJJPxJMunaSuY6fOcfDYcd9MC/nPnlu1KTpz4af4ODuAbg3dlpVZ+tAm6D29E7tfTUc/Puv/2WxS8/8ugiN1ecHav4kzOBlRGGjCkRGBW3jHjMhuM5MAwdqtHh1zAF0TAQcGLFngGwT3opOaRIRTclKhUHuVwOOU5tpO/UBwiHfTgNcvy2hoREHHE4gQs6x7KZBOoME4brB47r513TfnnaIQff986vfeUOe/qsRwGQJH5DxorHb5X2EHDG+zEhcBMAGtDbOXX9Y2vnP3jzLYs3rF23OFapzIbntEGpTNKXsbQrpScCCEOnM1LuLztwwpiqzoMg+cPu5NCjvIcATF9laNs6sCTyhTzy+QLKbHPvOwCm2LMBE7aKwffpcAtQX59CwqKSwwDCRRD4Mu8l616e+ubD7nnnF79whzNlyqMJYNsbEcQ1AO/GCcAsi0BTaevWGa+uXbtg/V33LHnloYcW2z35WXFTTlLSq/OksstmIK1AIF2hEIrmYvVlwMClK+C/BWQgQNKH/qZ/U+R3tBKYBW2I+cEqtDQkJ1C4UNje04VSpQxlUSh6H9sGlPChbMSUj7jwkW1IQ8QobOwgE5iwKiKwVDzXa8dfbD7q8LuP+drn7kw2N64F3nhZW/vYyu0GmvbyR4mxET09U55feff+T95828EdL7y4zO/NzbEN0SZskfakbyPwJRUB2L5OS6QYaJ+0ZZSFXl9tdYJirCx/QylMMnq0V3QoUOyV46/hRTawMgR8Q6LgVtDZ2wOXmHaEtRtK+mhHN7L7Kc3EFybsIEBKKDRl0jBNSrH2uPpJKgHfN/wyzFzZNJ4/4M1Hrn7blz9/JyY3rQOSlDf9hqlWqgF4ZHtqwF3ME1XunrLyN7897MFrb3p7urN8UNoNpiUsWedZgVWQvnQNKp1TiPsKKYfCIkCJsiOqZ5zR1v8DDWANZp3tNPrMwQjAlKZYlf7MhfJeaP92FXLoKRVAEtknYO+6lr4Ls7fzj5BK7wrJAK6TEq3pNCxKNCEvulTwuWw4hnLF9y1p9xhKPtfwzqNWnPilz91pxrNPIp0myp03BAleDcA730+DwUuaaWNlzZqD/9+Z57zH9cpH28AMS4oEUcUw6CiBX0mWFPSHqg44jTAs4WHZOwhg0UJUZSkOAOBIhzkEgPnRFCoib7ODQLX3dqPkOxCmCUXq+j4HYGr1EMBUAvVmDK2pOsS8ACoI4JgBgriFku/BpEonV/kJD10bTfvJpe95z51Hf+pjK81E3bOoq+t+I/Bm1QA8UmSE95Hd6wDzHr3kghMfuu3Wk6UQy+xApaXri0QsBt+luj5KjKDQjMEGrtaWFRTX0ep/859qLzZZu5TnTPeFTBXaFh7dNQjAfQ/wqZjflOgtl9Be6IFvSl1u6EVOs4Hn1E6+dfDA9uwRQA4+RQAGsvEkmlJZmK4PQRliBlFsBvAM8iEodmyZSrm+ke3IwVx3yHtPvOvI0z9wN1ozzwN1Pf/sknj0O2R0++mf7m6lVP2zL7546O1nfeVDor397fD9KbavDCpKt4UBwiiV93ELIC40IJRoz5ImUpSc+0sArt71tBlJQvtC1+ESEGV14e4IZ5LNZ6rprZLw2v6WELYJkr4dpTxE3NJxYaLe2HNOrD0DZJqrwOd3qEum0ZjKQjg+lzjS4UgFHcoiShEvLI/yEXdTjlux2rense6A95+04phPnnG3lWl8juho/5kLIGoAHiEw6Da2fXu3z3jgp//3nU9ec92ptmG8SUmRqbY1R/G4PXlr6MceKNXZcRWusE+ZTb6HzlwvnMBnm5ykHDmF9nDMd4+AmEoSSbo2xJOojycoBgyq3eDQG+en6bg2Hz8BEJgBfNd3Yp7V7pnW44uPf9ftB3/5X1egvv5FIURhT072vvSsGoBHuBph3W5D50P3HHLzd37wXu+1jW83pJjO7Ixjc416bQa6xMga1wBmiW4Y6C2V0FMscOUReXgCvmOPAziajd0CMudrBwpNiRSysThkCGAaM4FXF0RqAJOfgVRq05QwytIpB9jWHYs9uN+pJ9985Kc/cU+srm79PyuL5ag3ydjs1X3/qRw2crrm3fGjnx3/5LV/O7lRYbkQIr2Hg6i7tR7DAZiqfkiFbu/tQd4pA4YBSijhGl9WLcZs/nfryUQC0JxII2PZEL7PFVSKTYyBACaigArZLuRldylhxa7kpdzYYYk1R3/ktNvedtppD6Cujgjx/uk4tXZrw4zZsu9jDw6lb1P7w/cf8duLzj8l0d5zdNxTU6Skqvo9du32WkQAjtIyqapJ54QIuJ6Pbd3dTCYnTYPVZyKRY/V/bONIuwRiSuuMSwOtqQySxJ1FZZDEERICmGLq2hGoQ24UInPIqWWaqJQdpQxRVqa1wTesB9928vtW7H/qBx5G2l6P+noiBRh9gH2PLfOefdBub5o9O5x982lKqQQKhfm3/cePTlh7640nN/hYFicyiT1z7bE1GA7AtPXzpTK6C3nOhaZuCFx4TznQYw/gXZLxxBGdMAxMqssiRuE4ztHWJNeaWbMfwKRCO1JyhhmlqZIq7bseeQ3LfiA3FaWx9vD3nrz68DM+tgbNzS9Q98N/FsfWHts8e2Yv73tP4VznYrG185FH3nzddy5/vyp0HSV8f5LlE5/Nbo93j87/YACT2qxrawU6u7tRdBwIy+J0SlJHWRkdfa7Irr70iGeLA2mUAGPaaM1kmHaWmCsHS2BtAxM/mIRnxThvjYQrJWJx81PF9VUOfGtb3rTXHnDaabcf8bHTV6EhRZ0dirv6IvvS5/boBtqXXmxPjUURJ1WxZ8mKC7/7npduu+PdZtxYWLFVMu5QquJuTd9ufXio92MydcqzZnI5ynvWFDdl10VXLgdqy0CuXOJg5iKKMKFkT83VCJ4zchD7AdKWjUnZBs0nTbRBVC1FOeShBI6+T1C4TsagKJRHUWLhgNinOd+c2TBNxw1iW3qUeODwMz5y0xGfOuNuxOMb/xmKH/b4JhrBIk6YW0Lbt23LvSuOuu2iK061t7Qf5cZVSyEhZIoIkykuuWvXmMw7eW45NyMImGMqMAy4ykdvoYAcNfCk0DRvfj3o6sKHXXuNXf7UzicuUAzgtrp6ULY2eaHJdcWgHALAAYimVrOYBNKFa3hwzQAiIG+2AUvFywVfrt/WkLzrxK//2/X7v/1dD4ddDveeDrLL0zX8B8dkI43BOMflkSR9Xbd98ZpLf/yel2649d1Z31hcictEFxnAjq4e2oVrlz40ku9hFZqkFBVNGPTHQsVz0NHbgwo7gTSAKeGzX3qN5Mljcs/rglj6CnWJBJqTdbApNdXTlVnDAZibtCginyfJ68MxPORiPgxhIO6ZiJUNVfFFriOVWLfgxGOuPeGrX7oFdt3LE10Kj9lmGpMl34sP1XW+pUlb71nz1msv+e77E109b45DtLhSGU7cgFnWzJC7cI3dnId0sRw2IpIAw0S+XGQAUxVSBODqc2cX32EXXnvIjww7g5StlkmmOJHDIo3CpxQ33VfJJ2bOPsIB7YWmg4kATJzWpGZTRlvFUszgmZIJmK6Ao6SXSyfWNy6df8uHLjj3T2hoeXSiJ3mM3WbaU0s8Ts9RSqXQ27v0hksvPfnVFXedmJVyvjRFwtPtEGBQS7DRh1/GfL6JxZKqeSjvmZp9UuVRb7EARYULoQTe3YKJPbwkQ4KY8qAb0nXIWDFYvu7uEAHYI+2iL/0zAnDk0NI50iStqasEFTwYnoQKFFU4qWIq0W431d35ye9cfJUxd8m9Qghqej5hrzHfUBNxZkKWjbZNq9a87foLLz416fS+2VBOc8FU0qQuAmT/7pr7dsznm+Qs5zjbJip+gPaeLrhBwA4trToPHMI4S+BoewwEMRHIK6C5LoskNUjzAw3gwOdiBn8IAAdhDnn0hlSaaVJBCWveAipuoidwULHNLpmyVp5+1tlX1h95zCohRPdE3KN9JtBEHvxYjT3yPN94wXdO2r7y/ndLo7LQN1TCN4iIXCHuGaANswvXmAI4CiNxyoNloKdUQlc+p2l0QuqcvorjMAki6ma4C++yJz+yA4DjCmjMaADD87gyieQuv9vgg0iRSt2/HjQPpE5ThhaDl6QxlXPaEsXA740l7HuP+/QnfzfntE/cCU3Fs2vG0J6cgV181phuqF0c07h+LJK+r95961tXXPDDU+q35d5cSKE1bytJm4Jai8RdXaA/ymvM57ovDiypIB7YTqmTngOHtf6ITUAnQNDmJtsxkNzYc5SvssdvHzAAcsRRlkymLoM4lWg6Hnc15MbhvlaeB0NuMID77qEMrcBnPjDucGGIoinw+JtOPunP+33trJsBULeHCcvgMeabao8v9Rg/MJK+111y6Ukb7rrn3Q0BFgaGSlCdrkdJTApcDrgLW37M55p7JNHmNi0UPAedhV72PjtkMXIblojpo7/cUMdVx/0aCOAgQEZIZDJZ2KaFwPO4FSlfwTAADt8jqrOOAEz+AM46YylMZPGGE3juK9MPOejG46744TWWlVg3kZM6xnxTjfvWGMUAQunb+trqlW+95nvfP9Xu7HpzAkGrASW5hy2lHg7BpjGCr9gr86w5nQWEZaKzkEO+UgKJFpLGoGZiIZkA82+F9cL7KoCz0kAmWw+LssmoPSmNPwQv27lVkGeX1TAAZo98COCAUiyptZTrbEnPmnX7id//we+yU2Y8IITIjWAN98lb9srG2ifffIhBkee5WOxYcvdFP3rPM7ffdWIqZS3yRCWRdBSSnkKZWCz6iu1H9VZ7Z56J7E0SIZzC9u5O3fGPc4TJFNRD4P9Xcp8HcINpMYC5NxSlUlKSStjlsHrmo/WgIocI2JEpwdKYbP+IXYz4sANi1Ao6jJbmu445+7yrZh506N0T2RO9dzbWqPb6+NzMzbVRmvzK7fe87Zbv/PD9cad8BJTT7Bq+kfAUYh6p0JpXmcBAzalHeO21OWZ10TRQKBXRletFwNlYkvsHawmsr+oqnl10xo3w1Ud8W588pf8gj3OTGUO2vp5bkJLvgXO3iT6n6j34LAoP1OEAHKWMkhOP+xVzK9SgK0ilVxz+5S//Zunx714thOgZ8Uj3sRv32ubax957h+EopdLIdS7/49mXvLfrkbUnJBDM9f1SPDCpCTUlCJAdFRKj76MABuU/WwY6urpQrJSJuhEetREOY8P7KIAH2L8RgFusGLLZeiiP2D215kCqtDFKAHNIjVJIw66L0jIR+F53UYrVh37mM1ce8okPrhQi27mv78/hxlcDsKbKoayryetvWXnsDZd8/9QY/MOtwGuUitpRU3K8VsMoBqw7zJMzaEQSeEzml/KcozYo1GWQ2qFwczLbRo/voaO9g+0+M26j4rlc2NDvqorK8LQk3rVs0D223Xfwn9EPiImjzY4jk67TEpYysbgv8UDnYfXYh5XA4VC5Kot7HbPczvdWnIeWv+d9Vx/7jS/ehkQDFTZMyBrhMdlge2x599KDSPq6pa3LbvzqxSdve+yJEyXceQlLxiURq7keXANwJRDzyQamGDANbPwAzFtwUDdB6m6oLBPtlTJ6enp0pREV7ocOnOqprPbUEl/0OF5DApiSONpiCaSTKd1sjZxXWpAO8JiPBsB0b/QHUJWS4z0/+4i3/O24M794rTV53tMTlXJnXFdvHDdO31dr2xdT1t557TH3XvSz9ydLzuFKuk0GPGkJAcsNUDEBSr6KU0rePgDgweClf1umCd8wsCnfi2K5pI1GipuSUyvKkR5gA2u1dC8BeMSRKrqRADwlkUYiHu/TLoi7i2zh6geNBsB+1INK73jf8YMt6Smzbjvh4m/9PrvkQPJE5/eF/TjaMdQArFSd19W13w0XnvveVx947PiMG8yNmTKGoMJ+H0rSocUPlOTUPMK79uiOqG/RmMxvNYBZfaZNb5goIcCGfA4uNQYPuw1y9wVKZIi80CECIk/tGAN4xMCNNi59IAaBack0LDs2AMA7Jm/0b3cKh9HFDq+wrQwDPiL1C/9mHntBlLSqAzK54vjvnXXl1COOI0/0hHRkjckGG+0pMl73h9J36pO33HbcqssvP8V1yoempWioK3vSVxVICjtBycxzAAAgAElEQVSY2v6imlJmuGCBPf4AJts36ufL4AwUuislbCHSunCEfc3TyP0WOn8iEIwxgEcN3H4AK8SEgRmpDEzDhOf7/dS3VZoEh4aqdu9wAGZzg+7lWmj9GZqXAOh2HLHq8DO/cOX+73/3SiHqu8ZrH+7O977RAVyXy+UO+H9nnvt+a83976rU2bNtCbut14EyfcAU6DJcxDwqFDdQkbQLxh/A1f17CcTk1HIdBx2FPLYFHixybNHPifuK0geZaiaMA4+9BB4peAfvPf4cOdsSwsDMdBaS2EM8jz3PkUYRfWg0AGadeRCAFZDzHDww85Pv//1bPv+p2xNo2jwRebLesADW0rd72uY/3fCOG3/881Nivn8IpKjnrMOqI3Gku3GYU3S35pdYJRl8Siu6+mEhsTn5dmiDk0dcSpQqFbTnelGhQqndOdJ377NDTlfkQY6kXxi75WESMMkMoEOITh3X89BgxzEtXaerqsboUkqVYVpPZ484+Nrjv/3V6+2G6S8IISpj9HVj9thxXOsxe6cRPViR7bv9tQOu+ea3Tik9/+q7DNebBSmpWe6evnZ5jocDsOIKG3JQGVCmAapRzhcK6CmX2Nm2y1+4e28+LNqGAXCI34EAJpW53iIAp8cUwBRVUqb9mpo349YPnnvuH+Oz5z8yEYv7x2mtd2+n7O6nw5znqY9ef/Vxd/3oPz7Q5IjDrEDVD+o3trtfM/jzo57r4QBMnAIBGXKGhLRjKDoV9PT2ohz4cMjxtqdHvvPnva6o3BmAFaVIahVfEZ1svR3DlGRqbAEshPKltb2nIXXnhy8897ctBx4+IYv7x2Gtd74bxvoOivt6m/6x3x8vvPi9W5567MR6R86NScMeO4VNa8Kjfa+dAtg0OdbbUyyiuzcHStYnythxuF4fwFW/HeAV1rFsXY1L/82UzwLZRAKTrHhV8smefyPyHXiG0dWVjK9879e/dtXcdx65aiI6ska9qfb8VO7dJ0Zx32f//Odjb/rJf54SV5XDEi4aw3LfsR7MqOZ7eABTPjalLJlcadSZy6FQKoHa2FMhw16+dvqFFM6Jrp0BmOz5hkQSLVRGOIYvQgCuSOQKqdT9h55yytVHnvHJ25FITDhH1qg21BjO5157NNm+pU3r97vzvMvet/nJx48XdjBH+Cqms6zG/BrlfEfutMFOLMlVRwTYguuiI9fDrVMoF3ovp0aOaMoiAEdOrD4wD5LApDObponGeBKNpjnmAC7LoOzFU09POviw695/5jevR0PD8xPNkTXKDTXmG3xMvyD0PE998qrr3373z359SjbwDi2ZTgPVeduBJn3bC9co5jz0QlflS3FvIGbSoMojEz3kvCoUdIyaW4+M4vG797Ijnq7q0M9gLnyllKAYNYFccuxLoCmVRj056HZvfK/7aRqHYynPhb0xM3v+rR/9ziV/xKRJD0+0jKy9ttpjuBYjfnTkef7d1896n3r2lePjrjO7lFA2MRbalGE14ift1o2jmHMNYCpFiC4mbyMnFpG2EzN5Po9CpcIOLfr57jWLGPF77fJUDQdgk+xfDhtJNKfTyFJu94iHM/obORvLJrJKq93ItN116kXnXpU5YPk9E602eBSbafSTtC99Qkvf8rRHrr767ff89L9PaXaCQ2NS1PcKT1DCgEH5knvvGtGXSc3eNoABkwDMcCbaHMdBZz6HCm184n0OnUFj/Bq7jKshDhdBtqgpqPsg1TxSEF6ipS6DujHtekoZWYokMOCbXXasYdXbvvJvV8569ztXTjSWyhFtpDHeEHvl8SR9y6+9csAfzj3v/aVnnj++zpCzpO/bfszW2T5j6TEZ/g1fd/6HAjARluvOCwa6C0X0FPNcxM8Or7EB8C4DNnrtYbUCVhkAi2x36n8Uku8RgFPB2HJ1UWpl2fQgy0ZvIt5035IzPvy7N33qY3cA2D6RMrLeEACOcp4f/t2Vx638719/oLFUPNSQsl5Q4xwzpsvVqHnW+F1DrsNwAFZSoqICUp8VdRwMTFMTypAJOXS/iJGs824Ddbjp2zmADQTcvAywYzG0ZbKIu9QsdOwuqgAvxxSsvCyKIPn4zJOP/8sxX//iTYjFJhRL5UgWduxmcS89maRv1/bt+//1vAveV3ro0ePrhTvHkcpGzCIVChZntzu7Eqrdk2+ww1oMB2BhGMhVKoriv8Q4SWR7Ho0kUKCu9vvaxU3UIvqb8G/6N9HHEkoNYpwk6pwAiCXiuqXoGAOYJHAlFiBWlG7gxF6uO+rIG08872vXJBobJxRL5b632nt49ymlbFQq0x+99tpjb/vFL9/X6jiH2m6pQViGcJQPQdmTxPwfnfe82fS08KYLOxBGzt1owqIyPC0lqmVFuFsHvYfOMxosUwZO/+BP8jj0BzkriTVksnWlUOS86i2WdAsVIi0PPVhE/rY71+t9mkLMOo67s+8Y+HtPkndcM22wtzmaBo5Z67RQ7vSoFBKJBFqpqbdTGcH3DHzTnY2q+m7y4hdthUQRgXDNLen9lt5+3Hn//vvs7Pn3TySWytG88+7si3H5LIO3VGp1XnzxoL9+9/ITC+vXHx3z/RlmENjMFKwCOExypotII9hS8ThX/ND24qZaeqNpN6++zzdMLpofrB5GPQAHvzB38wlB2P87/oY+zqdqADPdDRnmISB9Ch2pQAkzBtd30dnbi0K5AhHTfM80TOpOP1qS9uq8Dz0afVUnX0TjpZ+R/e0O4qXa4RiqmhT6XYmajAmFmB/A8jU5Ph9L5KOTgpgieb6JRTOVSqElVYdE2R2VR53rgEe4y+g+OvTytkTWEQgKTkeirfWuIy7+9yunHnrMhGKpHOk7j3Bq9o3bwlznBIDW4ovPLb/7d1cf/cAttx5Vr9T8hDTSBrUkIOAKicAUEESWRk4T1ug0fUtEO8MkapHkrBKg3ESbxbQGe7/IHnoO6Hnk9Ix8ZTqpgWXq4I0aaZvC8KnjrT4kIl4uKmAoEG1OPg9P+dy0jJ7JlTuGRKXvIBrZWvAZUXVr9N8Rhc2OT9Ek6dE1kBUjBObg/r1Uj0xzyv2K9D1c3qepquET26SiPr5AXSqFxmQK0hu7ZgkMYDI9LBPZwERQ8rrzplh16Jmfu3L/kz9KnugJUxv8TwdgpVQMQANKpRkP33rrstv+9MfDNj3z9EEJx52dBjKmUgZ1rCM7kvKISQUlL2gyZP6nsjYCLXFM8eQE/TJNS6uQ1yW036ItG/1KMvn7jtMatWXpBzABV58U3O9niJWghh9SmEyLwx0HJeBS4X4+xyCmdiHUQtSjsbD4FHBHS5ITUraGb9YHzOEyMnVfwH6XfT+U+7URfSz1vxBxO0cSUktxDWCyQ1mx8QjAQEwJNCYyqEvEoYKxAzC/K7FUWgYSDve7ynX63oOL/7/Trj7mc5+9DeCUynH1ao7s+B251jHS543bfaGnmaTupK1r1y5ZdfXVB61ZufqASm9uQcoMJtsSSdNnC5K3F/V7541E7I3U74gkKoHXMLiNBwFZGgbitq4wZGBHqrUAJDPqhBYwgzwiXhMDyNeibUydEEh1ZGcTY023wSTVkiVoKJGrgSxdWqAYd+TjDgNkt1Uq6C7kUPZdGNLivr9hAz7+XpN06VFcZWNHZkoG1jCXJEeZit4iuqla+Q7fr+pFaH6jqw+81KqGDyZq3k3qNZBSBtqSGcRsC17fTI3sZV5vzEM+gQ87hYQnaP3LHcp/dsq7jr7+xG/9+3VWqvXZiZJSOeElcKgux1EqNXnl8ox7rr1+2QN/+sMhm9f/Y39pYLrhq4xlSlsEvjAjCtawPJ5SErXLSsH0Pe2L0uw0uiNACFxK9TNNg72lBHACc8zUkjpix5DUh5aeFDq9os9Hm0cGmpRNK+nhycnBHw1+XYoTSWItwwJ6orTI9uVUScp/7skXuGk3NVcj4BIgBJkClI4YBEjqaMyIr+oDQ49m4KV/3zdiHqtnuiDlnuVsmGyieaj6g1j695pJkvwMNFY6xJijmQ7QiKsKig9D4t0mLWhSugGmKRHscEi8/isNH6qKTswdX8whzYtUdwW/RwUbE8sX/v19Z5/1h/TMuQ9NlJTKCQ3gUF2uR7E4Y+Pjjy++5qrf7P/c2rXLEp3dREzXFqggYVmGJF5helGd7EMVa7TR2FXFO4oALNVQGpOmNA1lygAvssnOYMG0NSYBmyS2kLBNE6Y0+ZkEbrpnwP/4YNAOLa2O099UD1vtz9aAJjYoMD0OqZu642BHVw9KHlH+GHCpYz29D1HnQEJ6AXf1008KTWnGXuiAGwYDoTN4aOCzk68fw6SxOIYHQbFzfjdSDyK/gaG1DzLH2bEWsHqckwGbLNJXsC2aH6399HFbK8GaQ4IAnG3kZ2jIj/IKz5mhTJjIEIo2PNVTu1LCCohnVKmilB3elJa7Tjv7rCsbDjh4wqRUTkgAVzmp2nKbNi1Z9YffHrT6huv297q6FsSFmGS4QZrJq4R2E+mrXy8kSUEkdRF7IZXgecbQG2Yobyw9jVRfejZtX1IrI+lFYRyLwEQS2TS1Sk4HBtncMVM7cogiFQFMaLXcIDUytLWF72k+KyFQQcC2ojAsLhPUzqsCXA7LkOjV3Fc6zkrS34cKPAZsRHoXOdp047MdL5PadfKvqrYCHU5E1+N7fDD1/47CWfS+1KGCDh0qoKAB6jRmys+m1kOO48LxPX5GOp1BZuZUzFm4ANtf3YBn1j6OtCQQAya1/CTieUFqOZCwY0glkoiDAK3fIwqlRY7C/rCeHi/1PuLzhVoeVb9iBObQydj3/uE95FdwDQlBvYcNiTzQVUrEV3zoa1+7csq7DlslROOEYKmccADuk7q9xRnP3HXbfn+7+neHvfrMEweYyp+RNETWCHxbsms5cuZGmzZUl0NVL1JpCaC+JKkyNMHqcBNU7X0dzPQYZkSFYSctknT1kAQ50Ki/jy3pvw3YQiJh21WOL60hsDNMSo7vMiG5FOjM9aK3mAfI4Ubph30ZErR5Ne05pXSYpgXf9+FTcgQXOSgG9FAXq/qRuTDAm65jz318VXRo+T4sYWm1mWxI0gCkwf2XKoGHoufxfyfrs5g1dx7mLV6EOXPmYNKsWahvbES5vRt/+OWv8PDquxE3ydeg/QUm5dM4DjLxJLJ1dbBovE7kxAqBGo4tAuIAzz8fpP3vR2PWrxRpCf0BuugAYABT/bRbYU7tEoKeomHc/d7TP3XlvA+dukJkMh2jlP/jcvuEAXCfk6pSaWt/7qUlt/7uqjc9uvKON1VyPYuShphkGiIp4UnfdWCIOINgx0toitjQViPgkV1GAK4YO09PqH7eUHW3fERUCwLWhEPVmGxWk1T3gFVJGgfFmOnvuB3rI3czLQu2bXNMlGxuUv/5uwwDWzq2s5eZqKB9UmElMWQClknNr00onxJTArbDE8kkx7m1lq438lAXSez+BvVV9xCRHh12ZBpwrjIp6SR9qT+n/jdR+LhEKp9OId3UiClzZmP+fsswc8F8NE2eBDOZ0PauEnDKFWTIni87uPn3V+OOm26ELQXScRuOU2RNJGlZaGqoh+ErxPu8/9ViVehODQN0An1AalVeX/pVowN84HtHnycNxjVMKOVQ60MixS84Sj528DFv//ORX/7sLci0rBdCUHrePn3t8wBWikVLHEBTadu2GWtvvWHZzb/97SHFjRv3SxjGDOkH1ErWJqXT4Q2s1de+xKrQUVWtCg/oLNjnBR75VLxuyR6btv2A6VP9mExcS3n2ZoeeWRoqpQHTuMm3W3Iq7GEmRTueSKCleRLmzJ+H2QsXAPEYymUHpUKBd6nnOMj15BB4PlzXhVsocfgl15vD1q1bWYJ6niZ5N0L/e/VupKHGA+r+p8NQOuqstz57CEg9J/OAJK9lIXBc7jvsJBNIppJonTwJM+cvwLxlizFt1mw0TJoEI5FEyXdR9hw4JMH5fXW9r3ZUmYgFHm66/jpc94ffg6LYmbiNoFxEUyyFpmyKvfU0RyxDowOwyqlY/XOaa74nTKwJIVzljtPK2GATghyY1HrVFz6PNTAk8eGvnzxl9p2n/sf3rotNnvYQVWvu64UNI9+143AOcSYVkEGhe9rL69YtufH3vz3w6YfWLLccZ15KqVbpeElLGlIqg1JpYVpxeD6lGVBmT7iU4absBzCppBTCCf2/YeID5XYM3tz9/x5imqrip3qnaQ8yHx5VVyQ/aAORHcuOL5bUZGiS+0qi7LqoeIFWsZMJtE2djDnz52PWgqWYMXMOmlqagWQSlLtNVTvC89k2JQHrVxwGG21kArGMS2zcsAkXXXQhOjs7WRMhDzrTtg66aGwxcjCFwkoDV4OX/3ATN+2Rp5AaOa7mzJuHucuXYd68eZgxcybS9fXc0oXU9YrnwSUvODmHYiYceifOEOMjC9LzYQcBEjY9y8W9K+7An37zG5heBSkoNNpxTM5k4VUqMFg6huAMgVxtCkS/Y2ASPU5ftypS+/s/R3Y8/ZtXO8qoC5/n+IAvPLjKJxNFCU/khIo/ufBzH73xg5/5/K1WKkUMHcVx2Poj/sp9EsADMqm6uhbe8atfHHD73288sGvb5sX1MXOyHbjphBKWcjxB7U7gkbMoCQlKM1RQ0umroeXc277p0AvpkZoZxl3JGWOQF3SQThz6iIedSLahB/028qz2Sd2QqLyPVJ2kvU+bOoDP7UoJ1AbimQymzpmL2UsXYvbChZg0awYy2QwqZorVz4pTgUt2HVPIBjCIL4rSD2HAJlcYJ0oo+GT6Z2O46Yab8JOf/kQXCoQ28HAvogxu/91XwxTNVySNDSlgw0CxWMTihYtw3nnnoS6bDbNKAziOzxqAkBqkgU9qrm71QhqAUAZ7z1nCkySnSfMrsE0gaRl46O5V+Mtvfg3R04tJqTRazQQfRA6r/xp0kbea3iFqJaPt3MgjpVCgZuaR/32w073KgdfPNU3rJ+EoFzQYSkM1XOEHFXPry3Mb7//EZ7504zs+8IF7AGzYlxuf7VMADtVlyqSqR6l3xmP33bXs9qt+e/CWB9fup6SYaZlmowhEjKKvLMVIGoU7k4Ec5sQHsj/RoFqwDlZ9+5xPlFkZFc9zHnAVAwZ5fEOFLOC0DzYMEeNeHQGHSmgQXFFDwQ9WRznG1Gd7kh3rugJlX8AhUCVjSDU2YAqpxkuXYtai+Whum4x0QyNnVTkhvxUqZbaB+YqcODQWAjFJNYoNk4rMP1Mw4jH0Kh+XXHwJHnnkYSRSqTCuvUO65g547utYGGoSpO6TbUh2NXnNy/kiTjjm7Tj3zG+jSM3D+1y+A7eQVsIHZmTzG5AaT2PUdY8MTitmQ5omfvzDH2LF329HYzaDpBVH1vfQVimgInyy+FljormWfgA7MPgZ9D2+IK+HgEeOQTIFeEzcDDiM7tM6RIe2znwjSiJ6HmlcBtMoBfANksQ6ocfwjbIDvBZPZu79yLfPvmXh+058EABlZu2T9vA+A2CllMXqMjCl57mnF978298csHrlnfsb+cKCjKsmCSGSOmoTeiXDfRDtxIHdFPqBrVXl17/05u2/kdmYOG+ZljcAJYCwzUmqVuhUilNBKXmHSRLQ5rRMlpa6oTS19Qzg+j6HVOiyY0k0T52FuYsWYe7C+Zg6Zw6yk9oQkF2rfNYciKCdwE+PoIQqm9TbIdRe7g/MINZF/KS+0n3JbBYPPfsMLrn4YnR2dSEWj7FkpOZm1fnL1QdZ/yEWZmOSgCS7nEBjCASU5khZYMUKPnLqh/CZM85ApZDvO1BGouuxZsL9lakiqeoTJvWbUrji8itw3+q7UZdIwJQWGgyJVpR5Lk2ucfY5TkwOQDqotTlEsWTdq5lWW6d36tgRp7pzJJmOer1RtNmkY+4EYr5Hmfz9VC3VB+CA01FK5Yp4OT135urPXnHprW3L9n80LPQf2/zOkUzmoHvGHcB9mVRACzq3zV998237r/rjHw/c9tJLi1MqmJowzUzge3bkRh2cPD8UOI0gzGMOM5t2BmCWGGQLhzfSSd7HpBjGZFm692UPUVK+/gdBg+OxLAkkKn6Asufyvan6LKbPmImFFE6ZPx+tM+ciU5chtzFIbpKaWHRdjp9SzFTvNgJnOJaw497gdSUAU5hIJ4roYgsCtJ1O4X/+/Gf8+le/Qjqd1loAJ1QQY2X/Uo8EwKSQaAI97Vk3Si7+/ctfwTuPPQ4OhbJGXPvTP2/VAOYIGJkE/+vtvuD88/HE4+uQNNkgYPXaEkXUWwlkYcAqO0h4FFcmUOqwGh0yrJmT+UNebiMEaOi07HPFhWvaD3DyOuj2NJQqoHMAdEormQ0s3X31v3qMlcsZ8rm2g5ff9a+XXfz35klNTwB1+5xTa1wBrJ1UhQZATH/+wTVLb//dHw96cs0D+xuF0qw6JZoSwogbri9JAkRpFroyR5+1tMn6UvLCN+GNQdKx6uJzeQgU929kknT90o4Wss/pxW5UrR7TZqPQjO54L+BR9iU1FlMEWg8yZiPT0oRJM2Zi3qJFWLB4KSZPn4Z4KgGf+hcFAPX+4dRIigtzopfmgeJwDWuKlFqoNYjAGLq2OAoLkfSPyh5ty0JPqYyzLrsEjz/+ODJ1dTrV0vd1okeVE2skACZN1KNkTjpUXJ9JDy4970IcsHQpnIrugDjSaygJzAexbcBxPZz57W/hxRdf4kQO8kUoGaAiK0gqoEXE0CQMpMlTT8kdBGE6WEK9SptSgBcCmOQ1rZVebk5u1SE7ehc6iAI+IrUEh2TwEhk+hRI5QkDr7ZKfwfYLgerukeKJw4495tZPnv21262WmeTUKoz0vffGfeMC4H6pW5lU3Lpx8c1//stBK66/7oD85m0LM8KcVCeMtOX6hkWeBU5G6M9o1M4nDWCuaKnq/8oTxiaYsYPePFRGVfQcvZT9mVhsD4dqmlZptVpMoCPJ5zgOKqxlm4glk2hua8XM+fOwcNkyzJw3F/UtbZCJOHthKSREe4LqT1325ERD1FoCldLRxZlbtNEoiYE3mYC342sMPJjCcBUBOZOpwwOPPYpvXHChfh5VU5GqHYaIqs+vkQKYtAuS8E6+iOltk3HZ+RdhalsbPHd0PcCGA7CyDXTncvjGt76JDZs2IRXTAKaDw6XAoFNBxpdoNEw0CQsJymgLKA+bS1F0AUnoQedCTQ4JUnZY2DsqTI/RNrPqA7AReqPZhh4EYNISyLeiiG0pnvQ6XWdbWeDBUz7+0Zve9aWvrkYs9tq+5NTa6wAOHVVJ5HJTHr93NTmpDl2/dt0BdVAz0obZaAVByi17Nos9acGRnijFfTpltTUTYYvL0sjj3L+nea+StPFJrdI/jzbuUABmAJEDShGtLFm7+m5de0voIRVPp+uRhC15PizbRiqdQuvsWZg1dxHmLVqImbNmIdNYz2qxS1KWVDqynsPsJ4+akXH5nI6rVl+kFga+x+mWuhgi4JxmUg3JqxwlWw38jOT4LtvCoQQnKpqf/Pf/xVXX/BX12az+PTvTon6GVfM0xKpXM2VwQ/PIHa2AfHsX3nzoYbjw2+cgbpjwKV1zFNfQAFYQ8Rg2bNuGr535TXR2dyFpxRg8tA5EE0QVW+RdjykfWUjUw0CjMJD0XK7f1tEEbcOmHJKwJEnBji0tYaMTXfuyIgkc2eFUAMJFIfxH29CcGUb/z/EwEN9YxRNqg0zE15z0f77598M/8qH7AWzcV0A8HgA2ent7szdf/Zc5f/vtlcv9rvaFLbY9yXbdtC1EnYBoEjDqPSHjtCZB4EgpHGkYXKLCyDKFpCw8kwrsiKSCzFcKdxAYaNU84bOqSxuYiwwYNKF/lGxHqgOmxSYPL4VZSAoScExLO5CEUE6g4LiBcJn13UKqoQFTZszCoqVLMH/hQmSnTEKqrgGUOUVqIOX0cjqu0ITktDnIW62jISQNSUD4fbnL2mcWShA+aUiF0+COPMKRvV+9SDrTq98zTu9B4O3u6cY3zj4bL23ZAlKntfdaq+DVmVjDJaFUA5jLG2ki6QAJApS683jvCSfgq1/8PxyD9jjRZOTXYACT2k+eYyMRw3Ovvoxvn38+N2ejvsa6t3FYeBK9uPRh+T6Svo9GmGgwTNTRq3HudwBlBMiUXFBeN5sm9IfMD44E0LNoEXTYjyui+iaBnGBai9MNwrUaTdoPC4CAs8iUNIyy6zqvVVqn3/fJs79929J3HvcAgE37QsnheACY5jH5j+eea1Hd3W1GsZjt2rLB7nhts9Xb0ZHt7Oycsr2za1J3vlhXcH1TeBUjVinKSsUxAs8zXcdNSaUabMOqV74bj0nTtCjLgK1MQRzP0hEVk8meA0V/hCUE0Q4Livda5C0GUHEcSIqbSjPwfM9VgqpvpecFgSpUHGnFk1bL1Kn2zHlzjTmLF4g5i5cg29wC07Z5wYtkN3HMk+SFPvFZdYuq83WgK/SK9lc8RWp7FIfuD7kMH3neEcAESq0vUNgqVZfGytWrcNkVl0MlkkNwbw2QvkOtuRoMYP4BZ4n58EsVfOqjH8fHT/swJ47srgTWAJYwUnE8/PhjuOh73+P2qJTtFRHdSUG9jzXWSDoK5SHu+0i5Chnq3mCYyJgWOZzgukXUl13ECKIU+lIkhXUCQOSb1p7qKNVVq22cRht+B4eqQkdJxJ6iHS18rCpDqdImYf2jbv6Ce75y3lm3Tn7TmyhTa6sQRLswftdeB7AWNuxlorARJfNGHicJlJJA0FjOOfWdXd3x7vZ2o9jRLYPOTtnd0SG6tnVa+fZt9fmOjiluudLml710vqszVs7lTN93pPCV4fsqLq0gIwxRJyESViBipiFtQwhD+IqBTJ5MSZk+CALXdUqOlF0FYWxPxBO5tkmTMGfZkvrFy/abOnXGtLb6ltYELFMSjWvBcQUlC5CkdoywkUDoCWUJGtrNulAiCnfoxdU2mJawWkL3C4L+zLAdi+sjJXBA+CXk62KHHqmahsQV3/8+bo8IFesAACAASURBVL3rDiTqG3dIG+TvHKrGrgrXgwFM7gdf+fAdl5kuv/WVr+Edbz0GpVIR5KMdzcX0OWEYiVuNslNSIJapw4p77sF3f3QFe+4NpvjVjjmtM1UfPPqAkzRQt4Kk56NFWmgUMaSVQNb3IbmSi54cOgE11YHm24rsYpa42v9Ac8qx4VDziQRzX0y8KhphBEoVY/HCNs97cf/DDrnrU+ede0tqRsva8fZMjwuAh1v8ENgEavpTXccWjdNAqZREubch19WTdYvFRK6jx+zu3G7ke3tlV2en0dXRmS51dzSVewvN+d58Jt/Tk8z39sYDx7cDz2O/rrQ0j5Tre342k81NnTt705RFi/6xaPnyrhkzZ6bq05nFsK0jCr25JX6gsq5P2QO66obBL01BanpkM5PdRnugf+H7EVNdqRQV+WsAV1XI8IdDYA/YtBH4tQ2nvakkdQNObSSveCKVxAuvvoyzzjmHq5UQo7TxIa++ta72yIebdgcJTHa/F3hwKhU0pOrwnfMvwvL5i1Aulyj1YTT4ZWlI32P5upiEAEzWUCyTxt9uuQXf/8l/wqLCB/LAUwEH51D7ITdZxAkWzQ/ZxR5Mx0HKC5CRNhqtOJpMAYPCAoFPifEsHeA5LNHZox++Pdm8bN5wwk54KET+kjBZJjQ++ipTGOyUqmoYQUkFPSUhnzjy+BNu+djXvnIbWqaMq2d6nwLwSHbFMCAP36NHFgpOLCg5maDo1znlcsLp6Ym5nZ1Wvjtndm7fLrdt3y5e27SJQhFq0dKlwQEHHVROTZ/emW3NtCPR4KBYnJbbvPlYp+ye4LreMillhkxsMinJaUZ5vezqkORXDtk1ovgx/z2wqimqRqpOFNEScdDUV8WYo3motoHZCRMmQfR54QnAmTr85bq/4qc/+ynMVAoBJfXveA34spEAmFNYKDxWKmH+rDm49NwLMKWhSYfBRglgql8mFFUDmJJeMg31+N1fr8GPf/Yzfg/6PkOYcF0HwiSNRidl6NChDvS5imqUyUYNEPc8LpBIBAIZ+MhaFpIxm9kvjbILy3c5EUTH+fUBUA1gfqLSCSZ08aHKGV56HbV0juLNnO5Gbg2vBGNbzjAefM8ZZ9x04ue/NK6e6QkH4J2BPPRyk1oe/dF+iQEaWRdAvIMNDbxuJIzDP7He3t7lnZ3t7zM9vMsrO3OkEAlDUcFEREIeJlrAZaVMgyzM2WV6m1BNDn8e+cGZRK0KtFTSGHnGdyioD18ycv7wC1QBmKQjHwBUiO6UcdGll+DRxx6FnU7DD8n5Bs3TLgGYZi2fL+Athx2O879+JhLC5Lxs8h2M5nIiCRwIppVlbzupsfEY/vMXP8c1N90EO5mAYIICck55iMFnsLnS4KqhKNxA8WiDvfR0mNI9isNOKaeCRgjUWRYyQiLl+Yh5PuIeEROF5k5Ipsc82nwokFkjYFOMWVH4Sb+VS55sCl1WvST9Ku07UL4H14pVckpscOqyaz7whS/desxHP0pOrXHxTI9uJUazahPwXqVU2iuXD922betpXrHy9sDxJrPHG0IQbQ45jqgYQUptxVU7oCIX1EAAa3DrKzrZ9b+iYgH+TRRzHjRngwGsE7NCz7IQiKUSeOzJdfj2eeei7DiwE4nhqOBeD8D626t5lfmsYmmDUr6Ik44/EV/51y9waIWlIxkio7iiXGiOcVMeFPFDx2N4ZeNGnH/xxdiwdTOPnc5ZyhpjbzHnQGvXJNmvkRHfb0qEtEMUSiKbi4pSPA9x10ejNNAkTdQFAkli3OCSSdLdlS7ptEIyhLAghUBMZj19H60sAZg901UHLmlQpleExWR4QnmmWe7y1Xqjufm+fz3/nNuWHf1Oypne657p0a3EKBZtIt7K7UcrlSN6tm77iFd2jg0qThuR4XBD3rAEMSSYGlUqYTQXA5wyI5igagD3ObG4DJFCZhJGMo7//p9f46o//h52PAmDwmNDP/f11lkr/lV3cAkhvaHvwa+4+PQZn8Bpp3wQTrkchqVGZwObnFytoGyiwCWpKZBMJvDnv/0NP/35z5FIxEP2EQr9Gew8Iw0jGtLO5o3GW4obcGWAZNFDpqzQTAXkkGggZ5nnwiKWWDPgEKMPlyuRYl6S/QmsWnOuDhEjaM5ozcddXcdGdnuZDxY+vgNfeZZVykv1asOCOfd89oKLbpu2aPHDQGLL3ix8qAG4asOHAD6cAOyWK8cFjtsmlTAEA7ivomevzVnU8TTiVGZJSVVQZE8mE5z88K1zzmInlkX1wsPnJw835gF4r/bC0tYNiN3kf8sZz/z6N3HsW9+KYneODwl/lIyRJpUUui4EOQ9VwOoy8Xt969xzsO7JJ5HOZFjy0mAi9o/hGESGPfc4S4scfT4M3wNlm8eUQtY0UCclsoYB06mAik5BgKb6ZCo+CZUaXbhCU0imTlWcPXIuCrCtbXNcn/IMaD9IVTGMQpcKXl5w2KF3f/aSy25PZhoeRSKxbW+BeK9txhEInHG/hVVozzuse9Om09yS8w7lepMlta8NM/rDDb7X5qzPiVWl3hKAKX86ka3DPffdi4suu5STFpRlcuJKVC87aDKHGvMOwnpgGEXBr5SRTWVw6UUXY+m8BSj25plja7ROLBJvTJJHko0cUMkE7nvgflx42aXsFCRVlQFLCRiUULML/Z24gIUTaXS1EZTLYLYRIBkEaIklUC90YYTNZY1EWaQoEqFLM8OsNvaQE5QjaqSQI4nmxiTmLUZ5OEZFJaJBUJIyX4nbLxx43DtWfeK8b99mphofA9C5N8jh99pmHHd0jmAASqkUPO/gjs1bP1jOF/9F+v40IkysAvBena9qhPV9cUgoZ8Rs/Pgn/4mb/n4rrGScLfIoBDOCVx3ylgEAprrkUhHz58zDReech9b6BrhlhzPKqrk+R/JdyiNSPSqaJ/5q4tYxcdn3voe77l6NRCLJKitni5F0p3gus5aMbqpjjmYPcWKAa4a801LzfRFoU46PFiuBBmWpBmG4brnomgkKOymT+NZEoKRFp4tL6rZO8uCQV1gEQaMpUPyfMsioz5MmHULgeXA84TvxWG/BkE8f+7HT/n7qv33+VlhZIoensq0xvUY3S2M6lPF/uFIqCc87oH3j5lOcYul4oYJZwkdsvAFMixSBmUIpsUQC6ze8hvMuuACb2rdBxoh+hgr8d+R+2tmsRiGlwSmW9KxyLoejjzwKZ379Gzodlby/7AGv9s/u7BsIBMQk4vMBY8ZsPPPyCzjn3HPRlc/BjMUhLQ1cbYuHbN3DGPPDfRt7kSmzihJsdE0/E/wRwOIEOseD6fpoMJMVW4rtrXZ8UyrXUYEU9dIwGwLPjRuGNALfFVKSm06YXG/IqTKafCXM2tWFJ0QfTHF5L2TAlKZXlGgvpeMPnf71L994yCnvXQXUETHe6Eq3dj6dA+6oAXigDRyH6y5u37z55Eqh9B4jUAsRIDFeAObuh2EiQjWA4+k0brjpBvz4v/4LRtzWPZJ2IPgZ2U7gJM+QWzr6hNZmBYo9vXj/SSfjy1/4Esr5Aqct7ooKTQ5gVlEp/S4Ww0/+++e45vrrYCUSVLanizxCxxGlhnIl1ShbxJDDSedwR50udEiPY4k0h0Tn44vAcIPudDq19vMf/vB9HWsfbX/hhRdaoNTksltJu07FdCoVUwVewpSyXpoiKwUSUhjE/muYlHHPqfdUZxEYMlBGzKfuWpz3KVQ85nQZwSajpf6+z5195t/nvfXY+4HYmIaXagAeCGBK4JnZvWnT8T2dXackDPvAwPNTVU6svTpfUbUR27VsJ0oI04Qb+Ljse9/FPQ+s4UILtuEogSOMVY8MuuFdoX3NmnkIZk4LJeYRx8WXPv95vPtdJ8AtlblKh+AxWhuYAEw8XtyWJQhw2Q8ux10rVyJZn9GFHlZY9hgBkIr0R/USlKAREupUJdVwqM73OOzFtdNSukEQrJ85c+ZtV175mxusQuHVJ55Zlyz25hp6t22PF7o6Zc/WDtMpFDKVfH5SobOztVIoZJxSOe66noVKyVBBIF1BDEoibkkra6sgm/Rl0hbCdn0YgRBOl3I2T54988HPXH7JHU3LD6I2LRtH+Tojvn2vbsgRj2qcbgyTQFq6Nm8+LtfR/eGYNI5UfpAdLwBrvVnXSJJkon/GU2k8/8LzOPuC89HR2wUrQamTOrGDnFhcWTWKK7pfkwqE9VD0RezJBc4962wceuBBqOSL7MDhbLRRJnJwGxsmoqeKLxPPvPQCvvuDK7B+4ybmr+aKsLBwgrpZhCVEo3gLulWHfPqj7vrjeoOHYaFAFX3XWfeWt7zlmit+/MObbdt+NfxIf+puT4+E6ybyxe76Yk8p67qlRK6n1+rs6jLL27fIfGePaO/tNHpz+XSxO9+a6+poq/Tms16hlPAc36ayOUcE0gv8rnmHHfro6eeev2rGjBlPjvJlRnx7DcCDpkopVZ/buvVtXe0dp9sw3oZANYwXgKlLokNUseSppegH9Q+qq8Pvr/49fvGrXyFRl9LFDFw7SwkSmrZ2NBcxSvL2p6wNfo52IHlOGel4Ej+4/ArMmjINTr7APaDYz8OlCCO/KD3Scz1I04ATeGhoacYdK1fgB//xH1xGSKQIHktK7UW3iHUztIlH+i3U7oUJL6uKRDgNkvOuFdushpC9TrF838c/fsbvvvyNL98JgMI9O5x44UFenZMfBYQFp/D1SFl03bjv5rNOvjfr9paS5d6c3b213dzW3m51dGxLd3Z2Jv+xZXvHon95z5Of/vTpz430PUZ732jWYbTPnpD3K6Wyua3tR/W0t3/cEOJo4avG8QIwhzRIfQ4L1MnezRXLOOeC8/H4U+sQo9JBblROThtdezx0A5XXWQrKLGOjV6uxUSsV33Mxf/ZsXHju+UjH4syUQfFoqgUmlXc0F1VnkZpPxPtcg20ZiKeTuPbGG/GLX/4Snu8zKaBmU9GHyXC9nIb73ogHLQKwLhgJm7+FrWGlUp2e46249KILrnrXSSetFkJ0j+Y9qu+tAnl1yi69gQEU46gY6QrKQbmMzvr6+jFrGF4D8I4SOJtrbz+qe1vH6WagjhEK4wZg3SpFq54E0GS2DmseeAgXf+dS3b2B+isRQR5JK+ZlpmSG0anQmnVVU+VGAHZdD/lcD054xzs4iYPoYIlqhDQCypLi2tlRXJLrpimZW9PdUO4yhYyIqP6Xv/w1/vzXa0JVWoeC+rmbR/4l1SUk0aZmdxb3haIDR/mu423JZrO3/fy//uvqxcuXPyCEyI38G0Z+Z1U+Pg3FH8t4cA3AQwK466jubdtON/zgGAlRDeB+s2rk67nLd+qOg5rqhza8iFn4n/+5En/8y59hpRNsG3MaIKmf0uQcY5urpUZ+EeBJ/XY8F6VSGTHbRktLC6ZPm4pTTjoJB+1/IJTjsgfaFtRUjVINR5dKSTTd3PnCorxmklG6aRulVlYcF5dfcQVW3b0ayVSKJXW/1jHy93DC0BExaUT50rxY3O+ZmFCCiu8Hzy9asuT6n/znT65rbm5+eqxDPCMf/a7fWQPwjgDOFNu7juru2H463OAYqdA0XqmUlrI05zNJK9tEe64H3zzn23jltfVMo8PdCz1NK8NqJ9mvUbtNJhgg+48yjrRzi/8mNdnT/NbEmxUPAqQTCTQ3N2PhwoVYvt9yLFm8BE1NjdzAnD4XldRFUzUcLc9w27D6832ljKFjLp1OYcO2rbj4u5fhiaefgp2mumDSJeJcTMEsoPwh7f3W5OxRsUH/3zKwdIEIvW8f+6Tm46DUx0BQYVXhwQ9++IN/OPO8c/+eQIIKD0Z3Eu06zsbskzUADwXgrq639G5vPz1w/GOFQpMcp1xoQ5ncIJsYLeKZNG5ftQLf+f7lzCtN/Y64gTZ5diNKH1IXyZaEQqXiML+UJoEn55bkYgTu5KCAbH0W06ZNw4GLFmPpokWYP38+mpua+H66R7d/0cRug69dAXAE4h3IBQ3BudFPPfcczr/4QrT3dHKPKyDGbL76wPEgDQHXc3TBRh8Njh4eJ21wx0nWWQaQH2gWD2423l0ql1Z/6StfufKzn/nsSiFE55ihai8+uAbgIQBc6e19c8+29o/5ZedYKDRLDlbu/WIGymCiHcqcxbaF71xxOe5cvRLxdGrAqLlLQ+gX5pIAbkpGxmSASqXC1LUxy0ZzYyPmzp6DZcuWYenSJZgydRpa6jK6RM7XHQ65m2HoleYkkj0A4CGrqsJiTLJ3ienTTMSwes0aXH75d1Gig8Ok8kIai+BDTNcga3BGoI0mgX4zwC7nE4bfgm/R/ZVEVzIRX3HRxZdeecwxb10lhJgQDbx3dhbUALwjgOsqPT2H5zt7PuoWS8epQLVJzlNkAO/V+SLb1PUCxFNJvPzaq/j2ueegO9cLogRiby5zo4dd/EiVJo+JQyCkrvcC8XgcUyZNYdV40aKFWLRgIaZPncY/J89zqVJmlkmiteVKoLB5GGdCDQpHDcHisbO91ff74YgJuOaWW9PoLg3JdBp/vuYv+OmvfgnftrgBOmkPRET4/7f3JXBWVGe+X6339soOsqiAAi5ARFBQVFwDLiAGEQU33jPPJJPkzSRqXHCJMTomRmPMGDOTzMtkMsYVlxH3JUrcUJF9B4FuoJtueu97b23nvPl/p6q53XTTt6E35NbPFrhdVbfqnPM/3/7/AEKW3qH/jOGZ5kuzhOKWAwmA+kF5oc4NyFH6JzxZPmzw0e/++uFf/ufIkcP/rmlaTYNJoDjaFHu/cjq1jTc345Fo/xM7dUG2/+O3/x25IqmubkJtReUcpy7xTRnIIbqUZpcA2LBYIoJuZuGLL9Dj//oEGTazPfE65p5NUlIqkeRCe3QE7FFQyCA94YQT2J4dPnQY9e/XnxkfAWzPcUPuqagly95WrIi9qqZpYeZSekF7miRuqwrdEoChKXAZX9jtAs4tfP/j//4HevLFhZQbzyXbjrFGgWdj4sgwUAY7V/1bHRYalXPnScVIqZg8wMfNJoXvptziU8ed8vpvf/2rp/N75n9BRGgbahFVxCiZU0DJ6p6u60qvoM+evLw8tFDpls3Mmq74LID3lcC5Xk3N2ER1zaxkbeJiGYhhOlrAdIEK7RsG27TO/1TIoGHZks8+YxYOKAKpVIpTHbHAe/fuRccccwy3//zGiaNp2LBhVFiINEVJPjzIkEy+z8kUAD17ermrOJMrc6tSk1uWKkZI/B7nt9fRIjVQmOsN3YG/UwQUj8WpNllHP3/sEfrg/cWUX9CDG7QxZW9k/IaUsA0kgmmbi1KeldMrtCawQSTrXWf1ty7/1gt3/eynrxFREZQXovq+tLt0wNZlGwbv/HL5gC1lxc60b39nRd9RJyJzak93b+6N+ckCeF8Ax71E4ninompmbXXddE3KUbqU8TQAR3ZVh48dREBuQT6tXrWa7rhzAVVVVTGRfE5uDvXt05dOOO44Gn3iaBp57AgaOHgwFeTmcrojnE9s+zKVjMYFCA2d7KMpD9uywGWrPL1he9bQox3Zju0B4hBOoastnb1ThcmiWtyI0iaem0NFZbvogX9+kFatXUdmPIc00ybH98i0Y7yBsUWM9wsddBpz10LiqmxtkAfDIc99IpOpmsIc+/O7f3rvi5OnXfQl1dWZu1evGLJq9dKhZavXD63ZtH1woqq6Z40hK869du77k6+9/g2yubl3h1YStcfYdvgibI+H7Mx7SCljVF8/MlFVN6OysvJSXdLxugzAuMahTD5U3V70WB0yhrhpUkrKLyigf/ntb+n5FxbScccfT2PHjKGTTjqJpSxAzMkVHrpCCJJoihamRkb9hJtzQqWPJxqJdfTRXF1zU+mZ7pgCBHMKcmnt+vX005/fT7v2VJBhx8NeWMo+R2kiSH7x+NioLBHj8FOgIfkFDSMD0gKPdN+ReipVf+qJJ6666+Yff1S0YUv50g8/HFhRumuY6/mD7GSqb14qKIybulmvU4UYPPCDGx+4/3l76BEfEeV3eyncIYuvoxdER96fAVznjqivrbykpqJipvDlCboUuRpXmavhYuLxtK7vHaXJoFCtPpmgZcuWUzwWo+OPP54Ke/RQPMfc4gQOKGW38nNxD90DH5392bbNgfDAvyncB1nMN3MXaAQUUF5BD3r37x/Rg79+hGodj+y8HM5Iw2ZFsIlJFVzoSJkU6AvP2dAweZmRI6YFaDgt+1qmd1y/I8r6W9YuWVbp5/lB35Tn9xa5BbmWCCzd8xFr0zxDq6vPy1s56corXxh/1VWLKD9/c3e3hbMA3leFjpHrjqgu2XNJsqb2Uj/wTzBQ6K+6Riv4Nl8w0P5jaegM0px4nCyUEXoepRynAbRK7YUTSMV5kbCfXo2UibOptTBRc/hqjxdtmhySPg0gygd5HNxShX360p//+lf6/f/7E3uqTcsm5GkzXY4uCIW6uhDcHxhE97GAqIduUL94LvX7H9pasFPaQsgcmNiO44HSX9ekJT1pWr7NLSENUHDAGeh7fkq3dxSMGPHWVXfe/Yw5YjhKAbt1uKk95uJgN+JudT33LHacYXt2lU71k6kZ0hdjNCkL0XQYfa6UbcgobrTmOuIlOEZqmsoJFSZVwGMLjzIkL0JJUAyYI5o1AlTk7IVcdwdwS2PGLWgQ2oKajEKKWA795okn6Jnnn6P8vHwywavlu1CPmRUDIA4KBJk5Jg0w8miwmUN9pUn5TkB5jk8x2yLHT3Izb8/SqB7SWRpUWKNTkK9RSoIqSLm/hGfU1OcVfn7a9Vc/e/K1V78Jh1d3DitlAbyvBDYpmRywZ2fpKV4idZ5lmuN1KY8IZBAXUjBhC2t4XDkA2hWyNZLoI9C2Ep0MEI8YKIAKwILxHB5keIejLgMAL0jh0BkRsEWqZEtHS5p1S32To/scrATmBRbeJH1DiWzetO2m4dGRz2yAfhY2rW6RmZNDtfUOPfb4b2nxe+9SvhmjOMjqdI16xG3qkZNLwyhJhTpazqBBGkwMH7ueKiNEoQeKKJCkgrg5aprRJC2lUXWepCR6sVBA8UAn07W8CmlsLZww7rVZ9yx4vqBfv2UdVfSQwRJo9ZQsgPcFMMYkt7a8fDB54kQpxGgp5GDf9/J94VnCF3oQCE0EgWVoWm/S5BApZH9D0+Jc2JfODNfq8O//BNUrSHXbi7r2seTnPGIlfSE5VEqloqJpK4Cj89OJ3ZsCrQGDaaslvedTc98ZMWoCGg3tTbDvhZoLJ4qxNhN+xloEBhBJb8jVTjCXFniisXEV5hXQ7uJi+vmdd1LdngrqlROnXrm5lG+b3OOoh1NPpq+aqeM7lJdatZjFOKquKYhvq0w1PZCU6+uUsolShiDPEIqojpsv6FVO78JPL/rRD58detY571BODmhxumXedBbAzflQkDqJZFyiXp7n9Q8CrVegBTHNCQwnCHRNCzTheTHNk8NSTuJ0rz4x3pA0QEfJOrejDLMMwjzdSMp0x8Fulnu6SdIGJ0ClFcozw0V4DhPANxHTzK4R8inD1RRHSAejIhTxnOouAaDi3yoBCkALfOgxoAcKyJNVlGvHmMfZq6ymHevWUvmmTbRx2QqqKyunHjGb+Z1NptJFfjc4sTL34KmeSDr7JYHMOuhRWkBoPtsjpTmuDDYPOWvKokm337LQ6jNglaZp9Qe5H3fI5d1xTXXIix7ITZu0QW3SX4ls8mhYXWX51Oqq6unCcU6wSM+NSOI4TegQBnAkhaMYbpRejL5CKVPRrto+MqCIewulN15DSJb7C3H7UyIzJclCUT3KCNHtAZ7zkP0DoGNKPvweHSdQqAF8l5dT2fZi2rh6HW1bv4aqdpWS4biUZ1uwWciQglw3SbYJpi6Ekpq2ldv/jGPhA8Bc2YR+0Uhq0xAPF5QvDeEKuacqJ//vc++955nekye/3xJ7x4Gsq/a8JgvgAxzNsGi7f7Ky8uz6qtorU/X1k7Ug6G1GhFGHCICbJY9ngnQ1MFGUuKECCGAB+MKuftx0La31aXQe7EzFEkkUE5ZKjEK4h8ndUX4Ptd+nmGFQDngdwa9cn6AdRdto6/oNVL5uE+3esZMSdXUU13XK0XSKwdOO/r/shABDJrqJopwSWWVIMc18OeNMpS2FNdXcDwkJIJJpaH1ByUpprBkx9YKXLrrppv+mvLz13TGxI/M3PsCF/nW+jFux1KXG11bvuSJVXT9VeN6RBupmwhTFQ0ECt6TeR5832LKhpDKERgUO8oyJPIPI5R/VilOBgsgMCKEbinEhP0Bsc9fEwIBk9kjqAVkxjSy0CauppeqibbRz5WravWYTVRQVUbK2niwjRpZpKIICJKf4PhlmGDYDowfsWMsgL/DIFx4ZFGf7uS2HCiko7zN7+nUQwqProSTPDwLhmiXagIF/m/XTu57rM+Gkj7pjemUWwG2Z8X0dXhwz3lNWNl2k3Mv8pHuiLiTq4FSm/SGgQrfm9IoAzNIYqqvQKQfRVE0tdqjI+Dt+IhDDqYQfdoxB8hqwLCVL0TxUFtXWUNXOYtq5aSNtX7eGSr7aTKnqSjK4g4Mg24SajMwqVZCPqiSGrpQqiYPJ5WFnR43JBNkCzqw2LmfVi4V0aRA83+hjDGdWYBEFSZfyKLe+joyVo2Zc9MI5N31vEdn5m7pbYkcb3/ggVvvX8NJQjT6iqqTsgqC+/qpUMjnJEFohD+ohDmDefEIVOPLgQv0Fv1Vc2JxzDDCphmAAr2oPxsoHVFz08UVDMcNkVddzHarbXU671m+irStW0O7Nm8itqOIm3DmWBo6CkB7XZ4ICPUDoBw4qlc+tKqQUOwnqm/nPsHF3ABkfoN9y25YzVGbIXkNYbMujuyESQlKWJNP1Kd+3/SRZO7QjB7998U9veab/6JOWdLfEjra98dcQhAf7SlLKXm5V7VlVZWVXB553thlQHyZlSwPwwX5HR17fUmsVlrhhdRJzRoclhgjDGLrF79dQBAG1WezTogAAIABJREFUE7xcqN3ViGK6TnGULzouVeypoD2b1tL2VWto84aNlKqsonigUZ5ukMUhMkTWQXOnVHJIQNjVOchuTFNvG54ztHSVc22vyoy86ObzMpsfPZbgiBuDRD6w2BEHCexY+AnISHlUGNgUkFVTbelfjPv2vGcnXX/NG0TxbpXYkQXwQaKD64frUxP3lO66SqTcbxpSGygCYUR0w20UCgf5NG2/fL+F+mHXBgBThVGV6hqSxPGXMZ20rlEMBAKaxv2H3IpK2rFxC21csYqKt24jr3QnSS9Fum0x+4YimlNk69wSFA3EQtpaZtxAj14UJISD11D40ChkBUeaWr74v6cjwSXzMBLO9XXBnmgA2JRo7C3JMSV5mscdDPMCEAJYXrUQW62RQ1+ffec9z+ePGPFld0rsyAK47Wu+0RUSpYaed3xVadlM8oJLE3V1Iw3S4pH/9lAFcEPPJKRzQkqFrV3gNPLI4eIK6NimiZLAgNyaGtq1eTNtX72eilevp2RpORlJh2zkMwuXgR7EdAoMXdmaXGivAAz70/Y1sgONQ1MIQ9XFFOMGbxzRRpIGYC6TDPGKc5KmrzofZng0BTA80ngul6sjfFapY76kwDCkI6i63JRLzrnxB8+Nv/yytygeR2JH+xVMZ/jMzZ2WBfBBDB7biWDrIBrslFdPra+umuOlUhNkIAoUk6I6ujOIm1Oh8Rk4tgBabrfkBcyvBSDrCMIWCLKERk55Ne3ZspW2rVhFO9dvpIpdO1kCI6VTh2caHRzABQ2QQ+GFlBWQeigYCsiSBhm62dDYDCpzQ/y5hZXZANowQI3ToEgnTcFOtkwPBrDpke2ZpAsbPDrkszcdNB0ex7Vx3xTb94YrpfwqPmLMa1fcu2ChmZOzTOvfv8Nbh2byLm145Uxud/idw+WHREeSoPPLN2+5PHC9CTKQhekdOw5FALP0gxc4kBQ3LYohHxvRnGQt7d62ljat20DFG7dQ5c6d5NfWUq6mk20QWcwRD8CGNilitdJAKjdyFLkdZ0xXbdJUVUiUTKExAOHVxgYCm7RhCwyzujCOTYWsCgKB/q5tGyUAHBge2T4AbDF/FsJI+A7bc8jAd5pEDgAcaDImjcqyeMEnl/zoB8+NmDz5Herdu1vQ0mYBfIB7Tih5ETIaULtn9+h3337v3GMHHz1l4IABx7jJVO4hLYEhfaXGZAGWZpBwXCop3kFr1q6j3RvWE23eSDW1tQQK+ZilE2QoZ0+Rz+Ej8DezZDR1CoRLws8hy4TKHbDkRfojNjh0ecCJsHeReonevvg7pF++GzZaC4GpQlVpk9Vk5erQu9uQyIGdINA9sgODAZwyDFbdsWkUui4FRkCuLsizDTJ8jXLrhVOeX7g5d8zoRfNvv+UFGmyu1LQjujy9MgvgNgI4Dbh9UqnUke+8987xf/r3P43btmnz2B/94P8ePe3c83qlqqtjutB0cBhjYboIrzQk9e/9wqaSuakFh5RFppnhrCeNf1i1C08MQukV5R6jDC8HRf5hdSHCJPx37p+kqRRG5sNSSf6QgA63o4cnVlJMCsrTQKlukFNTR3VFRbRt/Tratm4tlRXvoER9PZlBQHm4xEShQdjDiL3uDXWWzXiDIznJBkUjmKW/c5QmrYoaOuPAN4aFD2FGFjvmVDa7Ir4NCyM0IUXKlhVOgfXR9O/d9NxRF099jyinpKuLHDpnnDpjLjr4O0LggnG8TzKZPHLx4sWjFr648IQlSz4/Rvj+gOo9FXlzZ8/JueX//mNhqrq2UAuErZsGB5NcjjdGVTmZAxjSKFIbAVw4WgDeSI0Mwp64rHoC6EJSzFcxUi6Qk6r0EIkPnMQoJSdJoNQOYMZ9rDjitAbZ2BiSCaraVULb162nrWvW0p6iIkpVVZLp+5QXs7g0D6wfKD/I3F3UwRPTSbfHMLqml6o2xIYTzpz6ytSbbn2RevRAexawW3bZkQVwK0MfFjRAVe7l+/6RH3744ajnn3/+xE8++WRUXX1d/9y8fJFIJsqPO2ZkxQ3XXBs7Zew3hpPjDRdB0FPXdR3hEng3oeBxoXra0ZoEtsLwDS6JPLGqykdNW6TyRR35AHDbM5iZgoFvIgFCeXuY6k1KbtKtSZ8s3WSCvLy6WqoqKaUiOKPWraXtm7dQXUU52SQp14AKDckPIY3aWmwoGvnB4QZfNWmuGYikSWV6Qf8PZtx6+zNDTj99MRGVdyV7ZRbALQA4HbjJZHLIypUrRzz99NMnfvrpp8dVV1cP1jUtJgJZ0XdA37UzZs5YNufyObsGDRjQt2pHyRlubf0ZWiCOJE2zWwJwS46tdGggFhlJ28j+a+ppTSeH8zWdHCajUVISzBWo2gEDga0r5gobqrTrUE1FJRVv3UrlSz6jsi1fUUUVOm0KDukgwcJmtIJrStUdG/Akw77ldMaGJqbR+jksEC0MZGpRosY1Vo2dPuOFC374/f+m/K5Nr8wCuAmAm0jcIcuWLQNwT1i8ePFxqVRqiKZpuUEQ1OXn5G47adzJK7/3/e8tHT169DoiqiHPG1RbVjU1VV2FmPAYSZSLlQ1VGGYoQijRkRmA09RleEMBsSj5KLQTuRIorAjyNI0Sls3OIgPhGkmcYBEzNLLQfbCqmnZs3kzrV62iXdu3U3lpKfWur2O7F+EemMXIO2bsBj4nbEDYqwoj9A5muR5W/mSsNX5twC1Q029bfq2j7ZQDBrw1776fPtN79OguTa/MAjhchyFwYeP2Qljoyy+/HPHyyy+f8M477xxXVVV1lG3b+b7vJ3zf3z5q1Ki111193Yrzp56/Pjc3FyThaOCMuEn/1O4959dWVs6VbnCalLKQUwUNqLJMEZHxqseJyO/lah721KqCAXa2hj2CcEu2jdk+FpwkkYLXNBCUayG/V1KitJwqdmynjUuXU8nmzVRXuos0J0V5usX2MImkavDNNbUB07WiKyE3NcU9VbW9Kh4IydItwYnLB3Ic0mBGSinza5NdU07a5+NmX/bc2d+78U2KxbZ3VWLHYQ/gsCABwO1BREM2bdo06sknnxz9/vvvH79z586jY7FYD13X3SAIdhUWFq6eOXPml1ddddWaQYMGAbjocJeKPJHIiw6qas+qKCu7lhx/ipSyt8r1RUhE1bA2d0QUtRElDhxMIGO3fW7JRELXyINHmeOUqmUo9/UN7WpkO4F2BhWxhvDJq6+jkm1FtGn1atq+YQMlyneTX1tPtggo3zQprkmu/NE1SQkU2aOQXu0LTN3D9D0q80pZ0FCboT0ws+7eDKgDQfCh7P8yNBRSYJOzvJRubHP79319/i9/9nz82OOQXtnQa+kAx+WALjusAcwMlAq4g7/66quRzz777Oh33nlndGlp6fAgCHrbti1TqVSZYRjrp0yZsnz+/PnLTz755I1EVIbkn6a7LuqDyfFPKysqmhfUp843DGOApmm6B1W0oXR833mKeKajpmKgj0UyBPoDI8ufASx8cqXPiQ+mqWxZZDwBtGYgqL6+niqLiqlkxTLatnUL7SregY4EFIO8kD7lIKYrkQUF1TrsaECCKu049xBi73ZY5K7s7r20m6pppzr4b23UJFpyMxzQiu3CiwBgvL4IhAxMs7rSNj87dd5Vz53+7WveIooXd4UUPmwBHGZQDSguLj7h1VdfPfmZZ54ZW1ZWNkLX9f6apqEov9L3/c3HHHPMitmzZy+fNWvWOtu2dxBRbUs1oVLKHPJodOWO4llBMnmJ7/rH6Loei+xWNJqOjvSBbySBwUSJdqG6QbUGYroofNcVoAOkMxL1sGxWj52qWqraWUJFa9fThrXrqWr7NjKrSskEPQ04lA1UEUGiqqRi1XIEf1fPAWXQ0fMI8WR4mlV+MVpQ7I01NyqR51RHJFu0WxrwIaVSMwkpd211kW7mulLbGht65GuzH/jZwviwkV3CXnlYAji0dwd88MEHEx5//PFzV6xYcUosFjvKsiyEixKu6xYVFhaumDVr1ueXXnrp6qFDh24P7VxnfyGDMFY8JFFePtWtqr8iUVs3QdO0AvA8QZ4FYu/C32fgQwnIDbmhsgaCHN3lbCawJcZBPQOuvUSCanbuom1rN9C2NeuovHgHJSuruZSvwDIoJp1QUoa9y5Txzd5jdkSFhfc4if/OmaCKIgdYj4oE0gsF0oUerkEVTzsehwyIA7SJRnGz4ZHhCykDWZWI5y6Z/O35z42+Zs7bRJ1f5HC4AjgvmUyO/tGPfjT9tddem9qvX79jhABdbIDMmjWnn376FzfccMPScePGrQeZWaguZ0QrynZwbe1Z1SXlVweONyUIgj4wHEH/yl7dtCMafNi0oGQPGeMb2nvqlk92zCCZcqhmVymVbNxC21atpbJNW8itqibT8ylXapRrWmShvYoIyJcp0sBgERGVC3QfFCRRVBAmfECqR9lbKKczxN7ETwA3+mkOpArA7Yq5dr1ZO24s+9wKxD26aZI0UmQmfSS/uAkyv8odO/bVi352z8KCQYOWa5rWqUUOhx2AQ6fVgMWLF0+57bbbrqitrT09JycnP5lM7hw0aNAn8+fP/9sll1yyLPQuV7eVQgX1wZRKTdizY+ccw6epyWRqsGYaFjuemmTiK9mYplQjBhuzyTBNSrku2UVbqGr9Blq5chXt2rKFnOoa7gUEWxZxWtNCvxCPJSuEM8tFAwRyUhHNwYXMaVoIY6G+SNXQKvdXmOXF3JHppfGKUSMKc6XzO6ussL11uO0AlkMGvHhXTzMpsHQShkcFSYdinpCub1RUFPb45PTb/unZcRde8i4R7erM9MrDEcAx13VH/fKXv5zx1FNPzTRNcyRJmYjb9mc//+d/fvncc8/9gIiKQ6nbZl2RbWuXRtaWlV6Sqq2bITz3BJ203ED4ioUdkSEORXCChETJHihXY5DSnqC6qkratnkLbd64iaqXLyVnzx7yA0ExA0UDYcw3pGJl9uooPozADxfDo3OfCj+Ba1WXsINVlj5n/TITozpUVFd1701fCPBCNy3rS0fa3jaNBw3hLgWwyoJu/uDfNHk6lBzCnxGYkmx4o0G2J3WnWjc39j5j4iuz7l3wkpXTp1M5pA9HAPfcvHnzpH/4h3+Ys3v37vN0Xe/pJBJfTTjppFcf/e1vXyrs3RsTcMBqUEQ3W1dWcUZFScmluZo2UfOCvqTpMZ80kB4bUgbsD7FsNN4KqKasjCq+2kLbVqzRdqxdS4nyCjI9QYUI94SFCPsk/TdZd3sXo2psHRnCrSCkq+e/SwGMza05kwafNUdYD+cfNl5fMyhpIjavUYwJumS5NK2PL/rpT54beNYZ7xP17jQp3NUTeNBbeFtuEDqZjvrDH/4w9ZFHHpkdj8fHQd1JJhKf/uP3v/vst7/3g3eI6KDrPKWUuV5V1ajdJSXnCiEm65p2jEWyb56QBTm6ERN+YPhVtVS5abMGm/arjeu02upKStbWEsSslRNj51VO0uPyvA46unruO+zFMh2v9Gw4DMb+CD3we4TgcMBr7xrQXZAnjrJImfJM2th3yqmvfOvuu18kq8/qzipy6OpJzHSs2+U8ZEZVVVWNmz9//qyioqKpiP8KIUp69ez55iO/fui5sWNP/rw9AvK8USQS/ROVleOSicSZOtFJOb4YRlXlfcuKd+ZtWrHaLFq3QavfVUp6ytFi0KxZFQZNKwrNlQrLvMrt8uYtCpr2v3vmd+xWAG7tsTEPCOMpv4VOLpySMFdUQxfh6bKsrl/PxbPvuuOZwePOhBnWKUUOHbA+WhuKrvl9KH2PfPbZZy944IEHLiei8YZhWMlkctW55577wkMP3f+KbR98Q+e9ZYfOANpdN9bZufPMHZu3jt+9ZvXRJeu+7F1StDPu1CWMuGFq6DgQR39bpmFVVUNI6kDWkwh88m1btQ49+KNdbnLwj9HoDt0KwJmwpkDagkpIFwYT2sP9p9g5JUo0E7W5OauGT5u28JIf3/wK2XancEh3x4lt53WibocsqVQqddJ3v/vdWcuWLZtmmuZRQRDUGIax+JZbbnl69uzZB7xrhnYvkqLiRKletLtmUM32rcd+9enSsV99vnxc+bbiY7zKit42JeOaaRpmPKah5M9DRwEkW5BkVkYTlK0+OI6hSWtUaytCgIOcpIO8vEOmg6ekw+6c6Y3TecvUKkm7cq+nPvpQJbhgnlT6qXJqKfJ5Q9f9Kj/Y4ffr/9acO+98ZtCECZ3SHLy7Tm6mU5DReWHixuB33333vLvvvnt2XV3dqYZh5Lqu+9XRRx+96A9/+MPCAQMGrGxrB7q0Iv9Ccuv7VmzfOnDj8lVHb/j0i5EVmzaMkGU1Q42Ec0Q+GYU5umbp5Og88dxiRCOXFBUqCgi4jC8gsnzJzIz4Nzrm+SEjREYv2vxJ3XWOuxzA6bxl6UOn+iUpZyDi3uwgDGuhoTRbAoozCIQghdFkzSHPSVEqkNXb653PL/jODc/OvPVWNAfv8PTK7jq5B7Fe971USpnned7o++6777KFCxdeHIvFjpFSur7vf3bFFVc8e8cdd2Q02GmSFtLWdqp396wo3TWofPW6o4uXrhhetHrtsFRJ2ZF5Hg22NNHX0GQ+6dLSSBhI4RBReIcfMQz1NGzvTWPCWDZtIitvHFbeOwzdcY47DbxRnvk+qwLsJBIjHNHnoOMpMq3QexkZamHXiZCkD79LWToFSDd1BbmeS67jUr3wKPBd0rmFquUmhLXVGDX8te/+/tGFAwcO6/D0yu44ue0NXkQE+i9fvnzKzTfffEV5eflklAxqmlYWj8ff/dWvfvXXSZMmfaxpGiraWzwUeCsLqNYcmNq6Y8BXG5f13rR61cAdGzaNrCreNdx0vMF9Y3n97MArFI4bN0hayKIIuIIIqYyIu9rMg8wdcdF6RJm9jZIm4BhRuRf4vd9iBdM+ut7eD/bVA9t1RNvlZt0CwCb3FFaqM09FA/ulCtmjRhoH+ySkoErfoRSaiDuCpBc6tLCVIzYsPTKkIcnKrSx23SWX/eQHz1147XfeDqMa7ZY83nT0DwcAI9l31KOPPjrj3/7t3y6Nx+PHA4xSyo2jR49++bHHHnuhh+I2SrUC4By3ZPvwV/7wX5NK124Y51YVD0xVVvW1Nf2IAsPqExdGruUHlhH4RtSmUnUYUDW8zK9MceZGhnqsiOrC7n3hLOA8qMz4E7avhcbVrZuKh+IcdjmAMWgG+DSRdRZZv2HdM+fASEl+4JPre+R4Hv9ZI122e03UUqOZGm+2PgUmaqU9sqVFvq+79Yax2Rpx1GsLfvevLxT079j0ykNx8tskAqSUPXft2jXpxhtvnFNcXHyeEOIIwzDqHMf59Mc//vEz8+fPj3bJFnOdlfSt71f8+nun//H+h2b0dOWkfn6yn2VoMc02bdcPTCGFJplMTpHHRQpx5CeBk0rjXKo0URm27Iw+4RxkbOhh/heabbXiHT1U56/LAczFHWSQgUITXediD8d3yQsCcnyPPPQrxp/ce5iY+M8H2zUTCRrscIS/ArpSSvPIi0mKwfUYGFIKo6LO0D+54ic/ef70uXPf1TQNxTAdchyqCyCjwYgSN5588smpDz74IBI3xgshcnzf39m7d++3nnjiiadHjBgBSpT9FmNzemRd5Yg3f/u76etee+fSXoF+ouZW50HDYptJhPSjmFxuAsZtrBueEdPMLTfTPmuuDUhUk8u1AlJJ4WYA/HWYs64HMJJITYv8ICDf98nxXAawi38DtNxdQg/NmVDFRlEInFdg8eQ2MJhTQY4lqE5zmEM7JmwyheXUC7mp74QJi77zL49Cw/s0owV7ACd9HRbD/uxWhI7GXX/99ZevW7cOoaOjkZNeX1+/Zvr06S/ed999L9u2vVHTNFWD18Ih5e781I7EKX++7c4rjc1FU3v5cnDKdg2UB7LU1HTyPKi7Oummrexd1XuAg/1sW6GYPq2dDnrbRoCNvlYR1Cnbipk4lLX8dTR7Oh3A6aMIx1YqCGiP41Lg++R7HvlhTjmksWoFE26gmEN2aIE3W23BSUOjmGdw7yRdBpSyfUrF0HqVKEfEKO7rIuXL3dU9e7037d47nr7wwgtfPgBsZnTJ1xbAUejojTfeOG/BggVXBEFwqmmahZ7nVdq2/eHNN9/89OWXX/43lAu2RgsqZXXv3e9+MOWtX/z2aq8uMUV4bm8wNzYAjydZJWHse0RWbOOCgYxmp7mbHeCFXXlZM1pEiwAOafOY56vRgbFl73DjSxWLic4cBeAtYP5rnMssgqr4wAO1Lxqw+W5oz/ps3wrpK4oggUotJNQopxWiBZC5ADVakEZNzKE644D6HIMTEmEk6VOSfG6NqsdAbmRI6QjH8ERJmSf/PnDGjOd//shDL3XU+H+dAZzred6Y22+//bI333zzYtM0j4U4C4IAsd9Xf/e73y0cNGgQ3Pz7bY+h1PCqIZ/85l+nrX7q5TmmoY8Xws/HJHbhcUjNWxMA73fgcC7kHBJZUMfMvZaxOQKo4UYZxWgj5YSbdGsWa0JwZCA0BII+UBmlPI9SnkseihDQtQLSNBw9Hc4GZiFR4NVCALP2xOCVBE0pAjDqrCWSbaBN4Tr+roA85EhbJjlSCGlYCSGpJJlIrOo3dMSH4+f+7w9mzb/ys45aK4fUQsh0EKKKoKVLl5510003XVFZWXmGaZp9dF1POI7z+axZs56988473yCiVps1gybH2/PVmGduv+/y1NI1l+iWPlzo0mbS9a7D8KE8b60CmN19TCAPwCnNBpIWP7BP99F0kMqoW3wu2p86rkeu55EjlX3LbJrgyg2dVex/YNMniuExlVBornAvmjT2ktBLjYQOZRuxpxFSPvJtGFyQrXmupFrHsoqCXHvp8RPGfTztmuuXDz918lZN08ozXbttPe9QXgj7sVmZJ2bkgw8+OP3Pf/7zzHg8foJhGDEhRKlt2+8+8sgjT02cOPGj1mK/+AIUQBQv/fvpr/70F/NydpWfLw2tv2eQFiW2t3XA2/H8Q2buQBCQ9rB7AdzMG7B0RH44iudDiam4qFU2FMCI/k7wCkMSA6i+61EigCQMSLATihVpjvFGsV2mDwqpBZmtJGTgVA8DMDYuLQQm8elelk7FVcYPYYIiSWkIMoDirieFZpQ6pG+MDeiz7OLr5i6ZMvPClVQ4pKQtbC4HsjYOmUXQlpdD6Gjr1q0Tv/Od71yxY8eO8+Px+MAgCBBM3zB27Nj/fvzxx1/Izc1tNfarAFzd+9O/PnfOkif+45oetYmzrNycnikdOct+V0pgteoOkQPFGiE8GlmwzYXIlHoLV56hJC0DOnQE8l91cgOoxQ65kLToJBgE5IbAZ84EEBggBh92klBpkIBquBFEslaEKZPsbIySOtSggj0FkQMAWLXEUfF85oZGx0YhpBRI59Br3ICKjHjOsuNPmbDk/HnzVh49YcJWys3d05pztD2mr1MWQajSYg5Dx+y+yqdEd+ewjjo6L/0FFVdi60cUOvrTn/70zd/85jezDcMYzzQ3RFWu636C2O91112XEfUJ36u69MiXH3102vaX3pnT0w/GGzmxPMdGE3dUELX+PB14RqfMXXs8v7lXAjdEyNmebSKWG2h8OJEC/FMAi8a9niBpsQfDpoV964aqMZxaoNf1oR5zNVdEvq64rdUU7c1n5sy3cBsxJBqjqkXJyTZhJlYkkwFcgJjpiQRRwhJsF1u+JvSAkqYdL6kL5IZYvz7Lzpx9+WfnXj5zdaxfg9TtsOyrRrhojwna3z1C7mUACD+YMmQ8uRwB33vg87Cah5178EVE5yhfQdjDObwE12KA3Kb8Q6g6Qs3vDTfcMGvLli3TNE07mkv0gmBrz549X/vjH//4/PDhw+G8apV1A/bvnq1rxr5w572zxLqtlxSSHC4t004In5t+7Y+SpaPHNbx/twJxlHfc1FMM81NZmEzWw1lpUHMRZ+VYK6u8anWgsAOht5SvyPjAkY3ECiRVcEqj4gZS7VLDt9+rBoej0iBslcTF83C5Jv+nwMyOLzQeD5NpUIetyIUA8ICviZnIhlUAxvVJk6Qj8SBUrWlWUUrTl48748xPL7xu3orBEydvA9F/Z0jdTgXwmjVrBr766qsjfN8fapomiNTh9QUpegOAIaGFELBb83Rdt4UQrq7rSQGqSHT4E8IPyeVwDT5OxWKxsqlTp+447rjjqtI6IyDVafBLL710wc9//nPU/J4ihABxe30ymfxi+vTpz95zzz2vx+PxVp1XSn2WvTa9tejMhfc/OLdfyjs7Hsh+gUYaug2iSXXrWY4dDuNuBeCmwI3eHiotw4jDQAqoHOrBJhimLwL8cDghEwrStd7x2J5l0LJupgoN4EXGEQGP5ykk29vfaEdEmpAGuAOeSBNG2DIGfiv1PUorUN8B0FogCfQDSPmgnmQyGXglkrQNhb37Lzt3zqzPz5hzOaTuro62dVt6tw5fAG+88cb4W2+99XwhxHgiKgAQpZRe+gPpigPVklLGNQ2cUcy/CgkcTjdSU6UXAjUQQlRalrXy3nvv/fCiiy5CIgbnMaPqKJlMjv3+978/a+nSpReZpjlMMaEIUMO+e//99z81depUOK/Qy2i/B6vPjnPUe488NO3zhS9d0c80Tibh5XMjMR0TD/7m1u7Sab/v8Hlsy5uke4nZ2cM8fqEEZI6vvT2L4Wn2fPy4Sj32EZ9FLBZdEKK4bxjXhV0bKcVN1G/EjZsOQmvstwgd7VXjRUPmG9chYYPWkT7JhpIrpVbtBXKbL7Xlx5156pKL51+/cuikk7cT5Xa61O1UCfz222+ff+utt84WQpypaVrvNOfLPuO914+vNtk0NZFt50iVllKWWZa1+J577nlh2rRpoMGpi0JHH3300dk/+clP5tTV1U3G96Gvked5G0eNGvXfjz766AsDBw4EX9F+CxfCzSDX373jG0/dcvfs2i0bLs6V/tBAehYqWKxAFXN3H/wqgdGBIEhBAAAYtUlEQVQWkHXiuTJgtVixYgYkmLQeztuU45DjOgxKSNtINYaTKCK4B+5ZteV+TXuVnqYOMNiozS2olt4zlLEsgbkqDKyeYeoqVHgPaj6ocjQ9SaZVknS8tf0HDfrigpkzvzh79uy11L9/aVdJ3U4F8Ouvvz7trrvumuv7/lm6rveBhIVmnAbW/eEgfU4aQCylLLdt+7177733rxdccAFKAWvDVikjFyxYMP3ll1+eaVnWCZqmxYUQNZ7nLbn22mufufnmm9/KlLQO6nPp4sVnLfzZP8+zk7Vnk0z1kaaugS0yT6APb7cDcKfO6/42gFACR2Yt7CWIMPJcVxUI8E9Y6wxb1kAihqrD5agMt0tVKnOkLisqXjRkU/7sTAC8v2eMHFf4Bkhv5F5F0jjQNfQ+8lKSaupEUOQIWjZh4qSPL7vxu8uPPOUU7tLRVr7wjtowO3zXfuONNy68++6757qui259SKbggpsm0nW/6yG0rdi/ANtZCLEnFov97Z577vmvUCWuQeho3bp1E3/wgx9cUVpaer5t2wOxkFzX3VlYWPj2Qw899PTEiRMz6uUa8Wctfuxfpq16auEcTSZPNgyR75mScnxJPVydEtxxsFsfHT630dtHviTLshrs1sCH/RrAY0EVKBaIiuQjtRj2ZjiGDd7fsBaafVQiBGsofTkrCz2j0IGiFQbJ5sJT0WBEc8bSgOMikss7uQJbXRhIy0imdL2k2g02xPv0WT593lWfXzDz0pW018OcUZeOzlgdHT7Jb7755kULFiyY5/v+FEjgUNVt+r3NYaG5Z1NOQikrLMsCgP8ybdq0D4kIxQhDf//731/w+OOPX2aa5smapuVDVXZdd+348eNfeuyxx17Oy8tbn4mXELSwVFMz9s+33jbLXbbiEl1zhhm6tBO6oFwRo3xHp6QetFbq1xnzt480akK6vs8Y7juooQ+Xc42VlzZyPEQe3Mg5Fdm2HNVVnmCV4B3mKSNLymd7VmVCqRitT4Flc4vVqOEhMqY4wyqN8zoqw2QMqT5Nqqg+VIy5bjf8rHkA732zhsUUmttKdQs/VSnV7AyTJgpMDNJ8fg0pBLmkmdX1ItjmxuzlYyZN+uyi669bOXTiuG1dbeu2tJg6C8BXpwGYp7yZB0oH8f6eS8KJZdv23+66666/XnTRRV8QUW5xcfEp//RP/zRt/fr1k23bHgTnlaZpFa7rfnTLLbc8M2/evPeIqLS1woXQ/u1RvuqLM/7rjgXzeu4qOdc2/X4Q/vWmTZafSzmuTa6ZCpMDOg2nzaqOjdXJfdqeNIqe88CnjbKaiDAsA9yE4ZxIgnFYSBVoKCcUq0A6BQYC4Sq6qlIXXQZsKkDGseQQEVOghxlR6JaYPuUdsehUoYFq0tZwaMgAgxNNksed29hdzao6Chk0y+MAsOGZwtC0pK7nlCS8YG2sd9+l51x79RdTrrx8TaxHj25h63YpgO+44455QRCcHUrggwUwFkZVTk7Oxw888MCrkydP3v7SSy8dtWjRotOXLVt2qqZpRxqGAdsXnu6teXl5rz355JPPD8qw8VTUO+nTp/7z/I/++P/m9q2rOc3Q/ELs4a5uk456z8CiQMftu4cS3YigvMkjhYPdImbSPcacXYSV0mAeqLbkHJ9FeiMDwCBHEiUdh5Iph73HLFGZegaOKOUxhsTlHOaQJrelEFP7bX+hbdzIPlaUr3gnPAdqhTh+HOBz5jaSgUZeKkAOs1GU1LUvTzxl4sdX3HDD8iNP+cZ2orxuY+t2GYBhAy9YsODqEMDoWN94O1ZPlqkKrU6Wst627fXTpk1buXv3bveTTz4Z5vv+SMMwjgC1q2EgdYBqEPsFad1dd90F0rpMY7821dWNeOGhX0z/6r2/fauflzzRID8HAPY1izRpkyYt7OldCuBG3r20fzSXHbYfe0WLHE4c5QnVYSRXKIdSwO00AQHUO/tc9A7GCkhZFaPlSwBsw1Ce5DBGyypzeHQ8eJWHm7+7EYBVGArghZPMQF8orDSf86WFtO2ksPTS8mRyQ96gfsvOm/mtzy646sqVadlU3cbW7WoAp0vgdAdWwxw3g4aWJDV2dmRhVUGV9n3ftG27l+d5BSBqB3iFEIgbI5H8nV/96ldPn3322Z9kUrgQbg55VRs3jn/+vvvnJDeuv7BA84fYwjehiAkySZDNQDY4lN01ErjFgWnGuZOentgw2I0QrfZTjtdGNw7ziJFUgZxjhHrgNRYCGUpIi0MNrroJ+yRD9To9NTLalTMhTG8PKazoExoDmC1b7C2kKwU7UDyxRiCQw1xdqZvbHctafuz40Usu/D/XrDzu9NNg63ZKDnN7vDPu0RHmSKNnCyXwXCHE2Zqm9Q1znqPvDV0WDVI4QkT6Gm36jJAasMlYa4NX2/M80zAMdnCHu33KcZz13/jGN156+OGHX+rXr9+6TGK/IYB7rV+06Mx3fv3bq+366rNN3e9jCaHpnFKnk6dZ5Jg6mUHQ8YPXzCw3Gphm9g/F6qGOKK6Jv0dph9Hn0a2RxA+1EmMHm5XL8FAs4LqcGeVD82AHUkhYgAQWhgQuU98UEbOGCjhLvAZNgOPle6lb22vhNr2PqgSGGqHkAzKt1Dsr2QzHG5cfaHpC17SSBBnr5cBBX15w4cVfnDf70tWxIUNg6yY6szVoe4xFVwK4kRYYirNMAcwzE4YWNIQvuL0FVDpNk7quV9bX13984403PvvDH/4QhQto3N2qOsQsHsnkoA+eeOKbK5554co86Z1KZlBgItSAbglCI1c3KWVpZKGYoT1moI33SC96a6ouM7jDEWTPaxqnVhASlEO1VRQ/KjkCLJhM4OY4qjQPXuMocQL3QEEBpzAqdZQ91JqpvMThs6sUycaMJOlZUE0lcxtfOaPTdc1nJ5zBm4tKc+W8W/WnDAzD9XWqTvpBkR2zlh09+qRPp33veytGjj1tO+VxXHe/tEoZPUQXnNThazCUwK2p0Gojb6yT7lcKR2MFcazqNNWCNAzD831/a2Fh4WsPP/zw8+PHj8+ocCG8Pp7YtumEV+57cGZy7fpLdd8d6Zkyhkwd7pogdPJ0opRJDOgOH7wWFkS69IN8SZdvLG3CpH8mDUlLXZSQsqipRTUPwOp5VJd0mZSPVaHQbgXAGcRp9mQjVTjtH+lj0NKG0ikANgKCloT0SIsNYWhjOknDDJKGnkwaWkmt7q3TehR8+c1vTf/i4jnXrDmUbN2W9oYOX4MtADhdhY7Am/6n0n32xUhj603XuVk26kFxhEF+UMYuPfPMM599+OGHX4/FYttDm7nV/RHJIJXvv3/a0w88cFV+ff25mgyOcDncrzFgbYGFLRX/UWesyv3MWtTuI9RhGzYwhHm4SEBlvTRkF0ENBvMivMfIhlKpi5CsDaGihtFOL4Rviw3bkgOtMzwFSJ0Gqwaegdk8PCTU6660Y1X1mra9RguWjTj5G0tm3nDtypGnTYw8zIek1E1fFp0F4MgLHSVyRABtukRbigU395zsQYWdBuCG9phAmqWU8m833XTTk1ddddXfMylcCKWvSamqIUv/9NTUj//ylysKhT9BkijwsTJAeSbQzBk8zaoFqHKmd9ERpRiGHQPw7kzshqJ0XXFPY2NjUnJXcR2DF4rDPWCt4EgP7F5DcU6FR6P63CYSOJM37cr66Mj/wWyeQgjDiCVSQpQkhFhr9urzxTmXz1x61tVXr+3RTXKYMxnPTM7pcAAjEyuMA5+j63oURmoJwE2fuaXnU+4JXriq3jNMs3SCINjcs2fPRf/xH//xwpAhQ9CwLJnJQKD2l0pLx750x92XV61ffXEgnOEkpS04dc9kABvwQfuCW564XJHUscOXvkVE9gXbr+HXRl5Wtnd1Ze+lEOJBWZ7rke97DdQysHM53BOq0Q0OqFZKqppW9KSr1RmNq8qd6PBDmQcoANQ9j7SqGt/d7hnashNOnfjJjKuvWzFqwoTtlJ+P0lNUuX1tjo5dgUQUplIiEwuJHG0BcKvPhjLEMN9ZWpaF0F5ZMpn8dNasWS/ee++97xPRrraoz4kly8/4y223zoslq84Rut9P6pomWNLCaaPK0XP8gGLCpwQ4mboAwFGoR4V9FFsFgApJm/IDBnB0RGp0Q7pjyOqomCvSPMhNQLw/u5Z3yha23+Zwqmp1Ox4vAZQL00wGhlFS7TrrevYfsHTKpTO+OP+q2atj/Y9ESDGViSOz45+0fb+hVZAc7Ne99dZbF99+++2RCt0rTOTYnwRu0zOF3meOC0sp1wwcOPCtX/ziF2+OGTMGoaP9UsZG7xZySA9c+ZenL/jkd/96VU5QO9G1RIErAzK1GElC4oYCcL7vUZ4rqNbmHf9gh2e/1zMTROhIiiSwMJTXmD3HAu0/FMcxkioQ2PJ1zjdqyDuOWCyYPxmfh3Fb5YVWzZm4tj4NZOlSt6Wa2uZcAE1V8IaNpGMBjLt7krTaJGlFji6WHTth3EeXfvu7K4adhnpdzqY65G3dlhZKx67A/6HEWLRo0SV333331VLKKegKqDRfXvmNNvr9reTmMnlwC8MwkBftojqppqZmw5gxYz664447/nbyySevDOlNWg0dsUSRMk5e1agXFzwws/z9L2b2kmKUoznxFDkkLZ3DR2i6Dd5gcC+5piSds5DUymyaX8w4abJo8bL4jP3lkZMpDOlEyf0N9a4KgeRLqO8hQZuApPWZ0C3puQq04aBFajW7rloFC28JfCWHhDp0C1I35w6NcDKGRQqo/kkvulAeb6VR4F18RIF0OA4FGfAshznVTLZuoeubQcjJkAEJ3deSpqDSHTk5G0Rhz+VTZ1yy5PLZs1fFhnQdS0YnDGkjLatDv+/111+/+M4774yKGQBgdAZs6oVu7hmarq1GSxPRI13XUZi/y3GcVRMmTPj0tttu++zYY49dR0TIpmnE+tHKBlFQvfHLic/87JEr5bpt3+wjjYGu7hqO7pJvKu9zzFcAdg2dkqZGVoB8pH2PhhdrAqQof1T1TQoBZKiMJtTARmopF77DIaUTOYGhEitSDncUQPgHC7uBuymyhUPc8q7YKoA7dLqbvTkAHG1q7CVuYkir9wnfKwxhMYWOCPhcaD6oHsKGiTCeMHQpdcMTmlHjeaKIArms74RTlsy47rqVJ02a1GmMkJ0/ki2vtw57ljfeeOOC22+/ffb/mMOnCyHQlxeGa3PplE2foSUAR9qk43nebsuyll944YUf/vCHP1zWr18/FFvXtBG8eJZ+KxY9d867v/n3uT2rE5MLAq1XSnfJNbwGAMc9ldPj6Ro5kA7NMEDsbxC5MA4SN4pZYyEq8c+Sh21aKchDuMdxyPNg0+IzJSUVr3GYsBxyN0Uq6/6KGTpsYttwY0XpqrQK7gfVzCYTYbqhEooBreL70DQwBgaLXS0wTCuRklRaq4kNRq/8ZeddNvPzCy+/BtlUsHUPuWyqNgzlPqd2uAa1aNGikxYsWHAmEZ2o63ohwNsknTIT6RudE4EXvFhJ27aLr7/++mXz589fGYvFImKxpl119js+zJrpusPf/dUDl3z20uuzBmvxMTlC5rqaQ9DN0N8XEhgARjI8JAB+TK4GDwnVwm9I/+Km8VMlYXSmQGVyNuTUh0XqXhDatFEmVEhoLhHCYmkcJuGDmzhkpmDve/i93R3ADTW9jRT2vaPVSGsJN6q9FK9hZRN6H5DheoGoTAq5PYjHl/c7/tjPLvs//2vV2LOndNt63YMBZybXdjiAN27c2O/NN98c7Pt+HyKKwf4NSewQr2vT9+u6DpuX6Q1h+w4dOrRy5syZAO4BJ6AzEd727eNevu+uObtXbbywL8WOiglhQn1OmWjbLDmzBwBGPxzYZ/gx0gAcDXQ6gPdx6CCHWFc8xFEmlIrR+qwmq+ypkKqE6VYNJibfa9SqoVI9Bxrbrt0dwNx7CBtWI06rNACHfZEhmZnahhuLIS02NDwMXWhSSwoyd9X53prcXn2/OGP6tKXnz71mXezII7t1vW4mIDyYc9oEoAP5opCeBpzPyDBo6rw6kFuy4At/muWGbstNwX21c/His96+//55em3qbNMXfWyNtJTuk2sKYk+0VDawJZSdBqeLxg6mMOMpfBgmB4+kcUjihigUkibQAKsW7SyZhRE5x0FDAT17hhtmAqV6ihsKIFbSV4V9mjrzuqO929zYm+j+JzXu9IfNjzcifl81jfg/xhgOK/wJcyFhBGRJTerS9AzdqPGkUVTuOV8eM2HCR9OuvXb5mG+eXkT09YvrtmXtKqPkMD54c0mlhiz/zyenLfn3P8zJ0czxmu/nIxVP2Br5FhxJPumBJBMJHLB7kdiBqiduyxFKRNUEgDmeuL8sQI5CgUg1DkncOEYrwcgY1r2HlDLKM91Qlaeqd9IArRgZ1QfYDHjpM1n5oTF5ytzA5oduf2HSiXoJ3qBQvi3AvYxSRQ86j0bSxlVaSjNiJfWuu8Ho1WPZ+TNmLjl37tx0D3ObzKVDY7Ta9pSHO4Dz/IqKsa/cc++sqiVLLjZ1Y5guAlvxJRH5hnI0YWEZHEZSvP6KnBw9ZVX1mmpap/rSegLd3j3uKMDtP9DOEvcDFQ2qeNLmByAN22UpUDb5XePmFeqXjWJvhwiAdaFU6Ig4ncNE0SbEudvKTSU8n2KWSUnH9TXdrJNERYFpfzl89OiPL/zf16449rSz4GHuUh7mtsGr488+bAGsEkrq+lav/GrKn/7x1it71ZafqRkm7HQOUYLTKVLwkAJhIM844mVDBhSHg5QKDTsW9bOOkyIXqnFaumNUiscLtGkHvPT5bSaEq1xdLR+HigROf4OQBY/HCLYub2CWzdqKGbNlynUcyzT3ONXu5njfXksnXTb9o/PnzlleOGT4YedhzgT+hzOAbaK6Y9b+5bVL3nnid9/qKZJjhGbkcm0rChaiZINQzYNqjHAPiMmZJM0P+/aEhG7c8iPspofzdG4IpOpoo94/qiX03qNxYHvfHIzWiGsPFQBHHmWEkBSAVR47e9QxrqYJEvXAlUG9bls7U663asSIEz+b8b+uXjpyyukbKKf37q9zNlUmQG3pnMMZwHmUqj35lQW/mFP68UfTbK3+KF8zULuvSNDI4AwslbckySVBKd+jZKAabaFYgGO4aDwd9vnByVEXAZbgoe3KDBWYAS7QVUcmZXqHCkBbW4CNM7GiJafaeXrYL+MxNxH4VR7RVjPH/nLKhRd/fMGV81b0HDmyiIhq2xLXb+1Zvm6/P5wBXJjYsvaMl370wDXJkuJzdaOurzQs5q1AjSzahxrorxEIBmy9UD8uHDGQIyFzY0MMM6JgDVkrGoWRIMXZ07qf4W5GhTZU9WJk/DZcHGViNbcZNAF9a1bygcx/a/dsaqqTY/j8InBLwZ9gcu6kLjXTDBxNSySEX5LUjLVHHXfs0otmf+uLk2bMWEtxpnNFAcJh76jarxn1dduRMn0fKWXhytdenPz3R/98payvPsM2/J7IllSFAgEFKYekG1DggRUKvMKqh6wwuFFlA2MFpGu4ohGbDptSq89U5pRSx6E82xzl3CuEGz1rcwBW6UnqkiaM7S0ljewjtVvqq7w3nTXTIdt73v56NTe5L/v7dET7JFPdIOcMtY9S00VAen1CBsV6ft7K084777Pp181dmTt46Ney7K/tg5zZFQeyA2d2525+FrovLPzZz0786PXXz8nxg9FmIPPRRYD70AbKc6yAg/8pt2l6Q1EfNKr7mq2NzVpFvqfuAJuazeTmFWOVNLnvEQE1sp5Bkrr/Hbn5+0RBJ1Uu0Pho7p4tPc++16r3ae6++FyQruUGLoF0LiCDm8K5mqEFhu4nJFUdM2bMlhlzr1p5wtTzNlAsFkndjIpQuvkS65THO5wBbH726rN9S9ZuPzIWi/X1jADkk+x/xgFyNKSe8J8cLmpcX4TlyISl6ZQWaVMm0dr9AA9DNl/EF2iZZa61dH1zj9MR94y+J7q3GUTN6hVbCP7laYHIy+udmHTWWWX5Rx0F4CKH/WtVbH+A09+myw5bALdplLInZ0egm45AFsDddGKyj5UdgUxGIAvgTEYpe052BLrpCGQB3E0nJvtY2RHIZASyAM5klLLnZEegm45AFsDddGKyj5UdgUxGIAvgTEYpe052BLrpCGQB3E0nJvtY2RHIZASyAM5klLLnZEegm45AFsDddGKyj5UdgUxGIAvgTEYpe052BLrpCGQB3E0nJvtY2RHIZASyAM5klLLnZEegm45AFsDddGKyj5UdgUxGIAvgTEYpe052BLrpCGQB3E0nJvtY2RHIZASyAM5klLLnZEegm45AFsDddGKyj5UdgUxGIAvgTEYpe052BLrpCGQB3E0nJvtY2RHIZASyAM5klLLnZEegm45AFsDddGKyj5UdgUxGIAvgTEYpe052BLrpCGQB3E0nJvtY2RHIZASyAM5klLLnZEegm47A/wfnUXdWMU0g7wAAAABJRU5ErkJggg==;" parent="9gm0HyqsbW9hDULjH3VM-110" vertex="1">
          <mxGeometry x="193.50000000000006" y="161.2799999999993" width="22.36" height="22.36" as="geometry" />
        </mxCell>
        <mxCell id="9gm0HyqsbW9hDULjH3VM-95" value="" style="shape=image;verticalLabelPosition=bottom;labelBackgroundColor=default;verticalAlign=top;aspect=fixed;imageAspect=0;image=data:image/png,iVBORw0KGgoAAAANSUhEUgAAAEUAAABFCAYAAAAcjSspAAAAAXNSR0IArs4c6QAAAARnQU1BAACxjwv8YQUAAAAJcEhZcwAAFxEAABcRAcom8z8AAAt2SURBVHhe7VxpVxRXGvYn8G3OxLhEggxxAVc2oVuapqGB2GrUOBpt90hUGpcgINJK3JeOy8mZcybHHpPMp/nAT+gvM3FL0ioaVLRLXIJAtETFnX7nfatutU1zq7qqaRA5Pue85yTh3lu3nn7e5y51b4a9x3sMTpjKxYRpZXfSpq+965i25o5z6urbrqkrW1yTl1EIrtSlgjN1kWBOXSCMZlWGHrI2t6VlV7S7sis6vJmudn/G+ntixrp7kF7WCkgMIDEwddVtmLLiFkxe3gKTlt6EtC8ESF0cgIl/vwETF1xvGL+g2TNubpOZNfluwlQnJuRUiu6cygf+nK/vw4xNf0L2xg7IcrVD5oY2QGIg/Ssi5Q8kBYlZhcSsvAVTiBQnkrIkjJTPr8OEBc0wft41GDf3Knwyu6khZdZlB3vU4Iep7rHZvO2Rx1zTKZqqHkLuVhEkUjYzUio4pHyJpKwmUlAty1EtTiQGSSG1TFyEpCyMIGXOFUhxNMHfSi8LY0sbXezRgw/Wuidplh1PGvLqHsPM2kdg3tYJpmqFlAeQs5mphUgpZ6Ss45BCKbQsLIUWoVoWymoZPx9J+SyMlE9/h+TSyzDWfklMsl1wsq68fVCaWHc98+TXd4lICuS5OaRUIilbFFJQLeVMLURKGSOFfIVHSngKzUe1fIbEzLkKKbORlFmMlJJLMLaoET4uvOhPsvrTWNfeDqz7X6QV7HnmR1LAWv8U8nd0yaRsZ6TUcEgJ95WQ2ZKvRJgt+UokKT18BdUyS1aLRIq9EZIKL8LHtguQaDnvYV0cWBTuf+6y7X0uFux5DtbdSMo3SMrOLrC4US3bmVqIlCpGSrzNNjyFSqQUktVCpFjPwxjLb/5RJn8C627/o+jgK0/hgZdg2/8CepFCKaT4Sg2qhW+2YuYGGppbG1Apnulf3nVJcxWMKSta3JOWYThv+iZ9cVOIaraKrxTLpCTZUC1WJCb/PHyU96uIxPR/OhV/2+21H3oNSIxMyl4NUnqY7X1f9qYOd1Z5WxpN3lhzupC6uNmBZuvVNFuFFEqhApmUMXl++MhMxJzpP2JKjgS9SArYD8ukFO5HtexFYnYjMbuQlHpGimK2OCznVj30mqrFuHVqwvxrLiRFILXwzLYHKRYkZeZvMDr3l/4hpvRI0IWkQA9SKIX2sRSKNNvaR768unsTrdVCmhK2yvhN2z+Z0+RMmX1FUDXbcFJMv8LInHPiqPRT8Vs2lB4FZ+kxgJKjjBQPj5QusO4QIX9ba3t+lRCwbg2I1ioBeJFfFRDytwYaLJU33JZKoU9Td0whj7rZIil5Mimjcn+BETPO+Vm1vmGWB0aXHA+KpccBkBwgtUikHJJJKdj9CKy1rWCtvsklQE8QSdaqgMdUJ8Q0WiQXN5rVzRZJMcukoFpgZNa5vg/XpceDDRIhFKQWSiFPNxTt7YKC2jvcl+xbBGLqdJL9UhrNbPlmy9RCpGSfheHpp2JXZ8lRcIQIUUhBldjc9zgvE+eoFAxP25NtTaORFJFrthIpqJbsczAi84zAqhgDpk1C6bGgP5yU4oNoptUt/Jfoh8C08rLu6EayzT9azWylFJpBKXQWRqSfMr5WQkJc4YQU7e0Ea83AEaIEGrLfqNck2hrNamarkPJhxmmRFdePkmNBoQchnA4PVJARGyUGF4dedbNFpWSeMaaWcC+JmRAckulXpqFXCTRRnzzScMpHCarHuqcLtO5JtF4Q1MyWSEG16G9TGXFKPC+MpYw0Nwl4aKKm9cvS3/K3Ci4iiduOagR8rAldSLL6nWpmK6kl4zT8Rc+EjgxWmpcc7Qbb9rucjnFCUoXgimWeIc12DZBTUCUY2oZEUgRVs804A8On/xx9505JnaLdIrdTvSPgi8f0XVYOr/2IwB/AyPPQbD1qZkspNHz6qeiGK406qBI9aUNDZizqUIOsGv6zwsPIUC15i4bZfph+Gkal+rTfgfxEj0rIOONJiAJaC/Ge1yNQLUaePcaCKaRutvDBtP9qr6BpKC7YdpvfGRaxDJFGQLNZ3nPDg9KNFY8K2p7UMtuovlJ8EFe7nE70iBim4EZBwzn32Szo76xoVCRa/G5Ns512ys2K9gatiKOnjrFhMVboSSO9ak0s8Du0zfa0ukcRKbYdbdwOhGIAVKIg2kRP714MKsWsZba4am5gRXvDfhzSovlJPHfPogFV6eH1QQm9vkLfgrRmtsPTz6iTYjv8NIf38FDUtHSxogMCmqhx+8FC79AcIkXVbDVIKdzXaaeHFW5rgbm722DxYREWHrgPs+tbpU4U1N7pYEV1odwLCRt/AEfFSXBXnAy6Nv0IhjZ3FF9R6w9NC1hRTSikJBddhGznDSiq+APyy27BlPlXopPy6R5x+dIjnYCd7xWuf3XDvP0POllRTRAZm34KenjtbPoxKBJRrKgmZu26m6PVn/n7Ok6zoprIWnQjx1Hdzm1nw/evwbRC4LeDLzK64mR3O69ieNCvzqpwQe3giwu8uuGhpx3sz11e3fDQ0w4SqKOdYG9/whdp4BXmhdYvbaQdDNV02vhD0Mcprxbxbwdf0skpoBFB7iJqSLVj8NeVYvNP0Gu9EEs7JG9WPYRB0Q5WjuoBkcHLwSHVDlYWeQW0QqUT73w7lHJSZYNmJAVW7mW2Q6od9TmFWgRFbg4PjXbkRSb9A/4H/fmHD5MqRsBoO2pzDNaObun3WzskG17ByEBJ+kNscjDk2sE/mrV/6aBXqwMKVpwIrtxwkldfjjXfd7foaQfLmtefeNkdWV+J5cceg7225d+sOBe0qnfUt3bRsoDXBsWifeKfUftDTo4E4BgfFCSzwnQJGZAO0L4MfRFw/hMJOIHrCyRorRdfAv/9s+PdUHTwpe6NKloJ00Jw1XddsP7EK1jzj2dA6yFlUSgH/6QCLSiVPRlaVKq1Myb3zH9Ylf6D9HGefWHsEUdBOvRTdOiV7i9z0bYPwoNWzXQQiEiKtp2pRM66a/DXKT8b/pAfE7iksPMt9sOvo39rCUO0Hbi+xDjHBfhg2qmBOXcbeYwjFEwttgOvdO+t6PrsEUNkr70mf+aY/j/d1tAnlBwLermkMLUUHe42JFnyFt6LxRqWLQFIsvlhJJIS1wOCWuh1Cio8FLV4nhnqTLyIsXwdgPFzGqUN7BHZZ+NzOFAPVM2W4o23GP5cIhsp/2X1hKn8Ooy1X5D3auVPHQPjJwpUU4iCqcV+8IXhTyb0zdmo+ZI6pi65Asn2xtABQWkDuz9PY/NAn0y4hFAoaqGDhfuNE0Og4VorpdCgIbf8BqSvbIYUx+/SkVLlkCDb2de18R139DhyGhmKWg69BroVwqrEBJq5EkkzNwVWp68ONE5eQjc/mkPXYEIHkNk5W1LLKIvf0NeFuEGXtygnuPe98Nn2GDNfBalLhYTJywXnpCU3ReU6jHLrQ7ncoBxAJrUkWi8OrJdEAhXh5JJCEa4WOta+9wWd8/dYv3miK9dTy4UE6Rrvqtt+6QKVs+XNNTt2myxSLUlFjcKA3gVSg2oaRagldIeIboXsfCLOdD/2mmo63aZq0ZldKZpnbOlwZG1sc2aWt7kz1t/zp3/VKoZulq28HbrCq6EWMbG48e2kDQ9IjI9LDE8tdIeo/ql8VWb7Y/nuUNVD+ZbZ5vvyZarydvl2WVmrfA9x1R35up2KWlJmN4kpJYPw6i6XGE21hK7KvLmTyK7eKdd5Q7dWNdQybt5Vka7DsG4MPpQcD3p6EdOPapnwebM4fv6VwaeQSEQec+8vtaQtDvjeqf9nAg3XPWa98VWLMHmp/nNxgw4085XIiYNapq2966NbqzRvYc2/+yg+8tpl/7bbZ1At/kxXmyerrC2N5i2sqaEJO92Q3/fcgZM5t6W+y23Z+dQz0/3Ew+YtLpq3GL3O+x7vEU8MG/Z/tOlrHqVlBFAAAAAASUVORK5CYII=;" parent="9gm0HyqsbW9hDULjH3VM-110" vertex="1">
          <mxGeometry x="166.42000000000013" y="161.2799999999993" width="22.36" height="22.36" as="geometry" />
        </mxCell>
        <mxCell id="9gm0HyqsbW9hDULjH3VM-131" value="" style="group" parent="1" vertex="1" connectable="0">
          <mxGeometry x="-1881" y="-4725.360000000001" width="280.84000000000015" height="160" as="geometry" />
        </mxCell>
        <mxCell id="9gm0HyqsbW9hDULjH3VM-127" value="&lt;font color=&quot;#000000&quot;&gt;&lt;i&gt;ns: ebdz-search&lt;/i&gt;&lt;/font&gt;" style="rounded=1;whiteSpace=wrap;html=1;arcSize=3;fillColor=#f5f5f5;strokeColor=#000000;strokeWidth=1;align=left;verticalAlign=top;fontFamily=Helvetica;fontSize=12;fontColor=#333333;resizable=1;container=0;dashed=1;dashPattern=12 12;spacingLeft=5;" parent="9gm0HyqsbW9hDULjH3VM-131" vertex="1">
          <mxGeometry width="280.84" height="160" as="geometry" />
        </mxCell>
        <mxCell id="9gm0HyqsbW9hDULjH3VM-128" value="7" style="ellipse;whiteSpace=wrap;html=1;aspect=fixed;rounded=1;fillColor=#0050ef;strokeColor=#001DBC;fontStyle=1;fontColor=#ffffff;container=0;" parent="9gm0HyqsbW9hDULjH3VM-131" vertex="1">
          <mxGeometry x="249.57999999999947" y="130" width="23" height="23" as="geometry" />
        </mxCell>
        <mxCell id="9gm0HyqsbW9hDULjH3VM-129" value="&lt;span style=&quot;font-size: 11px;&quot;&gt;&lt;b&gt;dev&lt;/b&gt;&lt;/span&gt;" style="rounded=1;whiteSpace=wrap;html=1;fillColor=#ffcccc;strokeColor=#36393d;container=0;" parent="9gm0HyqsbW9hDULjH3VM-131" vertex="1">
          <mxGeometry x="10.420000000000073" y="130" width="60" height="20" as="geometry" />
        </mxCell>
        <mxCell id="9gm0HyqsbW9hDULjH3VM-130" value="&lt;span style=&quot;font-size: 14px;&quot;&gt;&lt;b&gt;Сервис подбора аналогов&lt;/b&gt;&lt;/span&gt;" style="rounded=1;whiteSpace=wrap;html=1;arcSize=13;fillColor=#dae8fc;strokeColor=#6c8ebf;strokeWidth=1;align=center;verticalAlign=middle;fontFamily=Helvetica;fontSize=12;resizable=1;container=0;" parent="9gm0HyqsbW9hDULjH3VM-131" vertex="1">
          <mxGeometry x="60.42000000000007" y="45" width="160" height="70" as="geometry" />
        </mxCell>
        <mxCell id="9gm0HyqsbW9hDULjH3VM-132" style="edgeStyle=orthogonalEdgeStyle;rounded=0;orthogonalLoop=1;jettySize=auto;html=1;exitX=1;exitY=0.5;exitDx=0;exitDy=0;entryX=0;entryY=0.5;entryDx=0;entryDy=0;endArrow=none;endFill=0;endSize=8;startSize=8;strokeWidth=2;startArrow=classic;startFill=1;" parent="1" source="9gm0HyqsbW9hDULjH3VM-80" target="9gm0HyqsbW9hDULjH3VM-127" edge="1">
          <mxGeometry relative="1" as="geometry" />
        </mxCell>
        <mxCell id="9gm0HyqsbW9hDULjH3VM-133" value="&lt;b&gt;&lt;font style=&quot;font-size: 14px;&quot;&gt;REST&lt;/font&gt;&lt;/b&gt;" style="edgeLabel;html=1;align=center;verticalAlign=middle;resizable=0;points=[];" parent="9gm0HyqsbW9hDULjH3VM-132" vertex="1" connectable="0">
          <mxGeometry x="-0.2688" y="3" relative="1" as="geometry">
            <mxPoint x="14" y="-18" as="offset" />
          </mxGeometry>
        </mxCell>
        <mxCell id="4PIL1Zjf6-2FiPBBJ8uf-70" value="" style="endArrow=none;html=1;rounded=0;edgeStyle=orthogonalEdgeStyle;startArrow=classic;startFill=1;endFill=0;elbow=vertical;strokeWidth=2;exitX=0.5;exitY=1;exitDx=0;exitDy=0;entryX=1;entryY=0.5;entryDx=0;entryDy=0;endSize=8;startSize=8;" parent="1" source="9gm0HyqsbW9hDULjH3VM-52" target="7-6c2CMcGdHakHLiAiGI-65" edge="1">
          <mxGeometry width="50" height="50" relative="1" as="geometry">
            <mxPoint x="-582" y="-2975" as="sourcePoint" />
            <mxPoint x="-522" y="-3298" as="targetPoint" />
          </mxGeometry>
        </mxCell>
        <mxCell id="4PIL1Zjf6-2FiPBBJ8uf-71" value="&lt;div style=&quot;font-size: 16px;&quot;&gt;&lt;font style=&quot;font-size: 16px;&quot;&gt;Трансформированные&lt;/font&gt;&lt;/div&gt;&lt;div style=&quot;font-size: 16px;&quot;&gt;&lt;font style=&quot;font-size: 16px;&quot;&gt;&amp;nbsp;данные (JDBC)&lt;/font&gt;&lt;br&gt;&lt;/div&gt;" style="edgeLabel;html=1;align=center;verticalAlign=middle;resizable=0;points=[];" parent="4PIL1Zjf6-2FiPBBJ8uf-70" vertex="1" connectable="0">
          <mxGeometry x="0.8072" y="4" relative="1" as="geometry">
            <mxPoint x="284" y="-9" as="offset" />
          </mxGeometry>
        </mxCell>
        <mxCell id="9gm0HyqsbW9hDULjH3VM-136" value="" style="endArrow=none;html=1;rounded=0;edgeStyle=orthogonalEdgeStyle;entryX=0.5;entryY=0;entryDx=0;entryDy=0;startArrow=classic;startFill=1;endFill=0;endSize=8;startSize=8;elbow=vertical;strokeWidth=2;exitX=0;exitY=0.5;exitDx=0;exitDy=0;" parent="1" source="7-6c2CMcGdHakHLiAiGI-83" target="S8_118ayMiiW59fDtrsM-7" edge="1">
          <mxGeometry width="50" height="50" relative="1" as="geometry">
            <mxPoint x="-2996" y="-4495" as="sourcePoint" />
            <mxPoint x="-3256" y="-4616" as="targetPoint" />
            <Array as="points">
              <mxPoint x="-3150" y="-4437" />
              <mxPoint x="-3150" y="-4764" />
            </Array>
          </mxGeometry>
        </mxCell>
        <mxCell id="9gm0HyqsbW9hDULjH3VM-137" value="&lt;span style=&quot;font-size: 18px;&quot;&gt;RFC (SAP)&lt;/span&gt;" style="edgeLabel;html=1;align=center;verticalAlign=middle;resizable=0;points=[];" parent="9gm0HyqsbW9hDULjH3VM-136" vertex="1" connectable="0">
          <mxGeometry x="0.3434" relative="1" as="geometry">
            <mxPoint y="332" as="offset" />
          </mxGeometry>
        </mxCell>
        <mxCell id="9gm0HyqsbW9hDULjH3VM-140" value="" style="endArrow=none;html=1;rounded=0;edgeStyle=orthogonalEdgeStyle;startArrow=classic;startFill=1;endFill=0;elbow=vertical;strokeWidth=2;exitX=0.5;exitY=1;exitDx=0;exitDy=0;entryX=1;entryY=0.5;entryDx=0;entryDy=0;endSize=8;startSize=8;" parent="1" source="9gm0HyqsbW9hDULjH3VM-127" target="7-6c2CMcGdHakHLiAiGI-65" edge="1">
          <mxGeometry width="50" height="50" relative="1" as="geometry">
            <mxPoint x="-1767.87" y="-4464.639999999999" as="sourcePoint" />
            <mxPoint x="-2355.87" y="-4053.6399999999994" as="targetPoint" />
          </mxGeometry>
        </mxCell>
        <mxCell id="9gm0HyqsbW9hDULjH3VM-141" value="&lt;div&gt;Трансформированные&lt;/div&gt;&lt;div&gt;&amp;nbsp;данные (JDBC)&lt;br&gt;&lt;/div&gt;" style="edgeLabel;html=1;align=center;verticalAlign=middle;resizable=0;points=[];fontSize=16;" parent="9gm0HyqsbW9hDULjH3VM-140" vertex="1" connectable="0">
          <mxGeometry x="0.8072" y="4" relative="1" as="geometry">
            <mxPoint x="155" y="-302" as="offset" />
          </mxGeometry>
        </mxCell>
        <mxCell id="9gm0HyqsbW9hDULjH3VM-144" value="6" style="group" parent="1" vertex="1" connectable="0">
          <mxGeometry x="-1566" y="-4790" width="315.28999999999996" height="231.63999999999942" as="geometry" />
        </mxCell>
        <mxCell id="9gm0HyqsbW9hDULjH3VM-50" value="" style="group" parent="9gm0HyqsbW9hDULjH3VM-144" vertex="1" connectable="0">
          <mxGeometry y="51.63999999999942" width="315.28999999999996" height="180" as="geometry" />
        </mxCell>
        <mxCell id="9gm0HyqsbW9hDULjH3VM-52" value="&lt;font color=&quot;#000000&quot;&gt;&lt;i&gt;ns: ebdz-visiology&lt;/i&gt;&lt;/font&gt;" style="rounded=1;whiteSpace=wrap;html=1;arcSize=3;fillColor=#f5f5f5;strokeColor=#000000;strokeWidth=1;align=left;verticalAlign=top;fontFamily=Helvetica;fontSize=12;fontColor=#333333;resizable=1;container=0;dashed=1;dashPattern=12 12;spacingLeft=5;" parent="9gm0HyqsbW9hDULjH3VM-50" vertex="1">
          <mxGeometry x="16.579999999999927" y="20" width="280.84" height="160" as="geometry" />
        </mxCell>
        <mxCell id="9gm0HyqsbW9hDULjH3VM-53" value="6" style="ellipse;whiteSpace=wrap;html=1;aspect=fixed;rounded=1;fillColor=#0050ef;strokeColor=#001DBC;fontStyle=1;fontColor=#ffffff;container=0;" parent="9gm0HyqsbW9hDULjH3VM-50" vertex="1">
          <mxGeometry x="266.1599999999994" y="150" width="23" height="23" as="geometry" />
        </mxCell>
        <mxCell id="9gm0HyqsbW9hDULjH3VM-54" value="&lt;span style=&quot;font-size: 11px;&quot;&gt;&lt;b&gt;Dashb&lt;/b&gt;&lt;/span&gt;" style="rounded=1;whiteSpace=wrap;html=1;fillColor=#e1d5e7;strokeColor=#9673a6;container=0;" parent="9gm0HyqsbW9hDULjH3VM-50" vertex="1">
          <mxGeometry x="27" y="150" width="60" height="20" as="geometry" />
        </mxCell>
        <mxCell id="9gm0HyqsbW9hDULjH3VM-55" value="&lt;span style=&quot;color: rgb(0, 0, 0); font-weight: 700;&quot;&gt;&lt;font style=&quot;font-size: 18px;&quot;&gt;Visiology&lt;/font&gt;&lt;/span&gt;" style="rounded=1;whiteSpace=wrap;html=1;arcSize=13;fillColor=#d5e8d4;strokeColor=#82b366;strokeWidth=1;align=center;verticalAlign=middle;fontFamily=Helvetica;fontSize=12;resizable=1;container=0;" parent="9gm0HyqsbW9hDULjH3VM-50" vertex="1">
          <mxGeometry x="77" y="65" width="160" height="70" as="geometry" />
        </mxCell>
        <mxCell id="9gm0HyqsbW9hDULjH3VM-64" value="" style="shape=image;verticalLabelPosition=bottom;labelBackgroundColor=default;verticalAlign=top;aspect=fixed;imageAspect=0;image=data:image/svg+xml,PHN2ZyB4bWxucz0iaHR0cDovL3d3dy53My5vcmcvMjAwMC9zdmciIHZpZXdCb3g9IjAgMCAyMDcuOTkzIDM4LjcxNCIgaGVpZ2h0PSIzOC43MTQiIHdpZHRoPSIyMDcuOTkzIj4gPGcgdHJhbnNmb3JtPSJ0cmFuc2xhdGUoLTE3MyAtMjUpIj4gPGcgdHJhbnNmb3JtPSJ0cmFuc2xhdGUoNCkiPiA8ZyB0cmFuc2Zvcm09InRyYW5zbGF0ZSgyMjQuMjYxIDM1LjgxOSkiPiA8cGF0aCB0cmFuc2Zvcm09InRyYW5zbGF0ZSgxMC41MSAxLjAzKSIgZD0iTS03LjM4OS0uNzI0SC0xMC41MWw3LjY0OCwxNi43aC45ODVMNS43Ny0uNzI0SDIuNzJMLTIuMzQ4LDEwLjUzNVpNNDcuNzI0LDcuNTA5YTguNzQ4LDguNzQ4LDAsMCwwLC42NjMsMy4zOSw4LjE2OCw4LjE2OCwwLDAsMCwxLjg0MiwyLjcsOC40MTgsOC40MTgsMCwwLDAsMi43ODcsMS43ODMsOS42MDcsOS42MDcsMCwwLDAsMy41LjY0NSw5Ljc1Niw5Ljc1NiwwLDAsMCwyLjg1NC0uNDE4LDguODEsOC44MSwwLDAsMCwyLjQzMy0xLjE4LDguMTcsOC4xNywwLDAsMCwzLjEtNC4xNjksOC43NTEsOC43NTEsMCwwLDAsLjQzNC0yLjc0OEE4Ljg2OCw4Ljg2OCwwLDAsMCw2NC42ODQsNC4xYTguMDY1LDguMDY1LDAsMCwwLTEuODM2LTIuN0E4LjM3LDguMzcsMCwwLDAsNjAuMDU0LS4zN2E5LjgxOCw5LjgxOCwwLDAsMC0zLjUzNi0uNjM2LDkuMjQ1LDkuMjQ1LDAsMCwwLTIuODEzLjQzQTguODUyLDguODUyLDAsMCwwLDUxLjI4NC42MmE4LjUwNiw4LjUwNiwwLDAsMC0xLjg5LDEuODM0LDguMjg5LDguMjg5LDAsMCwwLTEuMjI4LDIuMzQsOC4zODcsOC4zODcsMCwwLDAtLjQ0MSwyLjcxNG0zLjE0My4wNDhBNi41MDcsNi41MDcsMCwwLDEsNTEuMyw1LjJhNS43NDksNS43NDksMCwwLDEsMS4xODYtMS44NzksNS4zNDYsNS4zNDYsMCwwLDEsMS44LTEuMjQ3LDUuOTIzLDUuOTIzLDAsMCwxLDQuNTQ2LDBBNS4yMjEsNS4yMjEsMCwwLDEsNjAuNjIsMy4zMjIsNS42NTYsNS42NTYsMCwwLDEsNjEuOCw1LjJhNi42MjIsNi42MjIsMCwwLDEsLjQyNSwyLjM1NUE2LjI3MSw2LjI3MSwwLDAsMSw2MS43ODEsOS45YTUuOCw1LjgsMCwwLDEtMS4yLDEuODc3LDUuNiw1LjYsMCwwLDEtOC4wNjktLjAyMUE1LjgxNiw1LjgxNiwwLDAsMSw1MS4zLDkuODc1YTYuMjg1LDYuMjg1LDAsMCwxLS40MzYtMi4zMThtLTEyLjcsOC4yMDlINDEuMDdWLS43MjRIMzguMTYyWk0zMS42NzQsMTEuMzFhNC42NjUsNC42NjUsMCwwLDAtLjIyMi0xLjUsMy43MzUsMy43MzUsMCwwLDAtLjc2Ni0xLjMsNi4yLDYuMiwwLDAsMC0xLjQ1Ni0xLjE2MSwxNS4xNjUsMTUuMTY1LDAsMCwwLTIuMy0xLjA4NiwxMy45MTgsMTMuOTE4LDAsMCwxLTEuODY0LS44MDYsMy4yNTUsMy4yNTUsMCwwLDEtMS4wMzEtLjgwOSwxLjQ5LDEuNDksMCwwLDEtLjMxOS0uOTQ0LDIuMSwyLjEsMCwwLDEsLjI3MS0xLjA2LDEuODYzLDEuODYzLDAsMCwxLC44MzYtLjc2MWMxLjQ1NC0uNjksNC4zMjctLjEzMiw1Ljc2My44MDdMMzEuNS4yMjRhOS43NzcsOS43NzcsMCwwLDAtNy41MjYtLjgyOUE1LjExMSw1LjExMSwwLDAsMCwyMi4yNDEuNDUxYTQuNjIyLDQuNjIyLDAsMCwwLTEuMDgxLDEuNTMsNC40NzgsNC40NzgsMCwwLDAtLjM3MSwxLjgsMy45NjksMy45NjksMCwwLDAsLjQwNiwxLjgyNiw0LjQxOCw0LjQxOCwwLDAsMCwxLjM2MiwxLjU0OCwxMC4yMTEsMTAuMjExLDAsMCwwLDIuNTUsMS4yOTNjLjczNy4yNzUsMS4zNDUuNTI2LDEuODE4Ljc2YTUuMzI2LDUuMzI2LDAsMCwxLDEuMDkzLjY3MSwxLjkxMSwxLjkxMSwwLDAsMSwuNTM1LjY3NCwxLjg4NywxLjg4NywwLDAsMSwuMTQzLjc1OSwxLjc1MywxLjc1MywwLDAsMS0uMy45OTIsMi4xMTMsMi4xMTMsMCwwLDEtLjkzNi43MzYsMy45OTQsMy45OTQsMCwwLDEtMS42LjI5LDkuOTk0LDkuOTk0LDAsMCwxLTUuMDQ0LTEuNTIxTDE5LjgsMTQuNDM2YTEyLjI1OSwxMi4yNTksMCwwLDAsNS45NiwxLjYxMiw3Ljg2Myw3Ljg2MywwLDAsMCwzLjE3MS0uNTc2LDQuNTE0LDQuNTE0LDAsMCwwLDIuMDI2LTEuNjI3LDQuNSw0LjUsMCwwLDAsLjcxNS0yLjUzNE0xMC45NDUsMTUuNzY2aDIuOTExVi0uNzI0SDEwLjk0NVoiLz4gPC9nPiA8ZyB0cmFuc2Zvcm09InRyYW5zbGF0ZSgzMDYuMzQgMzUuODQxKSI+IDxwYXRoIHRyYW5zZm9ybT0idHJhbnNsYXRlKDAgNTYuNDc3KSIgZD0iTTAtMzkuN0gxMC43MTl2LTIuNjc1SDIuOTA3Vi01Ni4xOTRIMFptNjcuMzY5LTE2LjQ5LTQuMiw3LjMtNC4yLTcuM0g1NS42MThsNi4wNTEsOS45NDVWLTM5LjdINjQuNnYtNi41Mmw2LjA1My05Ljk3Wk00OS4yNTctNDguNzI1djIuNmgwdjMuM2E5LjMzNCw5LjMzNCwwLDAsMS0zLjUyLjY1Niw2LjQ0Myw2LjQ0MywwLDAsMS0yLjM3Ni0uNDMyLDUuNjEzLDUuNjEzLDAsMCwxLTEuODg3LTEuMiw1LjQ2LDUuNDYsMCwwLDEtMS4yNDctMS44MTcsNS45MDgsNS45MDgsMCwwLDEtLjQ0OC0yLjI5NSw2LjI0Niw2LjI0NiwwLDAsMSwuNDMxLTIuMzM0LDUuMjY2LDUuMjY2LDAsMCwxLDEuMjM3LTEuODQzQTUuNjE0LDUuNjE0LDAsMCwxLDQzLjQwOS01My4zYTcuNTQxLDcuNTQxLDAsMCwxLDIuNjA5LS40MzIsOC4wODgsOC4wODgsMCwwLDEsMS41OTUuMTY1LDExLjIwOCwxMS4yMDgsMCwwLDEsMS4zODIuMzczYy40MS4xMzkuNzM0LjI2Mi45NzMuMzdzLjM2MS4xNjIuMzY1LjE2OWwxLjAxMi0yLjQ4OHMtLjA4Ni0uMDUtLjI1MS0uMTQtLjQxNi0uMi0uNzM1LS4zMjhhMTEuMzU2LDExLjM1NiwwLDAsMC0xLjE5NC0uNCwxMy44NDQsMTMuODQ0LDAsMCwwLTEuNjE5LS4zMzEsMTUuMzQ4LDE1LjM0OCwwLDAsMC0yLjAyMS0uMTM4LDkuMjU1LDkuMjU1LDAsMCwwLTIuOC40MzEsOS4xMjIsOS4xMjIsMCwwLDAtMi40MzgsMS4yLDguODI5LDguODI5LDAsMCwwLTEuOTMsMS44MzQsOC4yODUsOC4yODUsMCwwLDAtMS4yNjMsMi4zNCw4LjEyNiw4LjEyNiwwLDAsMC0uNDU5LDIuNzE0LDguNTkyLDguNTkyLDAsMCwwLC42NjksMy40LDcuODYsNy44NiwwLDAsMCwxLjg4NSwyLjcsOC41NjMsOC41NjMsMCwwLDAsMi45MjYsMS43OTEsMTAuNzY3LDEwLjc2NywwLDAsMCwzLjgwOS42NDksMTAuNTMxLDEwLjUzMSwwLDAsMCwzLjctLjY2QTEwLjEwOCwxMC4xMDgsMCwwLDAsNTIuMDcxLTQxLjN2LTcuNDI1Wm0tMzQuODgyLjc2NGE4Ljc1NSw4Ljc1NSwwLDAsMCwuNjYzLDMuMzkxLDguMjIzLDguMjIzLDAsMCwwLDEuODQxLDIuNyw4LjQzMyw4LjQzMywwLDAsMCwyLjc4OSwxLjc4Myw5LjYyNyw5LjYyNywwLDAsMCwzLjUuNjQ0LDkuNzU5LDkuNzU5LDAsMCwwLDIuODUzLS40MTgsOC44MjEsOC44MjEsMCwwLDAsMi40MzItMS4xOCw4LjI1MSw4LjI1MSwwLDAsMCwxLjg4NC0xLjgyMiw4LjI2OSw4LjI2OSwwLDAsMCwxLjIxNi0yLjM0Niw4LjgsOC44LDAsMCwwLC40MzQtMi43NDksOC44OSw4Ljg5LDAsMCwwLS42NTctMy40MDgsOC4wODMsOC4wODMsMCwwLDAtMS44MzQtMi43LDguMzc5LDguMzc5LDAsMCwwLTIuNzk1LTEuNzcyLDkuODI2LDkuODI2LDAsMCwwLTMuNTM0LS42MzcsOS4yOCw5LjI4LDAsMCwwLTIuODE3LjQzMSw4LjgsOC44LDAsMCwwLTIuNDE5LDEuMiw4LjUzOSw4LjUzOSwwLDAsMC0xLjg5MywxLjgzNCw4LjM0Miw4LjM0MiwwLDAsMC0xLjIyNywyLjM0LDguNTE5LDguNTE5LDAsMCwwLS40NDIsMi43MTRtMy4xNDIuMDQ4YTYuNTM4LDYuNTM4LDAsMCwxLC40MzEtMi4zNTUsNS43NjQsNS43NjQsMCwwLDEsMS4xODYtMS44OCw1LjM2OSw1LjM2OSwwLDAsMSwxLjgtMS4yNDcsNS43MjQsNS43MjQsMCwwLDEsMi4yNjUtLjQ1Myw1Ljc4Myw1Ljc4MywwLDAsMSwyLjI4NS40NTMsNS4yNDQsNS4yNDQsMCwwLDEsMS43OTIsMS4yNDcsNS42NTIsNS42NTIsMCwwLDEsMS4xNzgsMS44OCw2LjYxMyw2LjYxMywwLDAsMSwuNDIzLDIuMzU1LDYuMzA2LDYuMzA2LDAsMCwxLS40MzcsMi4zMzlBNS44NDEsNS44NDEsMCwwLDEsMjcuMjI5LTQzLjdhNS40OSw1LjQ5LDAsMCwxLTEuOCwxLjI0MUE1LjU0OCw1LjU0OCwwLDAsMSwyMy4xOTUtNDJhNS41Miw1LjUyLDAsMCwxLTIuMjMzLS40NTUsNS41MjIsNS41MjIsMCwwLDEtMS44LTEuMjYsNS44MjQsNS44MjQsMCwwLDEtMS4yLTEuODc3LDYuMzE4LDYuMzE4LDAsMCwxLS40MzktMi4zMTgiLz4gPC9nPiA8L2c+IDxnIHRyYW5zZm9ybT0idHJhbnNsYXRlKDE3NS43NzMgMjUpIj4gPHBhdGggZmlsbD0iI2UzMDMyZCIgdHJhbnNmb3JtPSJ0cmFuc2xhdGUoMCAyNS43MzgpIiBkPSJNMC0xOC4wOTQsMTcuOTQtNy43MzcsMzUuODgtMTguMDk0YTIwLjgyOCwyMC44MjgsMCwwLDAtNy42ODktNy42NDRMMTcuOTQtMTkuODE5LDcuNjg5LTI1LjczOEEyMC44MjgsMjAuODI4LDAsMCwwLDAtMTguMDk0Ii8+IDwvZz4gPGcgdHJhbnNmb3JtPSJ0cmFuc2xhdGUoMTczIDM1LjM0KSI+IDxwYXRoIGZpbGw9IiNmZmQ0MDAiIHRyYW5zZm9ybT0idHJhbnNsYXRlKDY5Ljc0MyAzNy40MjEpIiBkPSJNLTQ5LjAzLTI2LjMwOC02OC4yNzktMzcuNDIxYTIwLjY0NSwyMC42NDUsMCwwLDAtMS40NjQsNy42NjFBMjAuNzE1LDIwLjcxNSwwLDAsMC00OS4wMy05LjA0N1oiLz4gPC9nPiA8ZyB0cmFuc2Zvcm09InRyYW5zbGF0ZSgxOTMuNzEzIDM1LjM0KSI+IDxwYXRoIGZpbGw9IiM4NmJjMzQiIHRyYW5zZm9ybT0idHJhbnNsYXRlKDY0LjgxNCkiIGQ9Ik0tNDUuNTY1LDAtNjQuODE0LDExLjExM3YxNy4yNkEyMC43MTYsMjAuNzE2LDAsMCwwLTQ0LjEsNy42NjEsMjAuNjQzLDIwLjY0MywwLDAsMC00NS41NjUsMCIvPiA8L2c+IDwvZz4gPC9zdmc+;clipPath=inset(0% 79.33% 0% 0%);" parent="9gm0HyqsbW9hDULjH3VM-50" vertex="1">
          <mxGeometry x="210" y="110" width="23.16" height="21" as="geometry" />
        </mxCell>
        <mxCell id="9gm0HyqsbW9hDULjH3VM-61" value="" style="rounded=1;whiteSpace=wrap;html=1;arcSize=3;fillColor=#f5f5f5;strokeColor=#000000;strokeWidth=0;align=center;verticalAlign=middle;fontFamily=Helvetica;fontSize=12;fontColor=#333333;resizable=1;" parent="9gm0HyqsbW9hDULjH3VM-144" vertex="1">
          <mxGeometry x="18" width="278.36" height="63.64" as="geometry" />
        </mxCell>
        <mxCell id="9gm0HyqsbW9hDULjH3VM-62" value="Visiology-UI" style="text;html=1;align=center;verticalAlign=middle;whiteSpace=wrap;rounded=1;shadow=0;fontSize=23;fontStyle=1;fillColor=#f5f5f5;strokeColor=#666666;fontColor=#333333;" parent="9gm0HyqsbW9hDULjH3VM-144" vertex="1">
          <mxGeometry x="28" y="7" width="258.36" height="49" as="geometry" />
        </mxCell>
        <mxCell id="9gm0HyqsbW9hDULjH3VM-134" value="" style="endArrow=none;html=1;rounded=0;edgeStyle=elbowEdgeStyle;entryX=0.5;entryY=0;entryDx=0;entryDy=0;startArrow=classic;startFill=1;endFill=0;endSize=8;startSize=8;strokeWidth=2;exitX=0;exitY=0.5;exitDx=0;exitDy=0;" parent="1" source="9gm0HyqsbW9hDULjH3VM-15" target="DJda7eC-gQhfn4efG2wS-27" edge="1">
          <mxGeometry width="50" height="50" relative="1" as="geometry">
            <mxPoint x="-2962" y="-4557.5" as="sourcePoint" />
            <mxPoint x="-3311" y="-4536.5" as="targetPoint" />
            <Array as="points">
              <mxPoint x="-3150" y="-4530" />
            </Array>
          </mxGeometry>
        </mxCell>
        <mxCell id="wZk0SVXomOxiCGmW0Pwh-4" value="" style="shape=image;verticalLabelPosition=bottom;labelBackgroundColor=default;verticalAlign=top;aspect=fixed;imageAspect=0;image=data:image/svg+xml,PHN2ZyB4bWxucz0iaHR0cDovL3d3dy53My5vcmcvMjAwMC9zdmciIHZpZXdCb3g9IjAgLTEwLjQ0IDcyMi44NDYgNzIyLjg0NiIgaGVpZ2h0PSI4MDBweCIgd2lkdGg9IjgwMHB4Ij48cGF0aCBmaWxsPSIjMzI2Y2U1IiBkPSJNMzU4Ljk4NiAxMC4wNmE0Ni43MjUgNDYuMzQyIDAgMDAtMTcuOTA2IDQuNTMxTDk2LjczNiAxMzEuMzQxYTQ2LjcyNSA0Ni4zNDIgMCAwMC0yNS4yOCAzMS40MzhsLTYwLjI4MiAyNjIuMjVhNDYuNzI1IDQ2LjM0MiAwIDAwNi4zNDQgMzUuNTMxIDQ2LjcyNSA0Ni4zNDIgMCAwMDIuNjU2IDMuNjg4bDE2OS4xMjUgMjEwLjI4YTQ2LjcyNSA0Ni4zNDIgMCAwMDM2LjUzMSAxNy40MzhsMjcxLjIxOS0uMDYyYTQ2LjcyNSA0Ni4zNDIgMCAwMDM2LjUzMS0xNy40MDZsMTY5LjA2My0yMTAuMzEzYTQ2LjcyNSA0Ni4zNDIgMCAwMDkuMDMtMzkuMjE5TDY1MS4zIDE2Mi43MTZhNDYuNzI1IDQ2LjM0MiAwIDAwLTI1LjI4MS0zMS40MzdMMzgxLjY0MyAxNC41OWE0Ni43MjUgNDYuMzQyIDAgMDAtMjIuNjU3LTQuNTN6Ii8+PHBhdGggZm9udC1mYW1pbHk9IlNhbnMiIG92ZXJmbG93PSJ2aXNpYmxlIiBzdHJva2Utd2lkdGg9Ii4yNSIgc3Ryb2tlPSIjZmZmZmZmIiBmaWxsPSIjZmZmZmZmIiBjb2xvcj0iIzAwMDAwMCIgZm9udC13ZWlnaHQ9IjQwMCIgc3R5bGU9InRleHQtaW5kZW50OjA7dGV4dC1hbGlnbjpzdGFydDtsaW5lLWhlaWdodDpub3JtYWw7dGV4dC10cmFuc2Zvcm06bm9uZTtibG9jay1wcm9ncmVzc2lvbjp0YjttYXJrZXI6bm9uZTstaW5rc2NhcGUtZm9udC1zcGVjaWZpY2F0aW9uOlNhbnMiIGQ9Ik0zNjEuNDA4IDk5LjMwN2MtOC4wNzcuMDAxLTE0LjYyNiA3LjI3Ni0xNC42MjUgMTYuMjUgMCAuMTM4LjAyOC4yNy4wMy40MDYtLjAxMSAxLjIyLS4wNyAyLjY4OS0uMDMgMy43NS4xOTIgNS4xNzYgMS4zMiA5LjEzOCAyIDEzLjkwNyAxLjIzIDEwLjIwNiAyLjI2IDE4LjY2NyAxLjYyNSAyNi41MzEtLjYyIDIuOTY1LTIuODAzIDUuNjc3LTQuNzUgNy41NjJsLS4zNDQgNi4xODhhMTkwLjMzNyAxOTAuMzM3IDAgMDAtMjYuNDM4IDQuMDYyYy0zNy45NzQgOC42MjMtNzAuNjcgMjguMTg0LTk1LjU2MiA1NC41OTRhMjQ1LjE2NyAyNDUuMTY3IDAgMDEtNS4yODEtMy43NWMtMi42MTIuMzUzLTUuMjUgMS4xNTktOC42ODgtLjg0NC02LjU0NS00LjQwNS0xMi41MDYtMTAuNDg2LTE5LjcxOS0xNy44MTItMy4zMDUtMy41MDQtNS42OTgtNi44NDEtOS42MjUtMTAuMjE5LS44OTEtLjc2Ny0yLjI1Mi0xLjgwNC0zLjI1LTIuNTk0LTMuMDctMi40NDctNi42OS0zLjcyNC0xMC4xODctMy44NDMtNC40OTYtLjE1NC04LjgyNCAxLjYwNC0xMS42NTYgNS4xNTYtNS4wMzYgNi4zMTUtMy40MjQgMTUuOTY4IDMuNTkzIDIxLjU2Mi4wNzEuMDU3LjE0Ny4xMDEuMjE5LjE1Ny45NjQuNzgxIDIuMTQ1IDEuNzgzIDMuMDMxIDIuNDM3IDQuMTY3IDMuMDc3IDcuOTczIDQuNjUyIDEyLjEyNSA3LjA5NCA4Ljc0NyA1LjQwMiAxNS45OTkgOS44OCAyMS43NSAxNS4yODEgMi4yNDYgMi4zOTQgMi42MzkgNi42MTMgMi45MzggOC40MzhsNC42ODcgNC4xODdjLTI1LjA5MyAzNy43NjQtMzYuNzA3IDg0LjQxLTI5Ljg0MyAxMzEuOTM4bC02LjEyNSAxLjc4MWMtMS42MTUgMi4wODUtMy44OTYgNS4zNjUtNi4yODIgNi4zNDQtNy41MjUgMi4zNy0xNS45OTQgMy4yNC0yNi4yMTggNC4zMTItNC44LjQtOC45NDMuMTYxLTE0LjAzMiAxLjEyNS0xLjEyLjIxMi0yLjY4LjYxOS0zLjkwNi45MDZsLS4xMjUuMDMyYy0uMDY3LjAxNS0uMTU1LjA0OC0uMjE5LjA2Mi04LjYyIDIuMDgzLTE0LjE1NyAxMC4wMDYtMTIuMzc1IDE3LjgxMyAxLjc4MyA3LjgwOCAxMC4yMDMgMTIuNTU2IDE4Ljg3NSAxMC42ODcuMDYzLS4wMTQuMTU0LS4wMTcuMjE5LS4wMzEuMDk4LS4wMjIuMTg0LS4wNy4yODEtLjA5NCAxLjIxLS4yNjUgMi43MjQtLjU2IDMuNzgyLS44NDMgNS4wMDMtMS4zNCA4LjYyNi0zLjMwOCAxMy4xMjUtNS4wMzIgOS42NzYtMy40NyAxNy42OTEtNi4zNyAyNS41LTcuNSAzLjI2LS4yNTUgNi42OTcgMi4wMTIgOC40MDYgMi45NjlsNi4zNzUtMS4wOTRjMTQuNjcgNDUuNDgzIDQ1LjQxNCA4Mi4yNDUgODQuMzQ0IDEwNS4zMTNsLTIuNjU3IDYuMzc1Yy45NTggMi40NzUgMi4wMTQgNS44MjQgMS4zIDguMjctMi44MzggNy4zNi03LjcgMTUuMTMtMTMuMjM3IDIzLjc5Mi0yLjY4MSA0LjAwMi01LjQyNSA3LjEwOC03Ljg0NCAxMS42ODgtLjU3OSAxLjA5Ni0xLjMxNiAyLjc4LTEuODc1IDMuOTM3LTMuNzU5IDguMDQzLTEuMDAyIDE3LjMwNSA2LjIxOSAyMC43ODIgNy4yNjYgMy40OTcgMTYuMjg0LS4xOTIgMjAuMTg3LTguMjUuMDA2LS4wMTIuMDI2LS4wMi4wMzEtLjAzMi4wMDQtLjAwOS0uMDA0LS4wMjIgMC0uMDMuNTU2LTEuMTQzIDEuMzQ0LTIuNjQ1IDEuODEzLTMuNzIgMi4wNzItNC43NDcgMi43NjItOC44MTUgNC4yMTktMTMuNDA2IDMuODctOS43MiA1Ljk5NS0xOS45MTkgMTEuMzIyLTI2LjI3NCAxLjQ1OS0xLjc0IDMuODM3LTIuNDEgNi4zMDMtMy4wN2wzLjMxMi02YzMzLjkzOCAxMy4wMjcgNzEuOTI3IDE2LjUyMyAxMDkuODc1IDcuOTA3YTE4OS43NyAxODkuNzcgMCAwMDI1LjA5NC03LjU2M2MuOTMgMS42NTEgMi42NjEgNC44MjYgMy4xMjUgNS42MjUgMi41MDYuODE1IDUuMjQgMS4yMzYgNy40NjkgNC41MzEgMy45ODUgNi44MSA2LjcxIDE0Ljg2NSAxMC4wMzEgMjQuNTk0IDEuNDU3IDQuNTkxIDIuMTc4IDguNjYgNC4yNSAxMy40MDYuNDcyIDEuMDgyIDEuMjU2IDIuNjA1IDEuODEyIDMuNzUgMy44OTUgOC4wODUgMTIuOTQzIDExLjc4NyAyMC4yMiA4LjI4MiA3LjIxOS0zLjQ3OCA5Ljk3OS0xMi43NCA2LjIxOC0yMC43ODItLjU1OS0xLjE1OC0xLjMyNy0yLjg0MS0xLjkwNi0zLjkzNy0yLjQyLTQuNTgtNS4xNjMtNy42NTUtNy44NDQtMTEuNjU2LTUuNTM3LTguNjYyLTEwLjEzLTE1Ljg1OC0xMi45NjktMjMuMjItMS4xODctMy43OTYuMi02LjE1NyAxLjEyNS04LjYyNC0uNTU0LS42MzUtMS43MzktNC4yMi0yLjQzNy01LjkwNiA0MC40NTctMjMuODg5IDcwLjI5OC02Mi4wMjIgODQuMzEyLTEwNi4wNjMgMS44OTMuMjk4IDUuMTgyLjg4IDYuMjUgMS4wOTQgMi4yLTEuNDUgNC4yMjItMy4zNDQgOC4xODgtMy4wMzEgNy44MDggMS4xMjkgMTUuODIzIDQuMDMgMjUuNSA3LjUgNC40OTggMS43MjMgOC4xMjEgMy43MjMgMTMuMTI1IDUuMDYyIDEuMDU3LjI4MyAyLjU3Mi41NDcgMy43ODEuODEzLjA5Ny4wMjMuMTgzLjA3MS4yODEuMDkzLjA2Ni4wMTUuMTU2LjAxNy4yMTkuMDMyIDguNjcyIDEuODY2IDE3LjA5NC0yLjg4IDE4Ljg3NS0xMC42ODggMS43OC03LjgwNy0zLjc1NC0xNS43MzItMTIuMzc1LTE3LjgxMi0xLjI1NC0uMjg2LTMuMDMyLS43Ny00LjI1LTEtNS4wOS0uOTY0LTkuMjMxLS43MjctMTQuMDMxLTEuMTI1LTEwLjIyNS0xLjA3Mi0xOC42OTQtMS45NDMtMjYuMjE5LTQuMzEzLTMuMDY4LTEuMTktNS4yNTEtNC44NDEtNi4zMTMtNi4zNDRsLTUuOTA2LTEuNzE4YzMuMDYyLTIyLjE1NSAyLjIzNy00NS4yMTItMy4wNjItNjguMjgyLTUuMzQ5LTIzLjI4NC0xNC44LTQ0LjU4LTI3LjQwNy02My4zNDMgMS41MTUtMS4zNzggNC4zNzctMy45MTEgNS4xODgtNC42NTcuMjM3LTIuNjI0LjAzMy01LjM3NSAyLjc1LTguMjgxIDUuNzUxLTUuNCAxMy4wMDMtOS44NzkgMjEuNzUtMTUuMjgxIDQuMTUyLTIuNDQzIDcuOTktNC4wMTcgMTIuMTU2LTcuMDk0Ljk0Mi0uNjk2IDIuMjMtMS43OTggMy4yMTktMi41OTQgNy4wMTUtNS41OTYgOC42My0xNS4yNDggMy41OTQtMjEuNTYyLTUuMDM3LTYuMzE0LTE0Ljc5Ny02LjkxLTIxLjgxMy0xLjMxMy0uOTk4Ljc5MS0yLjM1MyAxLjgyMy0zLjI1IDIuNTk0LTMuOTI2IDMuMzc4LTYuMzUxIDYuNzE0LTkuNjU2IDEwLjIxOS03LjIxMyA3LjMyNi0xMy4xNzQgMTMuNDM4LTE5LjcxOSAxNy44NDQtMi44MzYgMS42NS02Ljk5IDEuMDgtOC44NzUuOTY4bC01LjU2MiAzLjk2OWMtMzEuNzItMzMuMjYtNzQuOTA1LTU0LjUyNS0xMjEuNDA2LTU4LjY1Ni0uMTMtMS45NDktLjMtNS40NzEtLjM0NC02LjUzMi0xLjkwNC0xLjgyMS00LjIwNC0zLjM3Ni00Ljc4MS03LjMxMi0uNjM3LTcuODY0LjQyNi0xNi4zMjUgMS42NTYtMjYuNTMxLjY3OS00Ljc2OSAxLjgwNy04LjczIDItMTMuOTA3LjA0NC0xLjE3Ni0uMDI3LTIuODg0LS4wMzEtNC4xNTYtLjAwMS04Ljk3NC02LjU0OC0xNi4yNS0xNC42MjUtMTYuMjV6bS0xOC4zMTMgMTEzLjQzOGwtNC4zNDQgNzYuNzE4LS4zMTIuMTU3Yy0uMjkyIDYuODYzLTUuOTQgMTIuMzQzLTEyLjg3NSAxMi4zNDMtMi44NDEgMC01LjQ2My0uOTEyLTcuNTk0LTIuNDY4bC0uMTI1LjA2Mi02Mi45MDYtNDQuNTk0YzE5LjMzMy0xOS4wMSA0NC4wNjMtMzMuMDYgNzIuNTYyLTM5LjUzYTE1NC4xMjUgMTU0LjEyNSAwIDAxMTUuNTk0LTIuNjg4em0zNi42NTYgMGMzMy4yNzQgNC4wOTIgNjQuMDQ1IDE5LjE1OSA4Ny42MjUgNDIuMjVsLTYyLjUgNDQuMzEyLS4yMTgtLjA5M2MtNS41NDggNC4wNTEtMTMuMzY0IDMuMDQ2LTE3LjY4OC0yLjM3NWExMi44MDcgMTIuODA3IDAgMDEtMi44MTItNy40N2wtLjA2My0uMDN6TTIzMi4xMjYgMjgzLjYybDU3LjQzOCA1MS4zNzUtLjA2My4zMTJjNS4xODUgNC41MDcgNS45NSAxMi4zMjggMS42MjUgMTcuNzVhMTIuODkyIDEyLjg5MiAwIDAxLTYuNjg3IDQuNDA2bC0uMDYzLjI1LTczLjYyNSAyMS4yNWMtMy43NDctMzQuMjY1IDQuMzI5LTY3LjU3MyAyMS4zNzUtOTUuMzQzem0yNTguMTU3LjAzYzguNTM0IDEzLjgzMyAxNC45OTYgMjkuMjgzIDE4Ljg0MyA0Ni4wMzIgMy44MDEgMTYuNTQ4IDQuNzU1IDMzLjA2NyAzLjE4OCA0OS4wMzFsLTc0LTIxLjMxMi0uMDYzLS4zMTNjLTYuNjI2LTEuODEtMTAuNjk5LTguNTUxLTkuMTU2LTE1LjMxMmExMi43ODYgMTIuNzg2IDAgMDE0LjA5NC02Ljg0NGwtLjAzMS0uMTU2IDU3LjEyNS01MS4xMjV6bS0xNDAuNjU3IDU1LjMxM2gyMy41MzJsMTQuNjI1IDE4LjI4Mi01LjI1IDIyLjgxMi0yMS4xMjUgMTAuMTU2LTIxLjE4OC0xMC4xODctNS4yNS0yMi44MTN6bTc1LjQzOCA2Mi41NjNjMS0uMDUgMS45OTUuMDQgMi45NjkuMjE5bC4xMjUtLjE1NyA3Ni4xNTYgMTIuODc1Yy0xMS4xNDYgMzEuMzE0LTMyLjQ3MyA1OC40NC02MC45NjkgNzYuNTk0bC0yOS41NjItNzEuNDA2LjA5My0uMTI1Yy0yLjcxNS02LjMxLjAwMi0xMy43MSA2LjI1LTE2LjcxOSAxLjYtLjc3IDMuMjcxLTEuMTk3IDQuOTM4LTEuMjgxem0tMTI3LjkwNi4zMTJjNS44MTEuMDgyIDExLjAyNCA0LjExNiAxMi4zNzUgMTAuMDMyLjYzMiAyLjc3LjMyNCA1LjUxMy0uNzIgNy45MzdsLjIyLjI4MS0yOS4yNSA3MC42ODhjLTI3LjM0OC0xNy41NDktNDkuMTMtNDMuODI0LTYwLjc4Mi03Ni4wNjNsNzUuNS0xMi44MTIuMTI1LjE1NmMuODQ1LS4xNTUgMS43MDEtLjIzIDIuNTMyLS4yMTl6bTYzLjc4IDMwLjk3YTEyLjc2NCAxMi43NjQgMCAwMTYuMDMyIDEuMjhjMi41NiAxLjIzMyA0LjUzNyAzLjE3NCA1Ljc4MSA1LjVoLjI4MmwzNy4yMTggNjcuMjVhMTU0LjI1NiAxNTQuMjU2IDAgMDEtMTQuODc1IDQuMTU3Yy0yOC40NjQgNi40NjMtNTYuODM4IDQuNTA0LTgyLjUzLTQuMjVsMzcuMTI0LTY3LjEyNWguMDYzYTEyLjkxIDEyLjkxIDAgMDExMC45MDYtNi44MTN6Ii8+PC9zdmc+;" parent="1" vertex="1">
          <mxGeometry x="-3090" y="-5490" width="60" height="60" as="geometry" />
        </mxCell>
        <mxCell id="HijE4YzQ6DnrZXbQjMkM-5" value="" style="group" parent="1" vertex="1" connectable="0">
          <mxGeometry x="-2965.42" y="-5080" width="280.84000000000015" height="160" as="geometry" />
        </mxCell>
        <mxCell id="HijE4YzQ6DnrZXbQjMkM-6" value="&lt;font color=&quot;#000000&quot;&gt;&lt;i&gt;ns: ebdz-auth&lt;/i&gt;&lt;/font&gt;" style="rounded=1;whiteSpace=wrap;html=1;arcSize=3;fillColor=#f5f5f5;strokeColor=#000000;strokeWidth=1;align=left;verticalAlign=top;fontFamily=Helvetica;fontSize=12;fontColor=#333333;resizable=1;container=0;dashed=1;dashPattern=12 12;spacingLeft=5;" parent="HijE4YzQ6DnrZXbQjMkM-5" vertex="1">
          <mxGeometry width="280.84" height="160" as="geometry" />
        </mxCell>
        <mxCell id="HijE4YzQ6DnrZXbQjMkM-7" value="9" style="ellipse;whiteSpace=wrap;html=1;aspect=fixed;rounded=1;fillColor=#0050ef;strokeColor=#001DBC;fontStyle=1;fontColor=#ffffff;container=0;" parent="HijE4YzQ6DnrZXbQjMkM-5" vertex="1">
          <mxGeometry x="249.57999999999947" y="130" width="23" height="23" as="geometry" />
        </mxCell>
        <mxCell id="HijE4YzQ6DnrZXbQjMkM-8" value="&lt;span style=&quot;font-size: 11px;&quot;&gt;&lt;b&gt;dev&lt;/b&gt;&lt;/span&gt;" style="rounded=1;whiteSpace=wrap;html=1;fillColor=#ffcccc;strokeColor=#36393d;container=0;" parent="HijE4YzQ6DnrZXbQjMkM-5" vertex="1">
          <mxGeometry x="10.420000000000073" y="130" width="60" height="20" as="geometry" />
        </mxCell>
        <mxCell id="HijE4YzQ6DnrZXbQjMkM-9" value="&lt;span style=&quot;font-size: 14px;&quot;&gt;&lt;b&gt;Сервис аутентификации&lt;/b&gt;&lt;/span&gt;" style="rounded=1;whiteSpace=wrap;html=1;arcSize=13;fillColor=#dae8fc;strokeColor=#6c8ebf;strokeWidth=1;align=center;verticalAlign=middle;fontFamily=Helvetica;fontSize=12;resizable=1;container=0;" parent="HijE4YzQ6DnrZXbQjMkM-5" vertex="1">
          <mxGeometry x="60.42000000000007" y="45" width="160" height="70" as="geometry" />
        </mxCell>
        <mxCell id="HijE4YzQ6DnrZXbQjMkM-10" value="" style="group" parent="1" vertex="1" connectable="0">
          <mxGeometry x="-2985" y="-5410" width="315.28999999999996" height="180" as="geometry" />
        </mxCell>
        <mxCell id="HijE4YzQ6DnrZXbQjMkM-11" value="" style="group" parent="HijE4YzQ6DnrZXbQjMkM-10" vertex="1" connectable="0">
          <mxGeometry width="300.4199999999999" height="180" as="geometry" />
        </mxCell>
        <mxCell id="BHnDcMYj4xYxUDNpLY_9-2" value="" style="group" parent="HijE4YzQ6DnrZXbQjMkM-11" vertex="1" connectable="0">
          <mxGeometry x="19.579999999999927" y="20" width="280.84" height="160" as="geometry" />
        </mxCell>
        <mxCell id="HijE4YzQ6DnrZXbQjMkM-12" value="&lt;font color=&quot;#000000&quot;&gt;&lt;i&gt;ecpk-keycloak&lt;/i&gt;&lt;/font&gt;" style="rounded=1;whiteSpace=wrap;html=1;arcSize=3;fillColor=#f5f5f5;strokeColor=#000000;strokeWidth=1;align=left;verticalAlign=top;fontFamily=Helvetica;fontSize=12;fontColor=#333333;resizable=1;container=0;dashed=1;dashPattern=12 12;spacingLeft=5;" parent="BHnDcMYj4xYxUDNpLY_9-2" vertex="1">
          <mxGeometry width="280.84" height="160" as="geometry" />
        </mxCell>
        <mxCell id="HijE4YzQ6DnrZXbQjMkM-13" value="10" style="ellipse;whiteSpace=wrap;html=1;aspect=fixed;rounded=1;fillColor=#0050ef;strokeColor=#001DBC;fontStyle=1;fontColor=#ffffff;container=0;" parent="BHnDcMYj4xYxUDNpLY_9-2" vertex="1">
          <mxGeometry x="249.57999999999947" y="130" width="23" height="23" as="geometry" />
        </mxCell>
        <mxCell id="HijE4YzQ6DnrZXbQjMkM-14" value="&lt;span style=&quot;font-size: 11px;&quot;&gt;&lt;b&gt;auth&lt;/b&gt;&lt;/span&gt;" style="rounded=1;whiteSpace=wrap;html=1;fillColor=#ffe6cc;strokeColor=#d79b00;container=0;" parent="BHnDcMYj4xYxUDNpLY_9-2" vertex="1">
          <mxGeometry x="10.420000000000073" y="130" width="60" height="20" as="geometry" />
        </mxCell>
        <mxCell id="HijE4YzQ6DnrZXbQjMkM-15" value="&lt;span style=&quot;color: rgb(0, 0, 0); font-weight: 700;&quot;&gt;&lt;font style=&quot;font-size: 18px;&quot;&gt;Keycloak&lt;/font&gt;&lt;/span&gt;" style="rounded=1;whiteSpace=wrap;html=1;arcSize=13;fillColor=#f8cecc;strokeColor=#b85450;strokeWidth=1;align=center;verticalAlign=middle;fontFamily=Helvetica;fontSize=12;resizable=1;container=0;" parent="BHnDcMYj4xYxUDNpLY_9-2" vertex="1">
          <mxGeometry x="60.42000000000007" y="45" width="160" height="70" as="geometry" />
        </mxCell>
        <mxCell id="BHnDcMYj4xYxUDNpLY_9-1" value="" style="shape=image;verticalLabelPosition=bottom;labelBackgroundColor=default;verticalAlign=top;aspect=fixed;imageAspect=0;image=data:image/svg+xml,PHN2ZyB4bWxucz0iaHR0cDovL3d3dy53My5vcmcvMjAwMC9zdmciIHZpZXdCb3g9IjAgMCAxMDI0IDEwMjQiIGhlaWdodD0iODAwcHgiIHdpZHRoPSI4MDBweCI+JiN4YTsgICA8Y2lyY2xlIHN0eWxlPSJmaWxsOiMwMDhhYWEiIHI9IjUxMiIgY3k9IjUxMiIgY3g9IjUxMiIvPiYjeGE7ICAgPHBhdGggc3R5bGU9ImZpbGw6I2ZmZiIgZD0iTTc4Ni4yIDM5NS41aC04MC42Yy0xLjUgMC0zLS44LTMuNy0yLjFsLTY0LjctMTEyLjJjLS44LTEuMy0yLjItMi4xLTMuOC0yLjFoLTI2NGMtMS41IDAtMyAuOC0zLjcgMi4xbC02Ny4zIDExNi40LTY0LjggMTEyLjJjLS43IDEuMy0uNyAyLjkgMCA0LjNsNjQuOCAxMTIuMiA2Ny4yIDExNi41Yy43IDEuMyAyLjIgMi4yIDMuNyAyLjFoMjY0LjFjMS41IDAgMy0uOCAzLjgtMi4xTDcwMiA2MzAuNmMuNy0xLjMgMi4yLTIuMiAzLjctMi4xaDgwLjZjMi43IDAgNC44LTIuMiA0LjgtNC44VjQwMC40Yy0uMS0yLjctMi4zLTQuOS00LjktNC45ek00NzcuNSA2MzAuNmwtMjAuMyAzNWMtLjMuNS0uOCAxLTEuMyAxLjMtLjYuMy0xLjIuNS0xLjkuNWgtNDAuM2MtMS40IDAtMi43LS43LTMuMy0ybC02MC4xLTEwNC4zLTUuOS0xMC4zLTIxLjYtMzYuOWMtLjMtLjUtLjUtMS4xLS40LTEuOCAwLS42LjItMS4zLjUtMS44bDIxLjctMzcuNiA2NS45LTExNGMuNy0xLjIgMi0yIDMuMy0ySDQ1NGMuNyAwIDEuNC4yIDIuMS41LjUuMyAxIC43IDEuMyAxLjNsMjAuMyAzNS4yYy42IDEuMi41IDIuNy0uMiAzLjhsLTY1LjEgMTEyLjhjLS4zLjUtLjQgMS4xLS40IDEuNiAwIC42LjIgMS4xLjQgMS42bDY1LjEgMTEyLjdjLjkgMS41LjggMy4xIDAgNC40em0yMDIuMS0xMTYuN0w2NTggNTUwLjhsLTUuOSAxMC4zTDU5MiA2NjUuNGMtLjcgMS4yLTEuOSAyLTMuMyAyaC00MC4zYy0uNyAwLTEuMy0uMi0xLjktLjUtLjUtLjMtMS0uNy0xLjMtMS4zbC0yMC4zLTM1Yy0uOS0xLjMtLjktMi45LS4xLTQuMmw2NS4xLTExMi43Yy4zLS41LjQtMS4xLjQtMS42IDAtLjYtLjItMS4xLS40LTEuNmwtNjUuMS0xMTIuOGMtLjctMS4yLS44LTIuNi0uMi0zLjhsMjAuMy0zNS4yYy4zLS41LjgtMSAxLjMtMS4zLjYtLjQgMS4zLS41IDIuMS0uNWg0MC40YzEuNCAwIDIuNy43IDMuMyAybDY1LjkgMTE0IDIxLjcgMzcuNmMuMy42LjUgMS4yLjUgMS44IDAgLjQtLjIgMS0uNSAxLjZ6Ii8+JiN4YTs8L3N2Zz4=;" parent="BHnDcMYj4xYxUDNpLY_9-2" vertex="1">
          <mxGeometry x="187.41999999999985" y="81" width="30" height="30" as="geometry" />
        </mxCell>
        <mxCell id="BHnDcMYj4xYxUDNpLY_9-5" value="" style="group" parent="1" vertex="1" connectable="0">
          <mxGeometry x="-2592" y="-4795" width="280.8399999999999" height="228.63999999999942" as="geometry" />
        </mxCell>
        <mxCell id="BHnDcMYj4xYxUDNpLY_9-6" value="" style="rounded=1;whiteSpace=wrap;html=1;arcSize=3;fillColor=#f5f5f5;strokeColor=#000000;strokeWidth=0;align=center;verticalAlign=middle;fontFamily=Helvetica;fontSize=12;fontColor=#333333;resizable=1;" parent="BHnDcMYj4xYxUDNpLY_9-5" vertex="1">
          <mxGeometry x="2.4200000000000728" width="278.36" height="63.64" as="geometry" />
        </mxCell>
        <mxCell id="BHnDcMYj4xYxUDNpLY_9-7" value="Common-UI" style="text;html=1;align=center;verticalAlign=middle;whiteSpace=wrap;rounded=1;shadow=0;fontSize=23;fontStyle=1;fillColor=#f5f5f5;strokeColor=#666666;fontColor=#333333;" parent="BHnDcMYj4xYxUDNpLY_9-5" vertex="1">
          <mxGeometry x="12.420000000000073" y="7" width="258.36" height="49" as="geometry" />
        </mxCell>
        <mxCell id="BHnDcMYj4xYxUDNpLY_9-8" value="&lt;font color=&quot;#000000&quot;&gt;&lt;i&gt;ns: ebdz-fileload&lt;/i&gt;&lt;/font&gt;" style="rounded=1;whiteSpace=wrap;html=1;arcSize=3;fillColor=#f5f5f5;strokeColor=#000000;strokeWidth=1;align=left;verticalAlign=top;fontFamily=Helvetica;fontSize=12;fontColor=#333333;resizable=1;container=0;dashed=1;dashPattern=12 12;spacingLeft=5;" parent="BHnDcMYj4xYxUDNpLY_9-5" vertex="1">
          <mxGeometry y="68.63999999999942" width="280.84" height="160" as="geometry" />
        </mxCell>
        <mxCell id="BHnDcMYj4xYxUDNpLY_9-9" value="8" style="ellipse;whiteSpace=wrap;html=1;aspect=fixed;rounded=1;fillColor=#0050ef;strokeColor=#001DBC;fontStyle=1;fontColor=#ffffff;container=0;" parent="BHnDcMYj4xYxUDNpLY_9-5" vertex="1">
          <mxGeometry x="249.57999999999947" y="198.63999999999942" width="23" height="23" as="geometry" />
        </mxCell>
        <mxCell id="BHnDcMYj4xYxUDNpLY_9-10" value="&lt;span style=&quot;font-size: 11px;&quot;&gt;&lt;b&gt;dev&lt;/b&gt;&lt;/span&gt;" style="rounded=1;whiteSpace=wrap;html=1;fillColor=#ffcccc;strokeColor=#36393d;container=0;" parent="BHnDcMYj4xYxUDNpLY_9-5" vertex="1">
          <mxGeometry x="10.420000000000073" y="198.63999999999942" width="60" height="20" as="geometry" />
        </mxCell>
        <mxCell id="BHnDcMYj4xYxUDNpLY_9-11" value="&lt;span style=&quot;color: rgb(0, 0, 0); font-weight: 700;&quot;&gt;&lt;font style=&quot;font-size: 14px;&quot;&gt;Сервис загрузки и обработки файлов Excel&lt;/font&gt;&lt;/span&gt;" style="rounded=1;whiteSpace=wrap;html=1;arcSize=13;fillColor=#dae8fc;strokeColor=#6c8ebf;strokeWidth=1;align=center;verticalAlign=middle;fontFamily=Helvetica;fontSize=12;resizable=1;container=0;" parent="BHnDcMYj4xYxUDNpLY_9-5" vertex="1">
          <mxGeometry x="60.42000000000007" y="113.63999999999942" width="160" height="70" as="geometry" />
        </mxCell>
        <mxCell id="BHnDcMYj4xYxUDNpLY_9-13" style="edgeStyle=orthogonalEdgeStyle;rounded=0;orthogonalLoop=1;jettySize=auto;html=1;exitX=0;exitY=0.5;exitDx=0;exitDy=0;entryX=0.5;entryY=1;entryDx=0;entryDy=0;endArrow=none;endFill=0;endSize=8;startSize=8;strokeWidth=2;startArrow=classic;startFill=1;" parent="1" source="7-6c2CMcGdHakHLiAiGI-65" target="BHnDcMYj4xYxUDNpLY_9-8" edge="1">
          <mxGeometry relative="1" as="geometry">
            <mxPoint x="-2740.18" y="-4232.5" as="sourcePoint" />
            <mxPoint x="-2249.18" y="-4367.5" as="targetPoint" />
            <Array as="points">
              <mxPoint x="-2452" y="-4150" />
            </Array>
          </mxGeometry>
        </mxCell>
        <mxCell id="BHnDcMYj4xYxUDNpLY_9-14" value="&lt;div&gt;&lt;div&gt;Трансформированные&lt;/div&gt;&lt;div&gt;&amp;nbsp;данные (JDBC)&lt;/div&gt;&lt;/div&gt;" style="edgeLabel;html=1;align=center;verticalAlign=middle;resizable=0;points=[];fontSize=16;" parent="BHnDcMYj4xYxUDNpLY_9-13" vertex="1" connectable="0">
          <mxGeometry x="0.7535" y="-2" relative="1" as="geometry">
            <mxPoint x="-11" y="42" as="offset" />
          </mxGeometry>
        </mxCell>
        <mxCell id="BHnDcMYj4xYxUDNpLY_9-15" style="edgeStyle=elbowEdgeStyle;rounded=0;orthogonalLoop=1;jettySize=auto;html=1;exitX=0.5;exitY=0;exitDx=0;exitDy=0;entryX=0.5;entryY=1;entryDx=0;entryDy=0;endArrow=classic;endFill=1;endSize=8;startSize=8;strokeWidth=2;startArrow=none;startFill=0;elbow=vertical;" parent="1" source="HijE4YzQ6DnrZXbQjMkM-6" target="HijE4YzQ6DnrZXbQjMkM-12" edge="1">
          <mxGeometry relative="1" as="geometry">
            <mxPoint x="-2172.7799999999997" y="-4860" as="sourcePoint" />
            <mxPoint x="-1794.78" y="-4985" as="targetPoint" />
          </mxGeometry>
        </mxCell>
        <mxCell id="BHnDcMYj4xYxUDNpLY_9-17" style="edgeStyle=elbowEdgeStyle;rounded=0;orthogonalLoop=1;jettySize=auto;html=1;exitX=0.5;exitY=0;exitDx=0;exitDy=0;entryX=0.5;entryY=1;entryDx=0;entryDy=0;endArrow=classic;endFill=1;endSize=8;startSize=8;strokeWidth=2;startArrow=none;startFill=0;elbow=vertical;" parent="1" source="BHnDcMYj4xYxUDNpLY_9-6" target="HijE4YzQ6DnrZXbQjMkM-6" edge="1">
          <mxGeometry relative="1" as="geometry">
            <mxPoint x="-2448.17" y="-4839" as="sourcePoint" />
            <mxPoint x="-2447.17" y="-4910" as="targetPoint" />
            <Array as="points">
              <mxPoint x="-2640" y="-4850" />
            </Array>
          </mxGeometry>
        </mxCell>
        <mxCell id="BHnDcMYj4xYxUDNpLY_9-19" style="edgeStyle=elbowEdgeStyle;rounded=0;orthogonalLoop=1;jettySize=auto;html=1;exitX=0.5;exitY=0;exitDx=0;exitDy=0;entryX=0.5;entryY=1;entryDx=0;entryDy=0;endArrow=classic;endFill=1;endSize=8;startSize=8;strokeWidth=2;startArrow=none;startFill=0;elbow=vertical;" parent="1" source="9gm0HyqsbW9hDULjH3VM-127" target="HijE4YzQ6DnrZXbQjMkM-6" edge="1">
          <mxGeometry relative="1" as="geometry">
            <mxPoint x="-2249.42" y="-4770.8" as="sourcePoint" />
            <mxPoint x="-2250.42" y="-4895.8" as="targetPoint" />
            <Array as="points">
              <mxPoint x="-2080" y="-4850" />
            </Array>
          </mxGeometry>
        </mxCell>
        <mxCell id="BHnDcMYj4xYxUDNpLY_9-20" value="&lt;i&gt;&lt;font style=&quot;font-size: 14px;&quot;&gt;OIDC (JWT)&lt;/font&gt;&lt;/i&gt;" style="edgeLabel;html=1;align=center;verticalAlign=middle;resizable=0;points=[];" parent="BHnDcMYj4xYxUDNpLY_9-19" vertex="1" connectable="0">
          <mxGeometry x="0.3253" relative="1" as="geometry">
            <mxPoint x="12" y="-10" as="offset" />
          </mxGeometry>
        </mxCell>
        <mxCell id="BHnDcMYj4xYxUDNpLY_9-23" value="" style="group" parent="1" vertex="1" connectable="0">
          <mxGeometry x="-3440" y="-4398" width="175" height="220" as="geometry" />
        </mxCell>
        <mxCell id="BHnDcMYj4xYxUDNpLY_9-24" value="" style="rounded=1;whiteSpace=wrap;html=1;arcSize=5;fillColor=#bac8d3;strokeColor=#23445d;opacity=50;" parent="BHnDcMYj4xYxUDNpLY_9-23" vertex="1">
          <mxGeometry width="160" height="220" as="geometry" />
        </mxCell>
        <mxCell id="BHnDcMYj4xYxUDNpLY_9-25" value="ИР ЦЗК / УМТО (RNP)" style="rounded=1;whiteSpace=wrap;html=1;fillColor=none;strokeColor=none;fontStyle=1;align=left;" parent="BHnDcMYj4xYxUDNpLY_9-23" vertex="1">
          <mxGeometry x="13" y="1" width="127.5" height="40" as="geometry" />
        </mxCell>
        <mxCell id="BHnDcMYj4xYxUDNpLY_9-26" value="" style="sketch=0;outlineConnect=0;fontColor=#232F3E;gradientColor=none;fillColor=#232F3D;strokeColor=none;dashed=0;verticalLabelPosition=bottom;verticalAlign=top;align=center;html=1;fontSize=12;fontStyle=0;aspect=fixed;pointerEvents=1;shape=mxgraph.aws4.generic_application;" parent="BHnDcMYj4xYxUDNpLY_9-23" vertex="1">
          <mxGeometry x="14" y="101" width="110" height="110" as="geometry" />
        </mxCell>
        <mxCell id="BHnDcMYj4xYxUDNpLY_9-27" value="&lt;span style=&quot;font-size: 11px;&quot;&gt;&lt;b&gt;RNP Connector&lt;/b&gt;&lt;/span&gt;" style="rounded=1;whiteSpace=wrap;html=1;fillColor=#dae8fc;strokeColor=#6c8ebf;rotation=270;flipH=0;direction=west;" parent="BHnDcMYj4xYxUDNpLY_9-23" vertex="1">
          <mxGeometry x="60" y="95.5" width="200" height="30" as="geometry" />
        </mxCell>
        <mxCell id="BHnDcMYj4xYxUDNpLY_9-30" value="" style="shape=image;verticalLabelPosition=bottom;labelBackgroundColor=default;verticalAlign=top;aspect=fixed;imageAspect=0;image=data:image/svg+xml,PHN2ZyB4bWxucz0iaHR0cDovL3d3dy53My5vcmcvMjAwMC9zdmciIHN0cm9rZS13aWR0aD0iMC4wMDAyNDAwMDAwMDAwMDAwMDAwMyIgc3Ryb2tlPSIjMTg2ZGM3IiByb2xlPSJpbWciIHZpZXdCb3g9IjAgMCAyNC4wMCAyNC4wMCIgaGVpZ2h0PSI4MDBweCIgd2lkdGg9IjgwMHB4IiBmaWxsPSIjMTg2ZGM3Ij4mI3hhOyYjeGE7PGcgc3Ryb2tlLXdpZHRoPSIwIiBpZD0iU1ZHUmVwb19iZ0NhcnJpZXIiLz4mI3hhOyYjeGE7PGcgc3Ryb2tlLWxpbmVqb2luPSJyb3VuZCIgc3Ryb2tlLWxpbmVjYXA9InJvdW5kIiBpZD0iU1ZHUmVwb190cmFjZXJDYXJyaWVyIi8+JiN4YTsmI3hhOzxnIGlkPSJTVkdSZXBvX2ljb25DYXJyaWVyIj4mI3hhOyYjeGE7PHRpdGxlPlNBUCBpY29uPC90aXRsZT4mI3hhOyYjeGE7PHBhdGggZD0iTTAgNi4wNjR2MTEuODcyaDEyLjEzTDI0IDYuMDY0em0zLjI2NCAyLjIwOGguMDA1Yy44NjMuMDAxIDEuOTE1LjI0NSAyLjY3Ni42MzNsLS44MiAxLjQzYy0uODM1LS40MDQtMS4yNTUtLjQ0Mi0xLjczLS40NjctLjcwOC0uMDM4LTEuMDY0LjIxNS0xLjA2OS40ODgtLjAwNy4zMzIuNjY5LjYzMyAxLjMwNS44MzguOTY0LjMwNiAyLjE5LjcxNSAyLjM3NyAxLjlMNy43NyA4LjQzN2gyLjA0NmwyLjA2NCA1LjU3Ni0uMDA3LTUuNTc1aDIuMzdjMi4yNTcgMCAzLjMxOC43NjQgMy4zMTggMi41MTkgMCAxLjU3NS0xLjA5IDIuNTE0LTIuOTM2IDIuNTE0aC0uNzYzbC0uMDEgMi4wOTQtMy41ODgtLjAwMy0uMjUtLjkwOGMtLjM3LjEyMi0uNzg3LjE4OS0xLjIzLjE4OS0uNDU2IDAtLjg4NS0uMDcxLTEuMjYzLS4ybC0uMzU4LjkxOS0yIC4wMDYuMDktLjQ2MmMtLjAyOS4wMjUtLjA1Ny4wNS0uMDg3LjA3NC0uNTM1LjQzLTEuMjA4LjYyOS0yLjAzNy42NDRsLS4yMTMuMDAyYTUuMDc1IDUuMDc1IDAgMCAxLTIuNTgxLS42NzVsLjczLTEuNDQ4Yy43OS40NjcgMS4yODYuNTcyIDEuOTU2LjU1OC4zNDctLjAwNy41OTgtLjA3Ljc2MS0uMjM5YS41NTcuNTU3IDAgMCAwIC4xNTYtLjM2OWMuMDA3LS4zNzYtLjUzLS41NTMtMS4xODUtLjc1Ni0uNTMxLS4xNjQtMS4xMzUtLjM4OS0xLjYwNi0uNzM1LS41NTktLjQxLS44MjUtLjkyNC0uODEyLTEuNjVhMS45OSAxLjk5IDAgMCAxIC41NjYtMS4zNzdjLjUxOS0uNTM3IDEuMzU3LS44NjMgMi4zNjMtLjg2M3ptMTAuNTk3IDEuNjd2MS45MDRoLjUyMWMuNjk0IDAgMS4yNDctLjIzIDEuMjQ4LS45NjQgMC0uNzA5LS41NTQtLjk0LTEuMjQ4LS45NHptLTUuMDg3Ljc2N2wtLjc0OCAyLjM2MmMuMjIzLjA4NS40ODEuMTMzLjc1Ny4xMzMuMjY4IDAgLjUyLS4wNDcuNzQyLS4xMjZsLS43MzYtMi4zN3oiLz4mI3hhOyYjeGE7PC9nPiYjeGE7JiN4YTs8L3N2Zz4=;" parent="BHnDcMYj4xYxUDNpLY_9-23" vertex="1">
          <mxGeometry x="14" y="38" width="60" height="60" as="geometry" />
        </mxCell>
        <mxCell id="BHnDcMYj4xYxUDNpLY_9-31" value="" style="endArrow=none;html=1;rounded=0;edgeStyle=elbowEdgeStyle;entryX=0.5;entryY=0;entryDx=0;entryDy=0;startArrow=classic;startFill=1;endFill=0;endSize=8;startSize=8;strokeWidth=2;exitX=0;exitY=0.5;exitDx=0;exitDy=0;" parent="1" source="9gm0HyqsbW9hDULjH3VM-15" target="BHnDcMYj4xYxUDNpLY_9-27" edge="1">
          <mxGeometry width="50" height="50" relative="1" as="geometry">
            <mxPoint x="-2928" y="-4489.64" as="sourcePoint" />
            <mxPoint x="-3230" y="-4372.64" as="targetPoint" />
            <Array as="points">
              <mxPoint x="-3150" y="-4470" />
            </Array>
          </mxGeometry>
        </mxCell>
        <mxCell id="BHnDcMYj4xYxUDNpLY_9-33" value="&lt;font style=&quot;font-size: 12px;&quot;&gt;Исторические данные (ЕБДЗ)&lt;/font&gt;" style="edgeLabel;html=1;align=center;verticalAlign=middle;resizable=0;points=[];" parent="BHnDcMYj4xYxUDNpLY_9-31" vertex="1" connectable="0">
          <mxGeometry x="0.7128" y="-2" relative="1" as="geometry">
            <mxPoint x="1" as="offset" />
          </mxGeometry>
        </mxCell>
        <mxCell id="VSu6ArPYChDlR_NXCDlq-1" style="edgeStyle=orthogonalEdgeStyle;rounded=0;orthogonalLoop=1;jettySize=auto;html=1;exitX=0;exitY=0.5;exitDx=0;exitDy=0;entryX=1;entryY=0.75;entryDx=0;entryDy=0;endArrow=none;endFill=0;endSize=8;startSize=8;strokeWidth=2;startArrow=classic;startFill=1;elbow=vertical;" parent="1" source="9gm0HyqsbW9hDULjH3VM-80" target="7-6c2CMcGdHakHLiAiGI-4" edge="1">
          <mxGeometry relative="1" as="geometry">
            <mxPoint x="-2729" y="-4039" as="sourcePoint" />
            <mxPoint x="-2498" y="-4454" as="targetPoint" />
            <Array as="points">
              <mxPoint x="-2236" y="-4641" />
              <mxPoint x="-2240" y="-4641" />
              <mxPoint x="-2240" y="-4640" />
              <mxPoint x="-2290" y="-4640" />
              <mxPoint x="-2290" y="-4110" />
              <mxPoint x="-2683" y="-4110" />
            </Array>
          </mxGeometry>
        </mxCell>
        <mxCell id="P9wtrfxrvEUVNF6S-fL9-4" value="&lt;div style=&quot;font-size: 16px;&quot;&gt;Данные&lt;br&gt;&lt;/div&gt;&lt;div style=&quot;font-size: 16px;&quot;&gt;в исходном виде&lt;/div&gt;" style="edgeLabel;html=1;align=center;verticalAlign=middle;resizable=0;points=[];" parent="VSu6ArPYChDlR_NXCDlq-1" vertex="1" connectable="0">
          <mxGeometry x="0.5593" y="-2" relative="1" as="geometry">
            <mxPoint x="18" y="11" as="offset" />
          </mxGeometry>
        </mxCell>
        <mxCell id="k1dXgJqnFbgDIpXLIc-T-3" value="" style="endArrow=none;html=1;rounded=0;edgeStyle=elbowEdgeStyle;startArrow=classic;startFill=1;endFill=0;endSize=15;startSize=15;elbow=vertical;strokeWidth=3;strokeColor=#b85450;fillColor=#f8cecc;exitX=0.75;exitY=0;exitDx=0;exitDy=0;" parent="1" source="BHnDcMYj4xYxUDNpLY_9-7" target="4PIL1Zjf6-2FiPBBJ8uf-310" edge="1">
          <mxGeometry width="50" height="50" relative="1" as="geometry">
            <mxPoint x="-2085" y="-4780" as="sourcePoint" />
            <mxPoint x="-2439" y="-5562" as="targetPoint" />
            <Array as="points">
              <mxPoint x="-2449" y="-5120" />
            </Array>
          </mxGeometry>
        </mxCell>
        <mxCell id="k1dXgJqnFbgDIpXLIc-T-4" value="" style="endArrow=none;html=1;rounded=0;edgeStyle=elbowEdgeStyle;startArrow=classic;startFill=1;endFill=0;endSize=15;startSize=15;elbow=vertical;strokeWidth=3;strokeColor=#b85450;fillColor=#f8cecc;exitX=0.75;exitY=0;exitDx=0;exitDy=0;" parent="1" source="9gm0HyqsbW9hDULjH3VM-32" edge="1">
          <mxGeometry width="50" height="50" relative="1" as="geometry">
            <mxPoint x="-2376" y="-4778" as="sourcePoint" />
            <mxPoint x="-2600" y="-5570" as="targetPoint" />
            <Array as="points">
              <mxPoint x="-2530" y="-4900" />
            </Array>
          </mxGeometry>
        </mxCell>
        <mxCell id="k1dXgJqnFbgDIpXLIc-T-5" style="edgeStyle=elbowEdgeStyle;rounded=0;orthogonalLoop=1;jettySize=auto;html=1;exitX=0.25;exitY=0;exitDx=0;exitDy=0;entryX=0.5;entryY=1;entryDx=0;entryDy=0;endArrow=classic;endFill=1;endSize=8;startSize=8;strokeWidth=2;startArrow=none;startFill=0;elbow=vertical;" parent="1" source="9gm0HyqsbW9hDULjH3VM-89" target="HijE4YzQ6DnrZXbQjMkM-6" edge="1">
          <mxGeometry relative="1" as="geometry">
            <mxPoint x="-1731" y="-4711" as="sourcePoint" />
            <mxPoint x="-2815" y="-4910" as="targetPoint" />
            <Array as="points">
              <mxPoint x="-2490" y="-4850" />
            </Array>
          </mxGeometry>
        </mxCell>
        <mxCell id="k1dXgJqnFbgDIpXLIc-T-8" value="Аналитик данных" style="sketch=0;outlineConnect=0;fontColor=#232F3E;gradientColor=none;fillColor=#232F3D;strokeColor=none;dashed=0;verticalLabelPosition=bottom;verticalAlign=top;align=center;html=1;fontSize=12;fontStyle=0;aspect=fixed;pointerEvents=1;shape=mxgraph.aws4.users;" parent="1" vertex="1">
          <mxGeometry x="-2646.58" y="-5670" width="98" height="98" as="geometry" />
        </mxCell>
        <mxCell id="P9wtrfxrvEUVNF6S-fL9-1" value="" style="endArrow=none;html=1;rounded=0;edgeStyle=elbowEdgeStyle;startArrow=classic;startFill=1;endFill=0;endSize=15;startSize=15;elbow=vertical;strokeWidth=3;strokeColor=#b85450;fillColor=#f8cecc;exitX=0.25;exitY=0;exitDx=0;exitDy=0;" parent="1" source="9gm0HyqsbW9hDULjH3VM-89" target="k1dXgJqnFbgDIpXLIc-T-8" edge="1">
          <mxGeometry width="50" height="50" relative="1" as="geometry">
            <mxPoint x="-2684.35" y="-4775" as="sourcePoint" />
            <mxPoint x="-2529.35" y="-5550" as="targetPoint" />
            <Array as="points">
              <mxPoint x="-2340" y="-4900" />
            </Array>
          </mxGeometry>
        </mxCell>
        <mxCell id="P9wtrfxrvEUVNF6S-fL9-2" value="" style="endArrow=none;html=1;rounded=0;edgeStyle=elbowEdgeStyle;startArrow=classic;startFill=1;endFill=0;endSize=15;startSize=15;elbow=vertical;strokeWidth=3;strokeColor=#b85450;fillColor=#f8cecc;exitX=0.25;exitY=0;exitDx=0;exitDy=0;" parent="1" source="9gm0HyqsbW9hDULjH3VM-61" target="k1dXgJqnFbgDIpXLIc-T-8" edge="1">
          <mxGeometry width="50" height="50" relative="1" as="geometry">
            <mxPoint x="-1936.42" y="-4907" as="sourcePoint" />
            <mxPoint x="-2370.42" y="-5689" as="targetPoint" />
            <Array as="points">
              <mxPoint x="-2080" y="-4900" />
            </Array>
          </mxGeometry>
        </mxCell>
        <mxCell id="P9wtrfxrvEUVNF6S-fL9-3" value="" style="endArrow=none;html=1;rounded=0;edgeStyle=orthogonalEdgeStyle;startArrow=classic;startFill=1;endFill=0;endSize=15;startSize=15;elbow=vertical;strokeWidth=3;strokeColor=#b85450;fillColor=#f8cecc;exitX=0.25;exitY=0;exitDx=0;exitDy=0;" parent="1" source="BHnDcMYj4xYxUDNpLY_9-6" target="k1dXgJqnFbgDIpXLIc-T-8" edge="1">
          <mxGeometry width="50" height="50" relative="1" as="geometry">
            <mxPoint x="-1380.42" y="-4875" as="sourcePoint" />
            <mxPoint x="-2500.42" y="-5657" as="targetPoint" />
            <Array as="points">
              <mxPoint x="-2520" y="-4900" />
              <mxPoint x="-2598" y="-4900" />
            </Array>
          </mxGeometry>
        </mxCell>
      </root>
    </mxGraphModel>
  </diagram>
</mxfile>
